<svg xmlns="http://www.w3.org/2000/svg" width="28" height="28" fill="none"><path fill="#fff" d="M25.7.5H2.3A1.8 1.8 0 0 0 .5 2.3v23.4a1.8 1.8 0 0 0 1.8 1.8h23.4a1.8 1.8 0 0 0 1.8-1.8V2.3A1.8 1.8 0 0 0 25.7.5ZM8.498 23.535H4.437v-12.91h4.061v12.91ZM6.467 8.853a2.362 2.362 0 1 1 .014-4.725 2.362 2.362 0 0 1-.014 4.725Zm17.092 14.682H19.58V17.29c0-1.518 0-3.375-2.115-3.375s-2.37 1.604-2.37 3.29v6.414H11.12V10.625h3.722v1.772h.085a4.23 4.23 0 0 1 3.808-2.11c4.062 0 4.823 2.7 4.823 6.16v7.088Z"/></svg>