<svg xmlns="http://www.w3.org/2000/svg" width="30" height="24" fill="none"><path fill="#fff" d="M29.492 3.09c-1.08.45-2.16.81-3.42.9 1.26-.72 2.16-1.89 2.61-3.24-1.17.72-2.43 1.17-3.78 1.44-1.08-1.17-2.61-1.89-4.23-1.89-3.24 0-5.94 2.61-5.94 5.94 0 .45.09.9.18 1.35-4.95-.27-9.27-2.61-12.24-6.21-.54.9-.81 1.89-.81 2.97 0 2.07 1.08 3.87 2.61 4.95-.99 0-1.89-.27-2.7-.72v.09c0 2.88 2.07 5.22 4.77 5.76-.54.09-.99.18-1.53.18-.36 0-.72 0-1.08-.09.72 2.34 2.97 4.05 5.49 4.14-1.98 1.62-4.59 2.52-7.38 2.52-.45 0-.99 0-1.44-.09 2.7 1.62 5.85 2.61 9.18 2.61 10.89 0 16.83-9 16.83-16.83v-.72c1.08-.9 2.07-1.89 2.88-3.06Z"/></svg>