<svg width="89" height="32" viewBox="0 0 89 32" fill="none" xmlns="http://www.w3.org/2000/svg">
<g clip-path="url(#clip0_21538_130)">
<path d="M6.00761 8.88634C4.44141 8.88634 3.14849 9.2527 2.15446 9.96236C1.13652 10.6712 0.588264 11.672 0.414907 12.9436H2.52765C2.65148 12.2835 3.04943 11.7455 3.64636 11.3552C4.21767 10.9632 4.98796 10.7677 5.88378 10.7677C6.92734 10.7677 7.7224 10.988 8.31933 11.4765C8.89149 11.9658 9.16477 12.6259 9.16477 13.4577V14.3373H5.28685C3.54644 14.3373 2.25438 14.7045 1.35855 15.3885C0.440526 16.0743 -0.0078125 17.1016 -0.0078125 18.3971C-0.0078125 19.5705 0.439672 20.4757 1.33464 21.1606C2.20399 21.8446 3.37309 22.187 4.83937 22.187C6.75313 22.187 8.21941 21.4535 9.26297 20.0111L9.43804 22.0402H11.2767V13.6046C11.2767 12.1135 10.8044 10.9402 9.91029 10.1323C8.99055 9.30138 7.67287 8.88634 6.00761 8.88634ZM9.18953 16.7344C9.18953 17.8352 8.81634 18.7156 8.07082 19.3749C7.3253 20.0598 6.30565 20.4022 5.01358 20.4022C4.14252 20.4022 3.44738 20.2058 2.9256 19.8156C2.40297 19.4244 2.15446 18.9103 2.15446 18.275C2.15446 16.8318 3.14849 16.123 5.11264 16.123H9.18953V16.7344ZM15.7515 4.04429C15.3535 4.04429 15.0307 4.16641 14.7575 4.43541C14.4842 4.70441 14.3595 5.02209 14.3595 5.41321C14.3595 5.80519 14.4833 6.12202 14.7575 6.39187C15.0307 6.66088 15.3535 6.783 15.7515 6.783C16.1495 6.783 16.4723 6.66088 16.7455 6.39187C17.0188 6.12287 17.1435 5.80434 17.1435 5.41321C17.1435 5.02209 17.0188 4.70441 16.7455 4.43541C16.6141 4.30747 16.4585 4.20699 16.2879 4.13984C16.1172 4.07268 15.9349 4.0402 15.7515 4.04429ZM12.5943 10.9641H14.6823V22.0154H16.7951V9.05714H12.5943V10.9641ZM38.247 9.6925C37.3025 9.15449 36.1838 8.91025 34.9651 8.91025C33.0522 8.91025 31.5603 9.64382 30.4416 11.1349L30.1684 9.05714H28.3289V27.1017H30.4416V20.035C30.8917 20.6976 31.5093 21.2292 32.2316 21.5756C32.9771 21.9667 33.9216 22.1623 34.9651 22.1623C36.1838 22.1623 37.2777 21.8933 38.2222 21.3314C39.1751 20.7686 39.9569 19.9571 40.4836 18.9838C41.0301 17.9812 41.2795 16.8318 41.2795 15.5363C41.2795 14.1673 41.031 12.9692 40.4836 11.9666C39.937 10.988 39.1915 10.2057 38.2461 9.6925H38.247ZM37.9481 18.959C37.153 19.8395 36.0839 20.304 34.767 20.304C33.9216 20.304 33.1761 20.1085 32.5296 19.6934C31.8575 19.2774 31.3217 18.6739 30.9882 17.9573C30.6158 17.2229 30.4416 16.4167 30.4416 15.4637C30.4416 14.5585 30.6158 13.7267 30.9882 12.9931C31.3614 12.2843 31.8592 11.7215 32.5296 11.3065C33.1761 10.9154 33.9216 10.7198 34.767 10.7198C36.0839 10.7198 37.153 11.1596 37.9481 12.0401C38.744 12.9197 39.142 14.0939 39.142 15.4876C39.142 16.9308 38.744 18.0794 37.9481 18.959ZM19.7037 11.5755V22.0154H21.8165V10.9641H26.3895V9.05714H22.2639C20.8463 9.05714 19.7037 10.1571 19.7037 11.5755ZM45.8534 4.21508H43.7406V22.0163H45.8534V4.21508ZM54.254 8.88634C52.6886 8.88634 51.3965 9.2527 50.4025 9.96236C49.3829 10.6712 48.8363 11.6729 48.6621 12.9444H50.7748C50.8987 12.2843 51.2966 11.7463 51.8936 11.356C52.4657 10.9641 53.2352 10.7685 54.131 10.7685C55.1745 10.7685 55.9696 10.9888 56.5665 11.4773C57.1387 11.9666 57.412 12.6268 57.412 13.4585V14.3381H53.534C51.7936 14.3381 50.5016 14.7053 49.6058 15.3894C48.6869 16.0743 48.2394 17.1016 48.2394 18.3971C48.2394 19.5705 48.6869 20.4757 49.5818 21.1606C50.4512 21.8446 51.6194 22.187 53.0866 22.187C55.0003 22.187 56.4666 21.4535 57.5102 20.0111L57.6852 22.0402H59.5247V13.6046C59.5247 12.1135 59.0525 10.9402 58.1575 10.1323C57.2378 9.30138 55.9201 8.88549 54.2548 8.88549L54.254 8.88634ZM57.4359 16.7344C57.4359 17.8352 57.0635 18.7156 56.3172 19.3749C55.5716 20.0598 54.5528 20.4022 53.2599 20.4022C52.3906 20.4022 51.6946 20.2058 51.1728 19.8156C50.6502 19.4244 50.4017 18.9103 50.4017 18.275C50.4017 16.8318 51.3957 16.123 53.3598 16.123H57.4359V16.7344ZM68.7212 8.88634C66.8322 8.88634 65.3907 9.5217 64.3719 10.7933L64.0986 9.03237H62.2583V21.9915H64.3719V15.5124C64.3719 14.0691 64.7442 12.8958 65.4402 12.064C66.1362 11.2331 67.1311 10.7933 68.3489 10.7933C69.5171 10.7933 70.3865 11.1596 71.0081 11.8437C71.6042 12.5533 71.9031 13.5807 71.9031 14.9248V22.0163H74.0159V14.8027C74.0159 12.7737 73.5188 11.2578 72.5743 10.3279C71.6298 9.37482 70.3369 8.88634 68.7212 8.88634ZM88.7564 15.9274C88.7811 15.5115 88.8059 15.2186 88.8059 15.0478C88.7811 13.801 88.5079 12.6994 87.9605 11.7711C87.4139 10.842 86.6932 10.1084 85.7734 9.64382C84.8537 9.15449 83.7845 8.9094 82.5667 8.9094C81.349 8.9094 80.255 9.17926 79.3105 9.71726C78.3679 10.2687 77.6076 11.0843 77.1235 12.0631C76.5769 13.0657 76.3276 14.2152 76.3276 15.5354C76.3276 16.8318 76.6008 18.0051 77.1474 18.9829C77.6948 20.0103 78.4403 20.7925 79.4104 21.3305C80.4045 21.8924 81.5232 22.1614 82.84 22.1614C84.3319 22.1614 85.5992 21.7216 86.6436 20.8899C87.6872 20.0589 88.3337 18.9829 88.5822 17.6627H86.4447C86.2209 18.4944 85.7734 19.1298 85.127 19.5944C84.4557 20.0837 83.6607 20.3032 82.6914 20.3032C81.4728 20.3032 80.4788 19.9121 79.7085 19.1546C78.9621 18.3962 78.5402 17.3698 78.5155 16.0973V15.9265H88.7564V15.9274ZM79.9322 11.6976C80.6777 11.0614 81.5479 10.7198 82.5667 10.7198C83.6854 10.7198 84.6052 11.0127 85.3507 11.6242C86.0715 12.2356 86.4942 13.0913 86.5932 14.1913H78.6393C78.7392 13.1648 79.1858 12.333 79.9322 11.6976Z" fill="url(#paint0_linear_21538_130)"/>
</g>
<defs>
<linearGradient id="paint0_linear_21538_130" x1="44.6428" y1="4.05823" x2="44.6428" y2="33.1532" gradientUnits="userSpaceOnUse">
<stop stop-color="#E4E5E7"/>
<stop offset="1" stop-color="#E4E5E7" stop-opacity="0.7"/>
</linearGradient>
<clipPath id="clip0_21538_130">
<rect width="89" height="32" fill="white"/>
</clipPath>
</defs>
</svg>
