<svg width="90" height="24" viewBox="0 0 90 24" fill="none" xmlns="http://www.w3.org/2000/svg">
<g clip-path="url(#clip0_21538_130)">
<path d="M7.0037 4.88634C5.43751 4.88634 4.14458 5.2527 3.15055 5.96236C2.13261 6.67116 1.58436 7.67202 1.411 8.94359H3.52374C3.64757 8.28347 4.04552 7.74546 4.64245 7.35519C5.21376 6.96322 5.98405 6.76766 6.87988 6.76766C7.92344 6.76766 8.71849 6.98798 9.31542 7.47646C9.88759 7.96579 10.1609 8.62591 10.1609 9.45769V10.3373H6.28295C4.54254 10.3373 3.25047 10.7045 2.35465 11.3885C1.43662 12.0743 0.988281 13.1016 0.988281 14.3971C0.988281 15.5705 1.43577 16.4757 2.33073 17.1606C3.20008 17.8446 4.36918 18.187 5.83546 18.187C7.74923 18.187 9.21551 17.4535 10.2591 16.0111L10.4341 18.0402H12.2727V9.60457C12.2727 8.11353 11.8005 6.94016 10.9064 6.1323C9.98665 5.30138 8.66896 4.88634 7.0037 4.88634ZM10.1856 12.7344C10.1856 13.8352 9.81244 14.7156 9.06691 15.3749C8.32139 16.0598 7.30174 16.4022 6.00967 16.4022C5.13861 16.4022 4.44348 16.2058 3.9217 15.8156C3.39906 15.4244 3.15055 14.9103 3.15055 14.275C3.15055 12.8318 4.14458 12.123 6.10873 12.123H10.1856V12.7344ZM16.7476 0.044288C16.3496 0.044288 16.0268 0.166407 15.7536 0.43541C15.4803 0.704413 15.3556 1.02209 15.3556 1.41321C15.3556 1.80519 15.4794 2.12202 15.7536 2.39187C16.0268 2.66088 16.3496 2.783 16.7476 2.783C17.1455 2.783 17.4683 2.66088 17.7416 2.39187C18.0149 2.12287 18.1396 1.80434 18.1396 1.41321C18.1396 1.02209 18.0149 0.704413 17.7416 0.43541C17.6102 0.307471 17.4546 0.206991 17.284 0.139838C17.1133 0.0726845 16.931 0.0402024 16.7476 0.044288ZM13.5904 6.96407H15.6784V18.0154H17.7912V5.05714H13.5904V6.96407ZM39.2431 5.6925C38.2986 5.15449 37.1799 4.91025 35.9612 4.91025C34.0483 4.91025 32.5564 5.64382 31.4377 7.13487L31.1644 5.05714H29.325V23.1017H31.4377V16.035C31.8878 16.6976 32.5054 17.2292 33.2277 17.5756C33.9732 17.9667 34.9177 18.1623 35.9612 18.1623C37.1799 18.1623 38.2738 17.8933 39.2183 17.3314C40.1712 16.7686 40.9529 15.9571 41.4797 14.9838C42.0262 13.9812 42.2756 12.8318 42.2756 11.5363C42.2756 10.1673 42.0271 8.96921 41.4797 7.96664C40.9331 6.98798 40.1876 6.20574 39.2422 5.6925H39.2431ZM38.9442 14.959C38.1491 15.8395 37.08 16.304 35.7631 16.304C34.9177 16.304 34.1722 16.1085 33.5257 15.6934C32.8536 15.2774 32.3178 14.6739 31.9843 13.9573C31.6119 13.2229 31.4377 12.4167 31.4377 11.4637C31.4377 10.5585 31.6119 9.72669 31.9843 8.99312C32.3575 8.28432 32.8553 7.72155 33.5257 7.30652C34.1722 6.91539 34.9177 6.71983 35.7631 6.71983C37.08 6.71983 38.1491 7.15963 38.9442 8.04008C39.7401 8.91968 40.1381 10.0939 40.1381 11.4876C40.1381 12.9308 39.7401 14.0794 38.9442 14.959ZM20.6998 7.57552V18.0154H22.8125V6.96407H27.3856V5.05714H23.26C21.8424 5.05714 20.6998 6.15706 20.6998 7.57552ZM46.8495 0.215084H44.7367V18.0163H46.8495V0.215084ZM55.25 4.88634C53.6847 4.88634 52.3926 5.2527 51.3986 5.96236C50.379 6.67116 49.8324 7.67287 49.6582 8.94445H51.7709C51.8948 8.28432 52.2927 7.74632 52.8897 7.35605C53.4618 6.96407 54.2313 6.76851 55.1271 6.76851C56.1706 6.76851 56.9657 6.98884 57.5626 7.47731C58.1348 7.96664 58.4081 8.62677 58.4081 9.45854V10.3381H54.5301C52.7897 10.3381 51.4977 10.7053 50.6018 11.3894C49.683 12.0743 49.2355 13.1016 49.2355 14.3971C49.2355 15.5705 49.683 16.4757 50.5779 17.1606C51.4473 17.8446 52.6155 18.187 54.0827 18.187C55.9964 18.187 57.4627 17.4535 58.5063 16.0111L58.6813 18.0402H60.5208V9.60457C60.5208 8.11353 60.0485 6.94016 59.1536 6.1323C58.2338 5.30138 56.9162 4.88549 55.2509 4.88549L55.25 4.88634ZM58.432 12.7344C58.432 13.8352 58.0596 14.7156 57.3133 15.3749C56.5677 16.0598 55.5489 16.4022 54.256 16.4022C53.3867 16.4022 52.6907 16.2058 52.1689 15.8156C51.6463 15.4244 51.3978 14.9103 51.3978 14.275C51.3978 12.8318 52.3918 12.123 54.3559 12.123H58.432V12.7344ZM69.7173 4.88634C67.8283 4.88634 66.3868 5.5217 65.368 6.79328L65.0947 5.03237H63.2544V17.9915H65.368V11.5124C65.368 10.0691 65.7403 8.89577 66.4363 8.064C67.1323 7.23307 68.1272 6.79328 69.345 6.79328C70.5132 6.79328 71.3825 7.15963 72.0042 7.84367C72.6003 8.55332 72.8992 9.58066 72.8992 10.9248V18.0163H75.0119V10.8027C75.0119 8.77365 74.5149 7.25784 73.5704 6.32786C72.6259 5.37482 71.333 4.88634 69.7173 4.88634ZM89.7525 11.9274C89.7772 11.5115 89.802 11.2186 89.802 11.0478C89.7772 9.80099 89.504 8.69936 88.9566 7.77108C88.41 6.84195 87.6893 6.10839 86.7695 5.64382C85.8498 5.15449 84.7806 4.9094 83.5628 4.9094C82.3451 4.9094 81.2511 5.17926 80.3066 5.71726C79.364 6.2687 78.6037 7.08426 78.1196 8.06314C77.573 9.06571 77.3237 10.2152 77.3237 11.5354C77.3237 12.8318 77.5969 14.0051 78.1435 14.9829C78.6909 16.0103 79.4364 16.7925 80.4065 17.3305C81.4006 17.8924 82.5193 18.1614 83.8361 18.1614C85.328 18.1614 86.5953 17.7216 87.6397 16.8899C88.6833 16.0589 89.3298 14.9829 89.5783 13.6627H87.4408C87.217 14.4944 86.7695 15.1298 86.1231 15.5944C85.4518 16.0837 84.6568 16.3032 83.6875 16.3032C82.4689 16.3032 81.4749 15.9121 80.7046 15.1546C79.9582 14.3962 79.5363 13.3698 79.5116 12.0973V11.9265H89.7525V11.9274ZM80.9283 7.69764C81.6738 7.06143 82.544 6.71983 83.5628 6.71983C84.6815 6.71983 85.6013 7.01275 86.3468 7.6242C87.0676 8.23565 87.4903 9.09133 87.5893 10.1913H79.6354C79.7353 9.16477 80.1819 8.333 80.9283 7.69764Z" fill="url(#paint0_linear_21538_130)"/>
</g>
<defs>
<linearGradient id="paint0_linear_21538_130" x1="45.6389" y1="0.0582259" x2="45.6389" y2="29.1532" gradientUnits="userSpaceOnUse">
<stop stop-color="#E4E5E7"/>
<stop offset="1" stop-color="#E4E5E7" stop-opacity="0.7"/>
</linearGradient>
<clipPath id="clip0_21538_130">
<rect width="89" height="24" fill="white" transform="translate(0.996094)"/>
</clipPath>
</defs>
</svg>
