<svg width="121" height="32" viewBox="0 0 121 32" fill="none" xmlns="http://www.w3.org/2000/svg">
<path fill-rule="evenodd" clip-rule="evenodd" d="M78.4258 7.53073C78.4258 7.95379 78.5757 8.30963 78.8789 8.60134C79.1804 8.89305 79.5454 9.03814 79.9738 9.03814C80.3866 9.03814 80.7438 8.89305 81.047 8.60134C81.3485 8.30963 81.5001 7.95379 81.5001 7.53073C81.5001 7.10921 81.3532 6.74878 81.0578 6.44944C80.764 6.15162 80.4021 6.00195 79.9738 6.00195C79.5469 6.00195 79.1804 6.1501 78.8789 6.44944C78.5773 6.74725 78.4258 7.10768 78.4258 7.53073ZM7.78944 20.2933C7.86213 20.9775 7.96574 21.4356 8.09874 21.6693H10.887C10.5761 21.2324 10.4215 20.5192 10.4215 19.528V13.5183C10.4215 11.2595 8.83639 10.1309 5.66463 10.1309C2.40473 10.1309 0.692808 11.4122 0.530431 13.9765H3.27383C3.33413 13.3213 3.53981 12.8585 3.89395 12.5897C4.24809 12.3194 4.82955 12.185 5.64143 12.185C6.39456 12.185 6.92962 12.298 7.24664 12.5241C7.56366 12.7501 7.72141 13.1029 7.72141 13.584C7.72141 13.9765 7.59614 14.2712 7.34562 14.4683C7.09509 14.6653 6.6822 14.7997 6.10692 14.873L4.38108 15.0257C1.45985 15.3159 0 16.4888 0 18.543C0 19.6075 0.372693 20.4367 1.11808 21.0354C1.86347 21.6326 2.86247 21.9319 4.11664 21.9319C5.79763 21.9319 7.02241 21.3852 7.78944 20.2933ZM7.72141 17.2097C7.72141 18.0986 7.44923 18.7797 6.90333 19.2532C6.35744 19.7266 5.65071 19.9633 4.77852 19.9633C4.15839 19.9633 3.68363 19.829 3.35114 19.5586C3.01867 19.2882 2.85319 18.9141 2.85319 18.4331C2.85319 17.9519 3.01248 17.5838 3.3295 17.3288C3.64652 17.0738 4.17386 16.9027 4.91151 16.8156L6.4162 16.6416C7.02086 16.5698 7.45541 16.4155 7.72141 16.1834V17.2097ZM24.2524 11.7259C25.1665 12.8041 25.6242 14.2397 25.6242 16.0312C25.6242 17.8089 25.1665 19.2369 24.2524 20.3151C23.3231 21.3934 22.0766 21.9325 20.5132 21.9325C18.9637 21.9325 17.7837 21.3567 16.9734 20.2067V25.9538H14.1836V10.3926H16.8605V12.0099C17.6863 10.7576 18.9033 10.1299 20.5116 10.1299C22.0766 10.1299 23.3231 10.6629 24.2524 11.7259ZM19.8482 19.6584C20.7622 19.6584 21.4859 19.3301 22.0164 18.6749C22.5328 18.0335 22.7911 17.1232 22.7911 15.9426C22.7911 14.7911 22.5359 13.9144 22.0272 13.3096C21.5184 12.7048 20.7915 12.4024 19.8482 12.4024C18.9188 12.4024 18.195 12.7155 17.6801 13.3417C17.1636 13.9679 16.9053 14.8644 16.9053 16.0297C16.9053 17.2103 17.1713 18.1052 17.7018 18.7177C18.2028 19.3454 18.9188 19.6584 19.8482 19.6584ZM39.9586 16.0312C39.9586 14.2397 39.5008 12.8041 38.5868 11.7259C37.6575 10.6629 36.411 10.1299 34.8476 10.1299C33.2393 10.1299 32.0221 10.7576 31.1964 12.0099V10.3926H28.5195V25.9538H31.3078V20.2067C32.1181 21.3567 33.298 21.9325 34.8476 21.9325C36.411 21.9325 37.6575 21.3934 38.5868 20.3151C39.5008 19.2369 39.9586 17.8089 39.9586 16.0312ZM36.3507 18.6749C35.8203 19.3301 35.0966 19.6584 34.1825 19.6584C33.2532 19.6584 32.5371 19.3454 32.0362 18.7177C31.5057 18.1052 31.2397 17.2103 31.2397 16.0297C31.2397 14.8644 31.498 13.9679 32.0144 13.3417C32.5294 12.7155 33.2532 12.4024 34.1825 12.4024C35.1259 12.4024 35.8527 12.7048 36.3616 13.3096C36.8703 13.9144 37.1255 14.7911 37.1255 15.9426C37.1255 17.1232 36.8672 18.0335 36.3507 18.6749ZM42.4805 18.0847H45.2022C45.2764 18.7842 45.5085 19.2791 45.8997 19.5708C46.291 19.8625 46.9064 20.0076 47.7477 20.0076C49.2523 20.0076 50.0055 19.5555 50.0055 18.653C50.0055 18.2452 49.8431 17.932 49.5183 17.7137C49.1937 17.4953 48.6106 17.3136 47.7709 17.1669L46.4657 16.9485C43.9728 16.5407 42.7264 15.4045 42.7264 13.5397C42.7264 12.4767 43.1393 11.6413 43.9651 11.038C44.7909 10.4333 45.9569 10.1309 47.4617 10.1309C50.7215 10.1309 52.404 11.4061 52.5077 13.9551H49.874C49.8447 13.2846 49.6313 12.8081 49.2323 12.5241C48.8333 12.24 48.2441 12.098 47.4617 12.098C46.1348 12.098 45.4697 12.5348 45.4697 13.4099C45.4697 13.7886 45.6167 14.0834 45.912 14.2942C46.2075 14.5049 46.693 14.6699 47.372 14.7859L48.8102 15.0043C50.1973 15.2517 51.204 15.6458 51.8303 16.1849C52.4566 16.724 52.7705 17.4739 52.7705 18.436C52.7705 19.5723 52.3283 20.446 51.4422 21.0584C50.5576 21.6708 49.3112 21.9762 47.7028 21.9762C44.3687 21.9747 42.6274 20.6781 42.4805 18.0847ZM72.9093 14.2168C72.9093 12.9492 72.5582 11.9519 71.8577 11.2234C71.1571 10.4949 70.1797 10.1299 68.924 10.1299C67.4194 10.1299 66.2395 10.8294 65.3842 12.2283C64.7641 10.8294 63.5842 10.1299 61.8429 10.1299C60.4573 10.1299 59.3717 10.7576 58.5907 12.0099V10.3926H55.8906V21.6698H58.6789V15.4631C58.6789 14.5009 58.8953 13.7693 59.3315 13.2669C59.7676 12.7644 60.332 12.5124 61.0248 12.5124C62.3533 12.5124 63.0167 13.2256 63.0167 14.6536V21.6698H65.7833V15.4631C65.7833 14.5009 66.0013 13.7693 66.4359 13.2669C66.872 12.7644 67.4426 12.5124 68.1509 12.5124C69.4637 12.5124 70.1211 13.2256 70.1211 14.6536V21.6683H72.9093V14.2168ZM94.2691 12.4915H90.7014V18.5883C90.7014 18.9533 90.8004 19.2083 91 19.3534C91.1994 19.4986 91.535 19.5718 92.0067 19.5718H94.0433V21.6703C93.4387 21.7283 91.8659 21.7573 91.4979 21.7573C90.2591 21.7573 89.356 21.5282 88.7869 21.0685C88.2194 20.6088 87.9349 19.8773 87.9349 18.8723V12.4915H85.3477V10.393H87.9364V6.62988H90.703V10.3946H94.2707V12.4915H94.2691ZM107.813 14.1955C107.813 12.8973 107.457 11.897 106.74 11.1898C106.024 10.4842 105.047 10.1299 103.808 10.1299C102.364 10.1299 101.206 10.7194 100.335 11.9V6.62793H97.5469V21.6683H100.335V15.3531C100.335 14.4643 100.582 13.7694 101.076 13.2669C101.569 12.7629 102.171 12.5124 102.879 12.5124C104.31 12.5124 105.026 13.2257 105.026 14.6536V21.6699H107.813V14.1955ZM120.953 23.2852H110.066V25.3836H120.953V23.2852ZM81.3915 10.3926V19.5713H84.4673V21.6698H75.5273V19.5713H78.6032V12.491H75.5273V10.3926H81.3915Z" fill="url(#paint0_linear_21538_42)"/>
<defs>
<linearGradient id="paint0_linear_21538_42" x1="60.8086" y1="6.01431" x2="60.8086" y2="31.1902" gradientUnits="userSpaceOnUse">
<stop stop-color="#E4E5E7"/>
<stop offset="1" stop-color="#E4E5E7" stop-opacity="0.7"/>
</linearGradient>
</defs>
</svg>
