<svg width="122" height="20" viewBox="0 0 122 20" fill="none" xmlns="http://www.w3.org/2000/svg">
<g clip-path="url(#clip0_21538_42)">
<path fill-rule="evenodd" clip-rule="evenodd" d="M79.4219 1.53073C79.4219 1.95379 79.5718 2.30963 79.875 2.60134C80.1765 2.89305 80.5415 3.03814 80.9698 3.03814C81.3827 3.03814 81.7399 2.89305 82.0431 2.60134C82.3446 2.30963 82.4962 1.95379 82.4962 1.53073C82.4962 1.10921 82.3493 0.74878 82.0539 0.449439C81.7601 0.151624 81.3982 0.00195312 80.9698 0.00195312C80.543 0.00195312 80.1765 0.150096 79.875 0.449439C79.5734 0.747253 79.4219 1.10768 79.4219 1.53073ZM8.78554 14.2933C8.85822 14.9775 8.96184 15.4356 9.09483 15.6693H11.8831C11.5722 15.2324 11.4176 14.5192 11.4176 13.528V7.51832C11.4176 5.25951 9.83248 4.13086 6.66073 4.13086C3.40082 4.13086 1.6889 5.41223 1.52652 7.97649H4.26992C4.33023 7.3213 4.5359 6.85854 4.89005 6.58974C5.24418 6.31941 5.82564 6.18502 6.63753 6.18502C7.39065 6.18502 7.92572 6.29804 8.24274 6.52407C8.55976 6.7501 8.7175 7.1029 8.7175 7.58399C8.7175 7.97649 8.59224 8.27125 8.34171 8.46826C8.09118 8.66528 7.67829 8.79968 7.10301 8.87298L5.37718 9.02571C2.45594 9.31589 0.996094 10.4888 0.996094 12.543C0.996094 13.6075 1.36879 14.4367 2.11417 15.0354C2.85957 15.6326 3.85856 15.9319 5.11273 15.9319C6.79372 15.9319 8.0185 15.3852 8.78554 14.2933ZM8.7175 11.2097C8.7175 12.0986 8.44533 12.7797 7.89943 13.2532C7.35354 13.7266 6.6468 13.9633 5.77461 13.9633C5.15449 13.9633 4.67972 13.829 4.34724 13.5586C4.01476 13.2882 3.84928 12.9141 3.84928 12.4331C3.84928 11.9519 4.00857 11.5838 4.32559 11.3288C4.64261 11.0738 5.16995 10.9027 5.9076 10.8156L7.4123 10.6416C8.01696 10.5698 8.45151 10.4155 8.7175 10.1834V11.2097ZM25.2485 5.72586C26.1626 6.80411 26.6203 8.23973 26.6203 10.0312C26.6203 11.8089 26.1626 13.2369 25.2485 14.3151C24.3192 15.3934 23.0727 15.9325 21.5093 15.9325C19.9598 15.9325 18.7798 15.3567 17.9695 14.2067V19.9538H15.1797V4.39257H17.8566V6.00993C18.6824 4.75759 19.8994 4.12988 21.5077 4.12988C23.0727 4.12988 24.3192 4.6629 25.2485 5.72586ZM20.8443 13.6584C21.7583 13.6584 22.482 13.3301 23.0125 12.6749C23.5289 12.0335 23.7872 11.1232 23.7872 9.94261C23.7872 8.79106 23.532 7.91442 23.0233 7.30963C22.5144 6.70484 21.7876 6.40244 20.8443 6.40244C19.9149 6.40244 19.1911 6.71552 18.6762 7.3417C18.1597 7.96787 17.9014 8.86438 17.9014 10.0297C17.9014 11.2103 18.1674 12.1052 18.6979 12.7177C19.1988 13.3454 19.9149 13.6584 20.8443 13.6584ZM40.9547 10.0312C40.9547 8.23973 40.4969 6.80411 39.5829 5.72586C38.6535 4.6629 37.4071 4.12988 35.8437 4.12988C34.2353 4.12988 33.0182 4.75759 32.1925 6.00993V4.39257H29.5156V19.9538H32.3039V14.2067C33.1142 15.3567 34.2941 15.9325 35.8437 15.9325C37.4071 15.9325 38.6535 15.3934 39.5829 14.3151C40.4969 13.2369 40.9547 11.8089 40.9547 10.0312ZM37.3467 12.6749C36.8164 13.3301 36.0927 13.6584 35.1786 13.6584C34.2492 13.6584 33.5332 13.3454 33.0322 12.7177C32.5018 12.1052 32.2358 11.2103 32.2358 10.0297C32.2358 8.86438 32.4941 7.96787 33.0105 7.3417C33.5255 6.71552 34.2492 6.40244 35.1786 6.40244C36.122 6.40244 36.8488 6.70484 37.3577 7.30963C37.8664 7.91442 38.1216 8.79106 38.1216 9.94261C38.1216 11.1232 37.8633 12.0335 37.3467 12.6749ZM43.4766 12.0847H46.1983C46.2725 12.7842 46.5046 13.2791 46.8958 13.5708C47.2871 13.8625 47.9025 14.0076 48.7438 14.0076C50.2484 14.0076 51.0016 13.5555 51.0016 12.653C51.0016 12.2452 50.8392 11.932 50.5144 11.7137C50.1897 11.4953 49.6067 11.3136 48.767 11.1669L47.4618 10.9485C44.9689 10.5407 43.7225 9.40447 43.7225 7.53969C43.7225 6.47673 44.1354 5.64132 44.9612 5.03805C45.787 4.43326 46.953 4.13086 48.4577 4.13086C51.7176 4.13086 53.4001 5.40612 53.5038 7.9551H50.8701C50.8408 7.28464 50.6274 6.80814 50.2284 6.52407C49.8294 6.24 49.2402 6.09797 48.4577 6.09797C47.1309 6.09797 46.4658 6.53476 46.4658 7.40987C46.4658 7.78863 46.6128 8.08339 46.9081 8.29415C47.2036 8.50492 47.6891 8.66986 48.3681 8.78593L49.8063 9.00433C51.1934 9.25174 52.2001 9.64577 52.8264 10.1849C53.4527 10.724 53.7666 11.4739 53.7666 12.436C53.7666 13.5723 53.3244 14.446 52.4383 15.0584C51.5537 15.6708 50.3072 15.9762 48.6989 15.9762C45.3648 15.9747 43.6235 14.6781 43.4766 12.0847ZM73.9054 8.21682C73.9054 6.9492 73.5543 5.9519 72.8538 5.2234C72.1532 4.4949 71.1758 4.12988 69.9201 4.12988C68.4155 4.12988 67.2356 4.82937 66.3803 6.22833C65.7602 4.82937 64.5803 4.12988 62.839 4.12988C61.4534 4.12988 60.3678 4.75759 59.5868 6.00993V4.39257H56.8867V15.6698H59.675V9.46306C59.675 8.50089 59.8914 7.76933 60.3275 7.26687C60.7637 6.7644 61.3281 6.51241 62.0209 6.51241C63.3494 6.51241 64.0127 7.22563 64.0127 8.65362V15.6698H66.7794V9.46306C66.7794 8.50089 66.9974 7.76933 67.4319 7.26687C67.8681 6.7644 68.4387 6.51241 69.147 6.51241C70.4598 6.51241 71.1171 7.22563 71.1171 8.65362V15.6683H73.9054V8.21682ZM95.2652 6.49148H91.6975V12.5883C91.6975 12.9533 91.7965 13.2083 91.996 13.3534C92.1955 13.4986 92.5311 13.5718 93.0028 13.5718H95.0394V15.6703C94.4348 15.7283 92.862 15.7573 92.4939 15.7573C91.2552 15.7573 90.3521 15.5282 89.783 15.0685C89.2155 14.6088 88.931 13.8773 88.931 12.8723V6.49148H86.3438V4.39303H88.9325V0.629883H91.6991V4.39456H95.2668V6.49148H95.2652ZM108.809 8.19547C108.809 6.89731 108.453 5.89695 107.736 5.18983C107.021 4.48424 106.043 4.12993 104.804 4.12993C103.36 4.12993 102.202 4.71944 101.331 5.90001V0.62793H98.543V15.6683H101.331V9.35314C101.331 8.46427 101.579 7.76937 102.072 7.2669C102.565 6.76291 103.167 6.51244 103.875 6.51244C105.306 6.51244 106.022 7.22567 106.022 8.65365V15.6699H108.809V8.19547ZM121.949 17.2852H111.062V19.3836H121.949V17.2852ZM82.3876 4.39258V13.5713H85.4634V15.6698H76.5234V13.5713H79.5993V6.49102H76.5234V4.39258H82.3876Z" fill="url(#paint0_linear_21538_42)"/>
</g>
<defs>
<linearGradient id="paint0_linear_21538_42" x1="61.8047" y1="0.01431" x2="61.8047" y2="25.1902" gradientUnits="userSpaceOnUse">
<stop stop-color="#E4E5E7"/>
<stop offset="1" stop-color="#E4E5E7" stop-opacity="0.7"/>
</linearGradient>
<clipPath id="clip0_21538_42">
<rect width="121" height="20" fill="white" transform="translate(0.996094)"/>
</clipPath>
</defs>
</svg>
