<svg width="137" height="20" viewBox="0 0 137 20" fill="none" xmlns="http://www.w3.org/2000/svg">
<g clip-path="url(#clip0_21538_31)">
<path fill-rule="evenodd" clip-rule="evenodd" d="M30.3153 18.9353L30.091 19.7187V19.7133C30.0689 19.7924 30.0217 19.8623 29.9563 19.9125C29.891 19.9628 29.811 19.9907 29.7283 19.992H0.378093C0.302831 19.9921 0.230117 19.9649 0.173606 19.9156C0.117095 19.8662 0.0806758 19.7981 0.0711863 19.724C0.0235049 19.408 0 19.084 0 18.7553C0 15.1193 2.88774 12.1607 6.48735 12.054C6.35069 11.5158 6.30978 10.9581 6.36647 10.406C6.5854 8.19533 8.35834 6.414 10.5611 6.194C11.7378 6.07142 12.9174 6.39902 13.8592 7.11C15.258 2.97467 19.1565 0 23.7514 0C28.7358 0 32.9048 3.506 33.9471 8.18733C33.9668 8.29382 33.9575 8.40359 33.9203 8.50533L33.0056 10.9053C32.2836 12.7947 30.226 14.3447 28.3214 14.432L12.2803 14.636C12.1975 14.6427 12.1184 14.6731 12.0526 14.7235C11.9868 14.7739 11.9371 14.8422 11.9096 14.92C11.8926 14.9676 11.8869 15.0185 11.8929 15.0687C11.899 15.1189 11.9166 15.167 11.9445 15.2093C11.9729 15.2495 12.0104 15.2825 12.0541 15.3056C12.0977 15.3286 12.1462 15.3411 12.1957 15.342L28.0884 15.546C28.9271 15.586 29.6168 15.9287 30.0332 16.5127C30.4852 17.144 30.5852 18.004 30.3153 18.9353ZM35.384 8.68555C35.2525 8.68555 35.1226 8.68977 34.9929 8.69399L34.9447 8.69555C34.9211 8.69681 34.8979 8.70223 34.8762 8.71155C34.8377 8.72458 34.803 8.74694 34.7753 8.77663C34.7476 8.80631 34.7279 8.84237 34.7178 8.88155L34.0932 11.0475C33.8239 11.9789 33.924 12.8389 34.3766 13.4702C34.7916 14.0542 35.482 14.3969 36.3201 14.4369L39.7082 14.6409C39.8089 14.6462 39.8962 14.6942 39.9493 14.7735C39.9771 14.8159 39.9946 14.864 40.0005 14.9142C40.0065 14.9644 40.0007 15.0153 39.9835 15.0629C39.9562 15.1402 39.9071 15.2082 39.8419 15.2585C39.7768 15.3089 39.6984 15.3396 39.6162 15.3469L36.0958 15.5509C34.1832 15.6389 32.1255 17.1882 31.4036 19.0775L31.1497 19.7442C31.1388 19.7719 31.1347 19.8017 31.1377 19.8312C31.1407 19.8608 31.1508 19.8891 31.167 19.914C31.1833 19.9389 31.2054 19.9596 31.2313 19.9744C31.2573 19.9891 31.2864 19.9975 31.3163 19.9989H43.4408C43.5113 19.9992 43.5799 19.9765 43.6362 19.9344C43.6925 19.8922 43.7333 19.8329 43.7524 19.7655C43.9677 18.9972 44.0762 18.2031 44.0747 17.4055C44.0747 12.5922 40.187 8.69088 35.3893 8.69088L35.384 8.68555ZM57.4328 12.5903H59.4408V18.0897H62.945V19.8543H57.4328V12.5903ZM65.0215 16.243V16.2217C65.0215 14.135 66.6958 12.445 68.9307 12.445C71.165 12.445 72.8185 14.117 72.8185 16.2003V16.2217C72.8185 18.3077 71.1442 19.9983 68.9092 19.9983C66.6743 19.9983 65.0215 18.3283 65.0215 16.243ZM70.7715 16.243V16.2217C70.7715 15.173 70.0173 14.2603 68.9092 14.2603C67.8012 14.2603 67.0792 15.1517 67.0792 16.2003V16.2217C67.0792 17.2697 67.8327 18.183 68.9307 18.183C70.0281 18.183 70.7715 17.291 70.7715 16.243ZM75.2744 16.6683V12.593H77.3112V16.6297C77.3112 17.6777 77.8371 18.1743 78.6443 18.1743C79.4509 18.1743 79.9774 17.6963 79.9774 16.6797V12.5903H82.0136V16.6163C82.0136 18.9623 80.6805 19.987 78.6228 19.987C76.5651 19.987 75.2717 18.9383 75.2717 16.667L75.2744 16.6683ZM85.0847 12.5923H87.8777C90.4619 12.5923 91.9615 14.0863 91.9615 16.1803V16.2017C91.9615 18.295 90.4404 19.853 87.8354 19.853H85.0847V12.5923ZM87.9066 18.0697C89.1073 18.0697 89.9011 17.4063 89.9011 16.2337V16.2123C89.9011 15.0497 89.1053 14.3757 87.9066 14.3757H87.0893V18.0697H87.9066ZM94.8781 12.5903H100.668V14.3557H96.8828V15.589H100.305V17.259H96.8828V19.8543H94.8781V12.5903ZM103.459 12.5903H105.466V18.0897H108.971V19.8543H103.459V12.5903ZM114.213 12.539H116.145L119.227 19.853H117.077L116.548 18.5557H113.755L113.239 19.853H111.128L114.21 12.539H114.213ZM115.971 16.9897L115.164 14.925L114.347 16.9897H115.971ZM121.812 12.5923H125.234C126.34 12.5923 127.107 12.8843 127.591 13.3803C128.017 13.7943 128.232 14.357 128.232 15.071V15.0923C128.232 16.2017 127.641 16.939 126.742 17.3217L128.469 19.853H126.152L124.695 17.653H123.817V19.853H121.809V12.5903L121.812 12.5923ZM125.142 16.079C125.825 16.079 126.218 15.7477 126.218 15.219V15.1983C126.218 14.6277 125.806 14.3383 125.132 14.3383H123.819V16.0823H125.144L125.142 16.0797V16.079ZM131.127 12.5903H136.949V14.3023H133.113V15.401H136.589V16.9903H133.113V18.1423H137.002V19.8543H131.127V12.5903ZM53.0387 17.0943C52.758 17.7317 52.1657 18.183 51.38 18.183C50.2853 18.183 49.5291 17.2697 49.5291 16.2217V16.1997C49.5291 15.151 50.2638 14.2597 51.3591 14.2597C52.1845 14.2597 52.8138 14.769 53.0811 15.4643H55.1945C54.8553 13.737 53.343 12.4443 51.3779 12.4443C49.1457 12.4443 47.4688 14.135 47.4688 16.221V16.2423C47.4688 18.3283 49.1215 19.9977 51.3571 19.9977C53.2664 19.9977 54.7606 18.755 55.1549 17.091H53.0361L53.0387 17.0943Z" fill="url(#paint0_linear_21538_31)"/>
</g>
<defs>
<linearGradient id="paint0_linear_21538_31" x1="68.8768" y1="0.0123861" x2="68.8768" y2="25.2476" gradientUnits="userSpaceOnUse">
<stop stop-color="#E4E5E7"/>
<stop offset="1" stop-color="#E4E5E7" stop-opacity="0.7"/>
</linearGradient>
<clipPath id="clip0_21538_31">
<rect width="137" height="20" fill="white"/>
</clipPath>
</defs>
</svg>
