<svg width="137" height="32" viewBox="0 0 137 32" fill="none" xmlns="http://www.w3.org/2000/svg">
<g clip-path="url(#clip0_21538_31)">
<path fill-rule="evenodd" clip-rule="evenodd" d="M30.3153 24.9353L30.091 25.7187V25.7133C30.0689 25.7924 30.0217 25.8623 29.9563 25.9125C29.891 25.9628 29.811 25.9907 29.7283 25.992H0.378093C0.302831 25.9921 0.230117 25.9649 0.173606 25.9156C0.117095 25.8662 0.0806758 25.7981 0.0711863 25.724C0.0235049 25.408 0 25.084 0 24.7553C0 21.1193 2.88774 18.1607 6.48735 18.054C6.35069 17.5158 6.30978 16.9581 6.36647 16.406C6.5854 14.1953 8.35834 12.414 10.5611 12.194C11.7378 12.0714 12.9174 12.399 13.8592 13.11C15.258 8.97467 19.1565 6 23.7514 6C28.7358 6 32.9048 9.506 33.9471 14.1873C33.9668 14.2938 33.9575 14.4036 33.9203 14.5053L33.0056 16.9053C32.2836 18.7947 30.226 20.3447 28.3214 20.432L12.2803 20.636C12.1975 20.6427 12.1184 20.6731 12.0526 20.7235C11.9868 20.7739 11.9371 20.8422 11.9096 20.92C11.8926 20.9676 11.8869 21.0185 11.8929 21.0687C11.899 21.1189 11.9166 21.167 11.9445 21.2093C11.9729 21.2495 12.0104 21.2825 12.0541 21.3056C12.0977 21.3286 12.1462 21.3411 12.1957 21.342L28.0884 21.546C28.9271 21.586 29.6168 21.9287 30.0332 22.5127C30.4852 23.144 30.5852 24.004 30.3153 24.9353ZM35.384 14.6855C35.2525 14.6855 35.1226 14.6898 34.9929 14.694L34.9447 14.6955C34.9211 14.6968 34.8979 14.7022 34.8762 14.7115C34.8377 14.7246 34.803 14.7469 34.7753 14.7766C34.7476 14.8063 34.7279 14.8424 34.7178 14.8815L34.0932 17.0475C33.8239 17.9789 33.924 18.8389 34.3766 19.4702C34.7916 20.0542 35.482 20.3969 36.3201 20.4369L39.7082 20.6409C39.8089 20.6462 39.8962 20.6942 39.9493 20.7735C39.9771 20.8159 39.9946 20.864 40.0005 20.9142C40.0065 20.9644 40.0007 21.0153 39.9835 21.0629C39.9562 21.1402 39.9071 21.2082 39.8419 21.2585C39.7768 21.3089 39.6984 21.3396 39.6162 21.3469L36.0958 21.5509C34.1832 21.6389 32.1255 23.1882 31.4036 25.0775L31.1497 25.7442C31.1388 25.7719 31.1347 25.8017 31.1377 25.8312C31.1407 25.8608 31.1508 25.8891 31.167 25.914C31.1833 25.9389 31.2054 25.9596 31.2313 25.9744C31.2573 25.9891 31.2864 25.9975 31.3163 25.9989H43.4408C43.5113 25.9992 43.5799 25.9765 43.6362 25.9344C43.6925 25.8922 43.7333 25.8329 43.7524 25.7655C43.9677 24.9972 44.0762 24.2031 44.0747 23.4055C44.0747 18.5922 40.187 14.6909 35.3893 14.6909L35.384 14.6855ZM57.4328 18.5903H59.4408V24.0897H62.945V25.8543H57.4328V18.5903ZM65.0215 22.243V22.2217C65.0215 20.135 66.6958 18.445 68.9307 18.445C71.165 18.445 72.8185 20.117 72.8185 22.2003V22.2217C72.8185 24.3077 71.1442 25.9983 68.9092 25.9983C66.6743 25.9983 65.0215 24.3283 65.0215 22.243ZM70.7715 22.243V22.2217C70.7715 21.173 70.0173 20.2603 68.9092 20.2603C67.8012 20.2603 67.0792 21.1517 67.0792 22.2003V22.2217C67.0792 23.2697 67.8327 24.183 68.9307 24.183C70.0281 24.183 70.7715 23.291 70.7715 22.243ZM75.2744 22.6683V18.593H77.3112V22.6297C77.3112 23.6777 77.8371 24.1743 78.6443 24.1743C79.4509 24.1743 79.9774 23.6963 79.9774 22.6797V18.5903H82.0136V22.6163C82.0136 24.9623 80.6805 25.987 78.6228 25.987C76.5651 25.987 75.2717 24.9383 75.2717 22.667L75.2744 22.6683ZM85.0847 18.5923H87.8777C90.4619 18.5923 91.9615 20.0863 91.9615 22.1803V22.2017C91.9615 24.295 90.4404 25.853 87.8354 25.853H85.0847V18.5923ZM87.9066 24.0697C89.1073 24.0697 89.9011 23.4063 89.9011 22.2337V22.2123C89.9011 21.0497 89.1053 20.3757 87.9066 20.3757H87.0893V24.0697H87.9066ZM94.8781 18.5903H100.668V20.3557H96.8828V21.589H100.305V23.259H96.8828V25.8543H94.8781V18.5903ZM103.459 18.5903H105.466V24.0897H108.971V25.8543H103.459V18.5903ZM114.213 18.539H116.145L119.227 25.853H117.077L116.548 24.5557H113.755L113.239 25.853H111.128L114.21 18.539H114.213ZM115.971 22.9897L115.164 20.925L114.347 22.9897H115.971ZM121.812 18.5923H125.234C126.34 18.5923 127.107 18.8843 127.591 19.3803C128.017 19.7943 128.232 20.357 128.232 21.071V21.0923C128.232 22.2017 127.641 22.939 126.742 23.3217L128.469 25.853H126.152L124.695 23.653H123.817V25.853H121.809V18.5903L121.812 18.5923ZM125.142 22.079C125.825 22.079 126.218 21.7477 126.218 21.219V21.1983C126.218 20.6277 125.806 20.3383 125.132 20.3383H123.819V22.0823H125.144L125.142 22.0797V22.079ZM131.127 18.5903H136.949V20.3023H133.113V21.401H136.589V22.9903H133.113V24.1423H137.002V25.8543H131.127V18.5903ZM53.0387 23.0943C52.758 23.7317 52.1657 24.183 51.38 24.183C50.2853 24.183 49.5291 23.2697 49.5291 22.2217V22.1997C49.5291 21.151 50.2638 20.2597 51.3591 20.2597C52.1845 20.2597 52.8138 20.769 53.0811 21.4643H55.1945C54.8553 19.737 53.343 18.4443 51.3779 18.4443C49.1457 18.4443 47.4688 20.135 47.4688 22.221V22.2423C47.4688 24.3283 49.1215 25.9977 51.3571 25.9977C53.2664 25.9977 54.7606 24.755 55.1549 23.091H53.0361L53.0387 23.0943Z" fill="url(#paint0_linear_21538_31)"/>
</g>
<defs>
<linearGradient id="paint0_linear_21538_31" x1="68.8768" y1="6.01239" x2="68.8768" y2="31.2476" gradientUnits="userSpaceOnUse">
<stop stop-color="#E4E5E7"/>
<stop offset="1" stop-color="#E4E5E7" stop-opacity="0.7"/>
</linearGradient>
<clipPath id="clip0_21538_31">
<rect width="137" height="32" fill="white"/>
</clipPath>
</defs>
</svg>
