<svg width="130" height="32" viewBox="0 0 130 32" fill="none" xmlns="http://www.w3.org/2000/svg">
<path d="M52.3374 23.1451C55.6436 23.1451 57.6453 21.0137 57.6453 17.6034C57.6453 14.1706 55.4861 12.1289 52.3374 12.1289C49.1437 12.1289 46.9846 14.1706 46.9846 17.6034C46.9846 21.0137 48.9863 23.1451 52.3374 23.1451ZM52.315 13.9239C54.4291 13.9239 55.6885 15.3374 55.6885 17.581C55.6885 19.847 54.4741 21.3503 52.315 21.3503C50.1333 21.3503 48.9413 19.847 48.9413 17.581C48.9413 15.3374 50.2233 13.9239 52.315 13.9239Z" fill="url(#paint0_linear_22325_66)"/>
<path d="M60.5817 16.6611C60.5817 14.911 61.6613 13.9014 63.4605 13.9014C65.3723 13.9014 65.9795 15.2252 65.9795 16.6611V22.8759H67.9362V16.1675C67.9362 13.9239 66.9916 12.1289 64.2702 12.1289C62.4259 12.1289 61.054 13.0937 60.6042 15.2252H60.5817V9.12255H58.625V22.8759H60.5817V16.6611Z" fill="url(#paint1_linear_22325_66)"/>
<path d="M74.186 13.8116C76.1202 13.8116 77.0873 14.8662 77.2223 16.7284H70.9248C71.1948 14.7764 72.3867 13.8116 74.186 13.8116ZM74.276 23.1227C76.9524 23.1227 78.4593 21.799 78.9991 19.7348L77.0838 19.7377C76.6674 20.7129 75.8906 21.4175 74.276 21.4175C72.2743 21.4175 71.0822 20.2958 70.8799 18.2541H79.0215C79.0665 17.7604 79.0665 17.3342 79.0665 16.9976C79.0665 14.1257 77.3797 12.1289 74.2535 12.1289C71.0598 12.1289 68.9231 14.2155 68.9231 17.7156C68.9231 21.1483 71.0373 23.1227 74.276 23.1227Z" fill="url(#paint2_linear_22325_66)"/>
<path d="M82.2493 22.8759V17.3342C82.2493 15.3149 83.1265 14.5521 85.1053 14.5521H86.0499V12.3982H85.3982C83.7112 12.3982 82.7216 13.1834 82.2943 15.629H82.2493V12.3982H80.2926V22.8759H82.2493Z" fill="url(#paint3_linear_22325_66)"/>
<path d="M91.601 13.8116C93.535 13.8116 94.5024 14.8662 94.6375 16.7284H88.3392C88.6094 14.7764 89.8013 13.8116 91.601 13.8116ZM91.6905 23.1227C94.3673 23.1227 95.8742 21.799 96.4136 19.7348H94.4999C94.0837 20.7115 93.3071 21.4175 91.6905 21.4175C89.689 21.4175 88.4971 20.2958 88.2945 18.2541H96.4364C96.4811 17.7604 96.4811 17.3342 96.4811 16.9976C96.4811 14.1257 94.7945 12.1289 91.6686 12.1289C88.4743 12.1289 86.3377 14.2155 86.3377 17.7156C86.3377 21.1483 88.4523 23.1227 91.6905 23.1227Z" fill="url(#paint4_linear_22325_66)"/>
<path d="M99.493 16.6611C99.493 14.911 100.573 13.9014 102.372 13.9014C104.284 13.9014 104.891 15.2252 104.891 16.6611V22.8759H106.848V16.1675C106.848 13.9239 105.904 12.1289 103.182 12.1289C101.338 12.1289 99.9658 13.0937 99.5158 15.2252H99.493V12.3982H97.5363V22.8759H99.493V16.6611Z" fill="url(#paint5_linear_22325_66)"/>
<path d="M116.277 16.2797H118.254C117.782 13.6546 116.298 12.1289 113.238 12.1289C110.113 12.1289 107.863 14.1706 107.863 17.6259C107.863 21.1483 110.022 23.1451 113.306 23.1451C116.275 23.1451 117.804 21.5522 118.276 18.9047H116.305C115.886 20.309 115.164 21.3503 113.283 21.3503C111.192 21.3503 109.865 19.9817 109.865 17.6483C109.865 15.1578 111.237 13.9239 113.216 13.9239C114.933 13.9239 115.85 14.8176 116.277 16.2797Z" fill="url(#paint6_linear_22325_66)"/>
<path d="M124.395 13.8116C126.33 13.8116 127.296 14.8662 127.431 16.7284H121.134C121.404 14.7764 122.596 13.8116 124.395 13.8116ZM124.485 23.1227C127.161 23.1227 128.668 21.799 129.208 19.7348H127.294C126.878 20.7115 126.101 21.4175 124.485 21.4175C122.484 21.4175 121.292 20.2958 121.089 18.2541H129.231C129.276 17.7604 129.276 17.3342 129.276 16.9976C129.276 14.1257 127.589 12.1289 124.462 12.1289C121.269 12.1289 119.132 14.2155 119.132 17.7156C119.132 21.1483 121.246 23.1227 124.485 23.1227Z" fill="url(#paint7_linear_22325_66)"/>
<path d="M35.0097 16.1908C35.0097 19.1872 36.6583 21.3725 39.6845 21.3725C42.0489 21.3725 43.48 19.9474 44.0127 17.7254H46.0798C45.5372 20.9609 43.1559 23.2424 39.6845 23.2424C35.5517 23.2424 32.932 20.2686 32.932 16.1908C32.932 12.1131 35.6194 9.18436 39.7071 9.18436C43.1836 9.18436 45.5024 11.3444 46.0788 14.5599H43.9827C43.4414 12.433 41.9954 11.0768 39.6619 11.0768C36.6809 11.0768 35.0097 13.3071 35.0097 16.1908Z" fill="url(#paint8_linear_22325_66)"/>
<path d="M25.221 11.8376H5.69393V11.9832H25.221V11.8376Z" fill="url(#paint9_linear_22325_66)"/>
<path d="M17.4833 6.59455H14.1619V6.74019H17.4833V6.59455Z" fill="url(#paint10_linear_22325_66)"/>
<path d="M4.37989 13.8949V17.2083H4.52588V13.8949H4.37989Z" fill="url(#paint11_linear_22325_66)"/>
<path d="M23.9435 15.9156V19.229H24.0895V15.9156H23.9435Z" fill="url(#paint12_linear_22325_66)"/>
<path d="M14.8919 26.1106H11.5704V26.2562H14.8919V26.1106Z" fill="url(#paint13_linear_22325_66)"/>
<path d="M9.6357 5.10166V26.4019H9.7817V5.10166H9.6357Z" fill="url(#paint14_linear_22325_66)"/>
<path d="M14.1619 6.59455V26.2561H14.3079V6.59438L14.1619 6.59455Z" fill="url(#paint15_linear_22325_66)"/>
<path d="M23.2136 20.8674H3.24843V21.013H23.2136V20.8674Z" fill="url(#paint16_linear_22325_66)"/>
<path d="M24.0895 16.3525H4.37989V16.4982H24.0895V16.3525Z" fill="url(#paint17_linear_22325_66)"/>
<path d="M18.6877 8.12373V26.4019H18.8337V8.12373H18.6877Z" fill="url(#paint18_linear_22325_66)"/>
<path fill-rule="evenodd" clip-rule="evenodd" d="M18.6868 21.7413H18.8346C19.2099 23.9735 20.976 25.7353 23.2136 26.1097V26.2571C20.976 26.6316 19.2099 28.3934 18.8346 30.6255H18.6868C18.3114 28.3934 16.5454 26.6316 14.3078 26.2571V26.1097C16.5454 25.7353 18.3114 23.9735 18.6868 21.7413Z" fill="url(#paint19_linear_22325_66)"/>
<path fill-rule="evenodd" clip-rule="evenodd" d="M4.37903 16.4981H4.52679C4.90219 18.7303 6.66823 20.4921 8.90584 20.8665V21.0139C6.66823 21.3884 4.90219 23.1502 4.52679 25.3823H4.37903C4.00363 23.1502 2.2376 21.3884 0 21.0139V20.8665C2.2376 20.4921 4.00363 18.7303 4.37903 16.4981Z" fill="url(#paint20_linear_22325_66)"/>
<path fill-rule="evenodd" clip-rule="evenodd" d="M23.9426 7.46831H24.0904C24.4657 9.70048 26.2318 11.4623 28.4694 11.8367V11.9841C26.2318 12.3586 24.4657 14.1204 24.0904 16.3525H23.9426C23.5672 14.1204 21.8012 12.3586 19.5636 11.9841V11.8367C21.8012 11.4623 23.5672 9.70048 23.9426 7.46831Z" fill="url(#paint21_linear_22325_66)"/>
<path fill-rule="evenodd" clip-rule="evenodd" d="M9.63477 2.2251H9.78258C10.158 4.45725 11.924 6.21901 14.1616 6.59349L14.1619 6.74019C11.9244 7.11467 10.158 8.87716 9.78258 11.1093H9.63477C9.25938 8.87716 7.49337 7.11537 5.25577 6.74089V6.59349C7.49337 6.21901 9.25938 4.45725 9.63477 2.2251Z" fill="url(#paint22_linear_22325_66)"/>
<path fill-rule="evenodd" clip-rule="evenodd" d="M18.7149 3.92514H18.8061C19.0378 5.30301 20.128 6.39051 21.5092 6.62168V6.71266C20.128 6.94383 19.0378 8.03133 18.8061 9.4092H18.7149C18.4831 8.03133 17.393 6.94383 16.0118 6.71266V6.62168C17.393 6.39051 18.4831 5.30301 18.7149 3.92514Z" fill="url(#paint23_linear_22325_66)"/>
<path fill-rule="evenodd" clip-rule="evenodd" d="M4.40708 9.16836H4.4983C4.73002 10.5462 5.82017 11.6337 7.20139 11.8649V11.9559C5.82017 12.1871 4.73002 13.2745 4.4983 14.6524H4.40708C4.17535 13.2745 3.0852 12.1871 1.70397 11.9559V11.8649C3.0852 11.6337 4.17535 10.5462 4.40708 9.16836Z" fill="url(#paint24_linear_22325_66)"/>
<path fill-rule="evenodd" clip-rule="evenodd" d="M23.9711 18.1982H24.0622C24.294 19.576 25.3841 20.6635 26.7654 20.8947V20.9857C25.3841 21.2169 24.294 22.3044 24.0622 23.6822H23.9711C23.7394 22.3044 22.6492 21.2169 21.2679 20.9857V20.8947C22.6492 20.6635 23.7394 19.576 23.9711 18.1982Z" fill="url(#paint25_linear_22325_66)"/>
<path fill-rule="evenodd" clip-rule="evenodd" d="M9.66331 23.4414H9.75447C9.98619 24.8192 11.0763 25.9067 12.4575 26.138V26.2289C11.0763 26.4601 9.98619 27.5476 9.75447 28.9254H9.66331C9.4315 27.5476 8.34139 26.4601 6.96017 26.2289V26.138C8.34139 25.9067 9.4315 24.8192 9.66331 23.4414Z" fill="url(#paint26_linear_22325_66)"/>
<defs>
<linearGradient id="paint0_linear_22325_66" x1="64.9926" y1="2.24269" x2="64.9926" y2="38.0793" gradientUnits="userSpaceOnUse">
<stop stop-color="#E4E5E7"/>
<stop offset="1" stop-color="#E4E5E7" stop-opacity="0.7"/>
</linearGradient>
<linearGradient id="paint1_linear_22325_66" x1="64.9926" y1="2.24269" x2="64.9926" y2="38.0793" gradientUnits="userSpaceOnUse">
<stop stop-color="#E4E5E7"/>
<stop offset="1" stop-color="#E4E5E7" stop-opacity="0.7"/>
</linearGradient>
<linearGradient id="paint2_linear_22325_66" x1="64.9926" y1="2.24269" x2="64.9926" y2="38.0793" gradientUnits="userSpaceOnUse">
<stop stop-color="#E4E5E7"/>
<stop offset="1" stop-color="#E4E5E7" stop-opacity="0.7"/>
</linearGradient>
<linearGradient id="paint3_linear_22325_66" x1="64.9926" y1="2.24269" x2="64.9926" y2="38.0793" gradientUnits="userSpaceOnUse">
<stop stop-color="#E4E5E7"/>
<stop offset="1" stop-color="#E4E5E7" stop-opacity="0.7"/>
</linearGradient>
<linearGradient id="paint4_linear_22325_66" x1="64.9926" y1="2.24269" x2="64.9926" y2="38.0793" gradientUnits="userSpaceOnUse">
<stop stop-color="#E4E5E7"/>
<stop offset="1" stop-color="#E4E5E7" stop-opacity="0.7"/>
</linearGradient>
<linearGradient id="paint5_linear_22325_66" x1="64.9926" y1="2.24269" x2="64.9926" y2="38.0793" gradientUnits="userSpaceOnUse">
<stop stop-color="#E4E5E7"/>
<stop offset="1" stop-color="#E4E5E7" stop-opacity="0.7"/>
</linearGradient>
<linearGradient id="paint6_linear_22325_66" x1="64.9926" y1="2.24269" x2="64.9926" y2="38.0793" gradientUnits="userSpaceOnUse">
<stop stop-color="#E4E5E7"/>
<stop offset="1" stop-color="#E4E5E7" stop-opacity="0.7"/>
</linearGradient>
<linearGradient id="paint7_linear_22325_66" x1="64.9926" y1="2.24269" x2="64.9926" y2="38.0793" gradientUnits="userSpaceOnUse">
<stop stop-color="#E4E5E7"/>
<stop offset="1" stop-color="#E4E5E7" stop-opacity="0.7"/>
</linearGradient>
<linearGradient id="paint8_linear_22325_66" x1="64.9926" y1="2.24269" x2="64.9926" y2="38.0793" gradientUnits="userSpaceOnUse">
<stop stop-color="#E4E5E7"/>
<stop offset="1" stop-color="#E4E5E7" stop-opacity="0.7"/>
</linearGradient>
<linearGradient id="paint9_linear_22325_66" x1="64.9926" y1="2.24269" x2="64.9926" y2="38.0793" gradientUnits="userSpaceOnUse">
<stop stop-color="#E4E5E7"/>
<stop offset="1" stop-color="#E4E5E7" stop-opacity="0.7"/>
</linearGradient>
<linearGradient id="paint10_linear_22325_66" x1="64.9926" y1="2.24269" x2="64.9926" y2="38.0793" gradientUnits="userSpaceOnUse">
<stop stop-color="#E4E5E7"/>
<stop offset="1" stop-color="#E4E5E7" stop-opacity="0.7"/>
</linearGradient>
<linearGradient id="paint11_linear_22325_66" x1="64.9926" y1="2.24269" x2="64.9926" y2="38.0793" gradientUnits="userSpaceOnUse">
<stop stop-color="#E4E5E7"/>
<stop offset="1" stop-color="#E4E5E7" stop-opacity="0.7"/>
</linearGradient>
<linearGradient id="paint12_linear_22325_66" x1="64.9926" y1="2.24269" x2="64.9926" y2="38.0793" gradientUnits="userSpaceOnUse">
<stop stop-color="#E4E5E7"/>
<stop offset="1" stop-color="#E4E5E7" stop-opacity="0.7"/>
</linearGradient>
<linearGradient id="paint13_linear_22325_66" x1="64.9926" y1="2.24269" x2="64.9926" y2="38.0793" gradientUnits="userSpaceOnUse">
<stop stop-color="#E4E5E7"/>
<stop offset="1" stop-color="#E4E5E7" stop-opacity="0.7"/>
</linearGradient>
<linearGradient id="paint14_linear_22325_66" x1="64.9926" y1="2.24269" x2="64.9926" y2="38.0793" gradientUnits="userSpaceOnUse">
<stop stop-color="#E4E5E7"/>
<stop offset="1" stop-color="#E4E5E7" stop-opacity="0.7"/>
</linearGradient>
<linearGradient id="paint15_linear_22325_66" x1="64.9926" y1="2.24269" x2="64.9926" y2="38.0793" gradientUnits="userSpaceOnUse">
<stop stop-color="#E4E5E7"/>
<stop offset="1" stop-color="#E4E5E7" stop-opacity="0.7"/>
</linearGradient>
<linearGradient id="paint16_linear_22325_66" x1="64.9926" y1="2.24269" x2="64.9926" y2="38.0793" gradientUnits="userSpaceOnUse">
<stop stop-color="#E4E5E7"/>
<stop offset="1" stop-color="#E4E5E7" stop-opacity="0.7"/>
</linearGradient>
<linearGradient id="paint17_linear_22325_66" x1="64.9926" y1="2.24269" x2="64.9926" y2="38.0793" gradientUnits="userSpaceOnUse">
<stop stop-color="#E4E5E7"/>
<stop offset="1" stop-color="#E4E5E7" stop-opacity="0.7"/>
</linearGradient>
<linearGradient id="paint18_linear_22325_66" x1="64.9926" y1="2.24269" x2="64.9926" y2="38.0793" gradientUnits="userSpaceOnUse">
<stop stop-color="#E4E5E7"/>
<stop offset="1" stop-color="#E4E5E7" stop-opacity="0.7"/>
</linearGradient>
<linearGradient id="paint19_linear_22325_66" x1="64.9926" y1="2.24269" x2="64.9926" y2="38.0793" gradientUnits="userSpaceOnUse">
<stop stop-color="#E4E5E7"/>
<stop offset="1" stop-color="#E4E5E7" stop-opacity="0.7"/>
</linearGradient>
<linearGradient id="paint20_linear_22325_66" x1="64.9926" y1="2.24269" x2="64.9926" y2="38.0793" gradientUnits="userSpaceOnUse">
<stop stop-color="#E4E5E7"/>
<stop offset="1" stop-color="#E4E5E7" stop-opacity="0.7"/>
</linearGradient>
<linearGradient id="paint21_linear_22325_66" x1="64.9926" y1="2.24269" x2="64.9926" y2="38.0793" gradientUnits="userSpaceOnUse">
<stop stop-color="#E4E5E7"/>
<stop offset="1" stop-color="#E4E5E7" stop-opacity="0.7"/>
</linearGradient>
<linearGradient id="paint22_linear_22325_66" x1="64.9926" y1="2.24269" x2="64.9926" y2="38.0793" gradientUnits="userSpaceOnUse">
<stop stop-color="#E4E5E7"/>
<stop offset="1" stop-color="#E4E5E7" stop-opacity="0.7"/>
</linearGradient>
<linearGradient id="paint23_linear_22325_66" x1="64.9926" y1="2.24269" x2="64.9926" y2="38.0793" gradientUnits="userSpaceOnUse">
<stop stop-color="#E4E5E7"/>
<stop offset="1" stop-color="#E4E5E7" stop-opacity="0.7"/>
</linearGradient>
<linearGradient id="paint24_linear_22325_66" x1="64.9926" y1="2.24269" x2="64.9926" y2="38.0793" gradientUnits="userSpaceOnUse">
<stop stop-color="#E4E5E7"/>
<stop offset="1" stop-color="#E4E5E7" stop-opacity="0.7"/>
</linearGradient>
<linearGradient id="paint25_linear_22325_66" x1="64.9926" y1="2.24269" x2="64.9926" y2="38.0793" gradientUnits="userSpaceOnUse">
<stop stop-color="#E4E5E7"/>
<stop offset="1" stop-color="#E4E5E7" stop-opacity="0.7"/>
</linearGradient>
<linearGradient id="paint26_linear_22325_66" x1="64.9926" y1="2.24269" x2="64.9926" y2="38.0793" gradientUnits="userSpaceOnUse">
<stop stop-color="#E4E5E7"/>
<stop offset="1" stop-color="#E4E5E7" stop-opacity="0.7"/>
</linearGradient>
</defs>
</svg>
