<svg width="160" height="18" viewBox="0 0 160 18" fill="none" xmlns="http://www.w3.org/2000/svg">
<path fill-rule="evenodd" clip-rule="evenodd" d="M41.8711 17.7704V17.6293V2.44252V2.30142H42.0106H47.0239C48.5136 2.30142 49.8015 2.60943 50.8819 3.23176C51.9623 3.84913 52.7901 4.73785 53.364 5.89411L53.364 5.89411C53.9427 7.04522 54.2291 8.42009 54.2291 10.0137C54.2291 11.6124 53.9402 12.9947 53.3565 14.1557L53.3565 14.1557C52.7775 15.3171 51.9374 16.2131 50.8378 16.8401L50.8374 16.8404C49.7372 17.4627 48.4128 17.7704 46.87 17.7704H42.0106H41.8711ZM51.1703 7.03953L51.17 7.03891C50.8099 6.23363 50.2746 5.62654 49.5636 5.21206C48.8522 4.79736 47.9616 4.58577 46.8847 4.58577H44.4148V15.486H46.7454C47.8718 15.486 48.7966 15.2717 49.5274 14.8521C50.2585 14.4273 50.8056 13.8149 51.1702 13.0103L51.1701 13.0103C51.536 12.198 51.722 11.2007 51.722 10.0137C51.722 8.83664 51.536 7.84692 51.1703 7.03953ZM56.5906 17.7704V17.6293V6.23922V6.09813H56.7301H58.8483H58.9877V6.23922V7.62293C59.2123 7.15803 59.5408 6.77806 59.9724 6.48551C60.5194 6.11314 61.138 5.92757 61.8241 5.92757C61.964 5.92757 62.1278 5.93263 62.3151 5.94259C62.5072 5.95255 62.6605 5.96513 62.7738 5.98077L62.8944 5.99742V6.12056V8.24136V8.42702L62.7176 8.37732C62.6402 8.35557 62.4928 8.32941 62.2678 8.29972L62.2648 8.29933C62.0469 8.26577 61.8292 8.24898 61.6115 8.24898C61.1139 8.24898 60.6755 8.35568 60.2927 8.56563L60.2922 8.56591C59.9133 8.77162 59.6141 9.05807 59.3926 9.42694L59.3922 9.42762C59.1724 9.78896 59.061 10.2029 59.061 10.6736V17.6293V17.7704H58.9216H56.7301H56.5906ZM64.5119 17.7704V17.6293V6.23922V6.09813H64.6514H66.8429H66.9824V6.23922V17.6293V17.7704H66.8429H64.6514H64.5119ZM64.6811 4.19955L64.6792 4.19777C64.3846 3.91054 64.2334 3.56297 64.2334 3.16181C64.2334 2.7562 64.3843 2.40798 64.6802 2.12495C64.9801 1.83782 65.3418 1.69336 65.7582 1.69336C66.1744 1.69336 66.5342 1.83785 66.8295 2.12563C67.1295 2.40813 67.2829 2.75607 67.2829 3.16181C67.2829 3.56384 67.1285 3.9117 66.8288 4.19868C66.5333 4.48134 66.1737 4.62285 65.7582 4.62285C65.3426 4.62285 64.9811 4.4814 64.6811 4.19955ZM69.4172 17.7704V17.6293V16.1091V16.0603L69.4471 16.0219L75.4483 8.30833H69.7546H69.6151V8.16723V6.23922V6.09813H69.7546H78.3888H78.5282V6.23922V7.85578V7.90361L78.4995 7.9416L72.729 15.5602H78.5941H78.7335V15.7013V17.6293V17.7704H78.5941H69.5567H69.4172ZM80.8056 17.7704V17.6293V16.1091V16.0603L80.8354 16.0219L86.8365 8.30833H81.1428H81.0033V8.16723V6.23922V6.09813H81.1428H89.777H89.9164V6.23922V7.85578V7.90361L89.8877 7.9416L84.1173 15.5602H89.9823H90.1217V15.7013V17.6293V17.7704H89.9823H80.945H80.8056ZM94.8987 2.30142V2.44252V17.6293V17.7704H94.7593H92.5678H92.4284V17.6293V2.44252V2.30142H92.5678H94.7593H94.8987ZM99.6864 17.1525L99.6936 17.1401L99.6219 17.2608C98.8019 16.762 98.1685 16.0618 97.7222 15.164L97.7217 15.1632C97.2804 14.2602 97.0623 13.2073 97.0623 12.0084C97.0623 10.824 97.2807 9.77392 97.7214 8.86161L97.8469 8.92365L97.8335 8.91695L97.7214 8.86161L97.7217 8.86105C98.1671 7.94964 98.7899 7.23483 99.5899 6.72077L99.5901 6.72055C100.397 6.20522 101.337 5.94981 102.406 5.94981C103.057 5.94981 103.688 6.05879 104.299 6.2767C104.914 6.4961 105.466 6.84048 105.954 7.30848C106.445 7.78019 106.83 8.38988 107.11 9.13291L107.11 9.13296C107.391 9.87521 107.529 10.7707 107.529 11.8156V12.6016V12.7427H107.39H99.5325C99.5627 13.3583 99.6886 13.8845 99.906 14.3248L99.9062 14.3247C100.163 14.8359 100.519 15.2227 100.972 15.4898L100.972 15.4898C101.427 15.7526 101.962 15.8865 102.582 15.8865C102.983 15.8865 103.346 15.8291 103.672 15.7164C103.996 15.5992 104.274 15.4266 104.508 15.1991C104.741 14.9727 104.921 14.692 105.046 14.354L105.086 14.2439L105.201 14.2647L107.275 14.6429L107.25 14.7818H107.251L107.275 14.6429L107.425 14.6702L107.385 14.8188C107.213 15.4588 106.904 16.0206 106.458 16.5022C106.018 16.9789 105.464 17.3484 104.802 17.6123L104.802 17.6125L104.751 17.481L104.751 17.481C104.751 17.481 104.751 17.481 104.751 17.481L104.802 17.6125C104.143 17.8721 103.395 18.0003 102.56 18.0003C101.43 18.0003 100.449 17.756 99.6228 17.2613L99.6219 17.2608L99.6864 17.1525ZM100.903 15.6122C100.903 15.6123 100.903 15.6123 100.903 15.6123L100.911 15.5991L100.903 15.6122ZM99.5419 10.7995H105.1C105.083 10.2941 104.971 9.84738 104.767 9.4566L104.767 9.45604C104.544 9.02353 104.231 8.68443 103.828 8.43602L103.828 8.43565L103.89 8.33388L103.9 8.31715L103.828 8.43565C103.433 8.18927 102.965 8.06362 102.42 8.06362C101.829 8.06362 101.319 8.21052 100.885 8.50004L100.884 8.50024C100.45 8.78834 100.115 9.16527 99.8766 9.63286C99.6933 9.99639 99.5816 10.3849 99.5419 10.7995ZM125.28 17.0232L125.28 17.0233C124.24 17.6607 123.059 17.978 121.741 17.978C120.418 17.978 119.232 17.6608 118.188 17.0234L118.187 17.023C117.147 16.3804 116.328 15.4626 115.731 14.2747C115.133 13.0841 114.836 11.6696 114.836 10.0359C114.836 8.39741 115.133 6.98273 115.731 5.79687C116.328 4.60899 117.146 3.69384 118.187 3.05612L118.187 3.05607C119.232 2.41364 120.418 2.09379 121.741 2.09379C123.059 2.09379 124.24 2.41357 125.28 3.05586L125.28 3.05581C126.325 3.69349 127.146 4.60892 127.744 5.79706C128.342 6.98292 128.638 8.39741 128.638 10.0359C128.638 11.6744 128.342 13.0917 127.744 14.2824C127.146 15.4655 126.325 16.3807 125.28 17.0232ZM125.536 6.9744L125.536 6.97353C125.155 6.14415 124.634 5.52399 123.976 5.10545L123.975 5.10483C123.319 4.68037 122.576 4.46713 121.741 4.46713C120.901 4.46713 120.155 4.68045 119.5 5.10483L119.5 5.10523C118.846 5.52373 118.325 6.14406 117.939 6.97376L117.939 6.97381C117.559 7.7954 117.366 8.81426 117.366 10.0359C117.366 11.2571 117.559 12.2783 117.938 13.1049L117.938 13.1048C118.325 13.9296 118.846 14.5503 119.5 14.974C120.155 15.3937 120.901 15.6047 121.741 15.6047C122.577 15.6047 123.32 15.3938 123.975 14.974C124.634 14.5504 125.155 13.9299 125.536 13.1054L125.536 13.1051C125.921 12.2786 126.117 11.2573 126.117 10.0359C126.117 8.81449 125.921 7.79585 125.536 6.9744ZM131.183 17.7704V17.6293V2.44252V2.30142H131.323H136.673C137.851 2.30142 138.84 2.50657 139.632 2.92537L139.632 2.92535C140.427 3.34268 141.025 3.92319 141.421 4.66705L141.421 4.66708C141.814 5.40248 142.009 6.24922 142.009 7.20323C142.009 8.15269 141.812 8.99487 141.413 9.72559L141.413 9.72564C141.017 10.455 140.418 11.0206 139.623 11.4227C139.524 11.4731 139.422 11.5201 139.318 11.5641L142.564 17.5615L142.677 17.7704H142.441H139.861H139.778L139.738 17.696L136.729 12.0232C136.708 12.0234 136.687 12.0234 136.666 12.0234H133.727V17.6293V17.7704H133.587H131.323H131.183ZM133.727 9.76876H136.461C137.182 9.76876 137.756 9.6639 138.191 9.46267L138.192 9.46244C138.631 9.26102 138.946 8.97212 139.145 8.59734C139.347 8.21676 139.451 7.75386 139.451 7.20323C139.451 6.64805 139.344 6.1748 139.137 5.77872L139.136 5.77759C138.937 5.38755 138.621 5.08683 138.182 4.87623L138.18 4.87544C137.747 4.66084 137.166 4.5487 136.431 4.5487H133.727V9.76876ZM144.486 2.30142H144.626H147.374H147.468L147.503 2.38904L152.241 14.0927L156.979 2.38904L157.014 2.30142H157.108H159.856H159.996V2.44252V17.6293V17.7704H159.856H157.702H157.562V17.6293V7.01292L153.264 17.6604L153.229 17.7482H153.135H151.347H151.253L151.218 17.6604L146.92 7.00636V17.6293V17.7704H146.781H144.626H144.486V17.6293V2.44252V2.30142Z" fill="url(#paint0_linear_21538_36)"/>
<path d="M7.55866 8.61113C7.93832 7.94086 7.70569 7.09209 7.03907 6.71535C6.37244 6.33861 5.52425 6.57656 5.14459 7.24683L0.68793 15.1148C0.308269 15.7851 0.5409 16.6338 1.20753 17.0106C1.87415 17.3873 2.72234 17.1494 3.102 16.4791L7.55866 8.61113Z" fill="url(#paint1_linear_21538_36)"/>
<path d="M17.1602 2.57793C17.5399 1.90766 17.3073 1.05889 16.6406 0.682147C15.974 0.305408 15.1258 0.543361 14.7462 1.21363L10.2895 9.0816C9.90983 9.75187 10.1425 10.6006 10.8091 10.9774C11.4757 11.3541 12.3239 11.1162 12.7036 10.4459L17.1602 2.57793Z" fill="url(#paint2_linear_21538_36)"/>
<path d="M31.9415 2.57793C32.3211 1.90766 32.0885 1.05889 31.4219 0.682147C30.7553 0.305408 29.9071 0.543361 29.5274 1.21363L25.0707 9.0816C24.6911 9.75187 24.9237 10.6006 25.5903 10.9774C26.257 11.3541 27.1052 11.1162 27.4848 10.4459L31.9415 2.57793Z" fill="url(#paint3_linear_21538_36)"/>
<path d="M22.3321 8.61113C22.7118 7.94086 22.4791 7.09209 21.8125 6.71535C21.1459 6.33861 20.2977 6.57656 19.918 7.24683L15.4614 15.1148C15.0817 15.7851 15.3143 16.6338 15.981 17.0106C16.6476 17.3873 17.4958 17.1494 17.8754 16.4791L22.3321 8.61113Z" fill="url(#paint4_linear_21538_36)"/>
<defs>
<linearGradient id="paint0_linear_21538_36" x1="101.258" y1="1.70346" x2="101.258" y2="22.28" gradientUnits="userSpaceOnUse">
<stop stop-color="#E4E5E7"/>
<stop offset="1" stop-color="#E4E5E7" stop-opacity="0.7"/>
</linearGradient>
<linearGradient id="paint1_linear_21538_36" x1="7.04208" y1="6.72547" x2="-0.3038" y2="19.7234" gradientUnits="userSpaceOnUse">
<stop stop-color="#E4E5E7"/>
<stop offset="1" stop-color="#E4E5E7" stop-opacity="0.7"/>
</linearGradient>
<linearGradient id="paint2_linear_21538_36" x1="16.6436" y1="0.692268" x2="9.29776" y2="13.6902" gradientUnits="userSpaceOnUse">
<stop stop-color="#E4E5E7"/>
<stop offset="1" stop-color="#E4E5E7" stop-opacity="0.7"/>
</linearGradient>
<linearGradient id="paint3_linear_21538_36" x1="31.4249" y1="0.692268" x2="24.079" y2="13.6902" gradientUnits="userSpaceOnUse">
<stop stop-color="#E4E5E7"/>
<stop offset="1" stop-color="#E4E5E7" stop-opacity="0.7"/>
</linearGradient>
<linearGradient id="paint4_linear_21538_36" x1="21.8155" y1="6.72547" x2="14.4696" y2="19.7234" gradientUnits="userSpaceOnUse">
<stop stop-color="#E4E5E7"/>
<stop offset="1" stop-color="#E4E5E7" stop-opacity="0.7"/>
</linearGradient>
</defs>
</svg>
