<svg width="160" height="32" viewBox="0 0 160 32" fill="none" xmlns="http://www.w3.org/2000/svg">
<path fill-rule="evenodd" clip-rule="evenodd" d="M41.8711 24.7704V24.6293V9.44252V9.30142H42.0106H47.0239C48.5136 9.30142 49.8015 9.60943 50.8819 10.2318C51.9623 10.8491 52.7901 11.7378 53.364 12.8941L53.364 12.8941C53.9427 14.0452 54.2291 15.4201 54.2291 17.0137C54.2291 18.6124 53.9402 19.9947 53.3565 21.1557L53.3565 21.1557C52.7775 22.3171 51.9374 23.2131 50.8378 23.8401L50.8374 23.8404C49.7372 24.4627 48.4128 24.7704 46.87 24.7704H42.0106H41.8711ZM51.1703 14.0395L51.17 14.0389C50.8099 13.2336 50.2746 12.6265 49.5636 12.2121C48.8522 11.7974 47.9616 11.5858 46.8847 11.5858H44.4148V22.486H46.7454C47.8718 22.486 48.7966 22.2717 49.5274 21.8521C50.2585 21.4273 50.8056 20.8149 51.1702 20.0103L51.1701 20.0103C51.536 19.198 51.722 18.2007 51.722 17.0137C51.722 15.8366 51.536 14.8469 51.1703 14.0395ZM56.5906 24.7704V24.6293V13.2392V13.0981H56.7301H58.8483H58.9877V13.2392V14.6229C59.2123 14.158 59.5408 13.7781 59.9724 13.4855C60.5194 13.1131 61.138 12.9276 61.8241 12.9276C61.964 12.9276 62.1278 12.9326 62.3151 12.9426C62.5072 12.9525 62.6605 12.9651 62.7738 12.9808L62.8944 12.9974V13.1206V15.2414V15.427L62.7176 15.3773C62.6402 15.3556 62.4928 15.3294 62.2678 15.2997L62.2648 15.2993C62.0469 15.2658 61.8292 15.249 61.6115 15.249C61.1139 15.249 60.6755 15.3557 60.2927 15.5656L60.2922 15.5659C59.9133 15.7716 59.6141 16.0581 59.3926 16.4269L59.3922 16.4276C59.1724 16.789 59.061 17.2029 59.061 17.6736V24.6293V24.7704H58.9216H56.7301H56.5906ZM64.5119 24.7704V24.6293V13.2392V13.0981H64.6514H66.8429H66.9824V13.2392V24.6293V24.7704H66.8429H64.6514H64.5119ZM64.6811 11.1995L64.6792 11.1978C64.3846 10.9105 64.2334 10.563 64.2334 10.1618C64.2334 9.7562 64.3843 9.40798 64.6802 9.12495C64.9801 8.83782 65.3418 8.69336 65.7582 8.69336C66.1744 8.69336 66.5342 8.83785 66.8295 9.12563C67.1295 9.40813 67.2829 9.75607 67.2829 10.1618C67.2829 10.5638 67.1285 10.9117 66.8288 11.1987C66.5333 11.4813 66.1737 11.6229 65.7582 11.6229C65.3426 11.6229 64.9811 11.4814 64.6811 11.1995ZM69.4172 24.7704V24.6293V23.1091V23.0603L69.4471 23.0219L75.4483 15.3083H69.7546H69.6151V15.1672V13.2392V13.0981H69.7546H78.3888H78.5282V13.2392V14.8558V14.9036L78.4995 14.9416L72.729 22.5602H78.5941H78.7335V22.7013V24.6293V24.7704H78.5941H69.5567H69.4172ZM80.8056 24.7704V24.6293V23.1091V23.0603L80.8354 23.0219L86.8365 15.3083H81.1428H81.0033V15.1672V13.2392V13.0981H81.1428H89.777H89.9164V13.2392V14.8558V14.9036L89.8877 14.9416L84.1173 22.5602H89.9823H90.1217V22.7013V24.6293V24.7704H89.9823H80.945H80.8056ZM94.8987 9.30142V9.44252V24.6293V24.7704H94.7593H92.5678H92.4284V24.6293V9.44252V9.30142H92.5678H94.7593H94.8987ZM99.6864 24.1525L99.6936 24.1401L99.6219 24.2608C98.8019 23.762 98.1685 23.0618 97.7222 22.164L97.7217 22.1632C97.2804 21.2602 97.0623 20.2073 97.0623 19.0084C97.0623 17.824 97.2807 16.7739 97.7214 15.8616L97.8469 15.9236L97.8335 15.9169L97.7214 15.8616L97.7217 15.861C98.1671 14.9496 98.7899 14.2348 99.5899 13.7208L99.5901 13.7205C100.397 13.2052 101.337 12.9498 102.406 12.9498C103.057 12.9498 103.688 13.0588 104.299 13.2767C104.914 13.4961 105.466 13.8405 105.954 14.3085C106.445 14.7802 106.83 15.3899 107.11 16.1329L107.11 16.133C107.391 16.8752 107.529 17.7707 107.529 18.8156V19.6016V19.7427H107.39H99.5325C99.5627 20.3583 99.6886 20.8845 99.906 21.3248L99.9062 21.3247C100.163 21.8359 100.519 22.2227 100.972 22.4898L100.972 22.4898C101.427 22.7526 101.962 22.8865 102.582 22.8865C102.983 22.8865 103.346 22.8291 103.672 22.7164C103.996 22.5992 104.274 22.4266 104.508 22.1991C104.741 21.9727 104.921 21.692 105.046 21.354L105.086 21.2439L105.201 21.2647L107.275 21.6429L107.25 21.7818H107.251L107.275 21.6429L107.425 21.6702L107.385 21.8188C107.213 22.4588 106.904 23.0206 106.458 23.5022C106.018 23.9789 105.464 24.3484 104.802 24.6123L104.802 24.6125L104.751 24.481L104.751 24.481C104.751 24.481 104.751 24.481 104.751 24.481L104.802 24.6125C104.143 24.8721 103.395 25.0003 102.56 25.0003C101.43 25.0003 100.449 24.756 99.6228 24.2613L99.6219 24.2608L99.6864 24.1525ZM100.903 22.6122C100.903 22.6123 100.903 22.6123 100.903 22.6123L100.911 22.5991L100.903 22.6122ZM99.5419 17.7995H105.1C105.083 17.2941 104.971 16.8474 104.767 16.4566L104.767 16.456C104.544 16.0235 104.231 15.6844 103.828 15.436L103.828 15.4357L103.89 15.3339L103.9 15.3171L103.828 15.4357C103.433 15.1893 102.965 15.0636 102.42 15.0636C101.829 15.0636 101.319 15.2105 100.885 15.5L100.884 15.5002C100.45 15.7883 100.115 16.1653 99.8766 16.6329C99.6933 16.9964 99.5816 17.3849 99.5419 17.7995ZM125.28 24.0232L125.28 24.0233C124.24 24.6607 123.059 24.978 121.741 24.978C120.418 24.978 119.232 24.6608 118.188 24.0234L118.187 24.023C117.147 23.3804 116.328 22.4626 115.731 21.2747C115.133 20.0841 114.836 18.6696 114.836 17.0359C114.836 15.3974 115.133 13.9827 115.731 12.7969C116.328 11.609 117.146 10.6938 118.187 10.0561L118.187 10.0561C119.232 9.41364 120.418 9.09379 121.741 9.09379C123.059 9.09379 124.24 9.41357 125.28 10.0559L125.28 10.0558C126.325 10.6935 127.146 11.6089 127.744 12.7971C128.342 13.9829 128.638 15.3974 128.638 17.0359C128.638 18.6744 128.342 20.0917 127.744 21.2824C127.146 22.4655 126.325 23.3807 125.28 24.0232ZM125.536 13.9744L125.536 13.9735C125.155 13.1442 124.634 12.524 123.976 12.1055L123.975 12.1048C123.319 11.6804 122.576 11.4671 121.741 11.4671C120.901 11.4671 120.155 11.6805 119.5 12.1048L119.5 12.1052C118.846 12.5237 118.325 13.1441 117.939 13.9738L117.939 13.9738C117.559 14.7954 117.366 15.8143 117.366 17.0359C117.366 18.2571 117.559 19.2783 117.938 20.1049L117.938 20.1048C118.325 20.9296 118.846 21.5503 119.5 21.974C120.155 22.3937 120.901 22.6047 121.741 22.6047C122.577 22.6047 123.32 22.3938 123.975 21.974C124.634 21.5504 125.155 20.9299 125.536 20.1054L125.536 20.1051C125.921 19.2786 126.117 18.2573 126.117 17.0359C126.117 15.8145 125.921 14.7958 125.536 13.9744ZM131.183 24.7704V24.6293V9.44252V9.30142H131.323H136.673C137.851 9.30142 138.84 9.50657 139.632 9.92537L139.632 9.92535C140.427 10.3427 141.025 10.9232 141.421 11.667L141.421 11.6671C141.814 12.4025 142.009 13.2492 142.009 14.2032C142.009 15.1527 141.812 15.9949 141.413 16.7256L141.413 16.7256C141.017 17.455 140.418 18.0206 139.623 18.4227C139.524 18.4731 139.422 18.5201 139.318 18.5641L142.564 24.5615L142.677 24.7704H142.441H139.861H139.778L139.738 24.696L136.729 19.0232C136.708 19.0234 136.687 19.0234 136.666 19.0234H133.727V24.6293V24.7704H133.587H131.323H131.183ZM133.727 16.7688H136.461C137.182 16.7688 137.756 16.6639 138.191 16.4627L138.192 16.4624C138.631 16.261 138.946 15.9721 139.145 15.5973C139.347 15.2168 139.451 14.7539 139.451 14.2032C139.451 13.6481 139.344 13.1748 139.137 12.7787L139.136 12.7776C138.937 12.3876 138.621 12.0868 138.182 11.8762L138.18 11.8754C137.747 11.6608 137.166 11.5487 136.431 11.5487H133.727V16.7688ZM144.486 9.30142H144.626H147.374H147.468L147.503 9.38904L152.241 21.0927L156.979 9.38904L157.014 9.30142H157.108H159.856H159.996V9.44252V24.6293V24.7704H159.856H157.702H157.562V24.6293V14.0129L153.264 24.6604L153.229 24.7482H153.135H151.347H151.253L151.218 24.6604L146.92 14.0064V24.6293V24.7704H146.781H144.626H144.486V24.6293V9.44252V9.30142Z" fill="url(#paint0_linear_21710_1918)"/>
<path d="M7.55866 15.6111C7.93832 14.9409 7.70569 14.0921 7.03907 13.7154C6.37244 13.3386 5.52425 13.5766 5.14459 14.2468L0.68793 22.1148C0.308269 22.7851 0.5409 23.6338 1.20753 24.0106C1.87415 24.3873 2.72234 24.1494 3.102 23.4791L7.55866 15.6111Z" fill="url(#paint1_linear_21710_1918)"/>
<path d="M17.1602 9.57793C17.5399 8.90766 17.3073 8.05889 16.6406 7.68215C15.974 7.30541 15.1258 7.54336 14.7462 8.21363L10.2895 16.0816C9.90983 16.7519 10.1425 17.6006 10.8091 17.9774C11.4757 18.3541 12.3239 18.1162 12.7036 17.4459L17.1602 9.57793Z" fill="url(#paint2_linear_21710_1918)"/>
<path d="M31.9415 9.57793C32.3211 8.90766 32.0885 8.05889 31.4219 7.68215C30.7553 7.30541 29.9071 7.54336 29.5274 8.21363L25.0707 16.0816C24.6911 16.7519 24.9237 17.6006 25.5903 17.9774C26.257 18.3541 27.1052 18.1162 27.4848 17.4459L31.9415 9.57793Z" fill="url(#paint3_linear_21710_1918)"/>
<path d="M22.3321 15.6111C22.7118 14.9409 22.4791 14.0921 21.8125 13.7154C21.1459 13.3386 20.2977 13.5766 19.918 14.2468L15.4614 22.1148C15.0817 22.7851 15.3143 23.6338 15.981 24.0106C16.6476 24.3873 17.4958 24.1494 17.8754 23.4791L22.3321 15.6111Z" fill="url(#paint4_linear_21710_1918)"/>
<defs>
<linearGradient id="paint0_linear_21710_1918" x1="101.258" y1="8.70346" x2="101.258" y2="29.28" gradientUnits="userSpaceOnUse">
<stop stop-color="#E4E5E7"/>
<stop offset="1" stop-color="#E4E5E7" stop-opacity="0.7"/>
</linearGradient>
<linearGradient id="paint1_linear_21710_1918" x1="7.04208" y1="13.7255" x2="-0.3038" y2="26.7234" gradientUnits="userSpaceOnUse">
<stop stop-color="#E4E5E7"/>
<stop offset="1" stop-color="#E4E5E7" stop-opacity="0.7"/>
</linearGradient>
<linearGradient id="paint2_linear_21710_1918" x1="16.6436" y1="7.69227" x2="9.29776" y2="20.6902" gradientUnits="userSpaceOnUse">
<stop stop-color="#E4E5E7"/>
<stop offset="1" stop-color="#E4E5E7" stop-opacity="0.7"/>
</linearGradient>
<linearGradient id="paint3_linear_21710_1918" x1="31.4249" y1="7.69227" x2="24.079" y2="20.6902" gradientUnits="userSpaceOnUse">
<stop stop-color="#E4E5E7"/>
<stop offset="1" stop-color="#E4E5E7" stop-opacity="0.7"/>
</linearGradient>
<linearGradient id="paint4_linear_21710_1918" x1="21.8155" y1="13.7255" x2="14.4696" y2="26.7234" gradientUnits="userSpaceOnUse">
<stop stop-color="#E4E5E7"/>
<stop offset="1" stop-color="#E4E5E7" stop-opacity="0.7"/>
</linearGradient>
</defs>
</svg>
