<svg width="113" height="32" viewBox="0 0 113 32" fill="none" xmlns="http://www.w3.org/2000/svg">
<path fill-rule="evenodd" clip-rule="evenodd" d="M10.3241 7.49599C10.7131 7.30097 10.8707 6.82669 10.6762 6.43665C10.4817 6.04661 10.0089 5.88851 9.61996 6.08353L0.43519 10.6895C0.168477 10.8232 0 11.0966 0 11.3957C0 11.6948 0.168477 11.9682 0.43519 12.1019L9.61996 16.7079C9.73645 16.7662 9.86041 16.793 9.98222 16.7913C10.1039 16.7929 10.2277 16.7662 10.344 16.7078L19.5287 12.1019C19.7956 11.9681 19.9641 11.6946 19.9639 11.3954C19.9638 11.0962 19.7951 10.8227 19.5281 10.6892L14.9258 8.38619C14.7045 8.2754 14.444 8.27546 14.2226 8.38635L9.62527 10.6893C9.23625 10.8842 9.07839 11.3584 9.27273 11.7485C9.46699 12.1386 9.93985 12.2969 10.3288 12.1021L14.5746 9.97523L17.4148 11.3965L9.98197 15.1238L2.54765 11.3957L10.3241 7.49599ZM66.3353 12.1694V14.5416H64.0809V23.5562H60.9321V14.5416H59.3281V12.1694H60.9321V11.3465C60.9321 10.106 61.2844 9.18183 61.9891 8.57394C62.6987 7.96605 63.5881 7.66211 64.6574 7.66211C65.1403 7.66211 65.5813 7.69918 65.9805 7.77331C66.3846 7.84744 66.6852 7.91416 66.8823 7.97347L66.3279 10.3457C66.2047 10.3062 66.052 10.2691 65.8697 10.2345C65.6873 10.1999 65.5025 10.1826 65.3153 10.1826C64.8521 10.1826 64.5293 10.2914 64.347 10.5088C64.1696 10.7213 64.0809 11.0203 64.0809 11.4058V12.1694H66.3353ZM36.7217 13.2812C36.5197 12.5695 36.1452 12.0135 35.5982 11.6132C35.0562 11.2079 34.3737 11.0053 33.5508 11.0053C32.3928 11.0053 31.454 11.4353 30.7347 12.2952C30.0201 13.1502 29.6628 14.3684 29.6628 15.9499C29.6628 17.5364 30.0152 18.7621 30.7199 19.6269C31.4245 20.4919 32.378 20.9243 33.5803 20.9243C34.6447 20.9243 35.48 20.6475 36.086 20.094C36.6971 19.5355 37.0125 18.7868 37.0322 17.8478H33.7799V15.431H40.1144V17.3437C40.1144 18.6731 39.8336 19.8197 39.2718 20.7834C38.71 21.7422 37.9364 22.4786 36.9509 22.9926C35.9703 23.5066 34.8418 23.7636 33.5656 23.7636C32.1464 23.7636 30.8997 23.4498 29.8255 22.8221C28.7513 22.1895 27.9136 21.2925 27.3123 20.1311C26.7161 18.9647 26.418 17.5809 26.418 15.9796C26.418 14.3388 26.7309 12.9352 27.3567 11.7689C27.9825 10.6025 28.8301 9.71046 29.8994 9.09268C30.9687 8.47491 32.1686 8.16602 33.499 8.16602C34.6423 8.16602 35.6771 8.38347 36.6035 8.81839C37.5299 9.2533 38.2887 9.85625 38.88 10.6272C39.4714 11.3933 39.836 12.2779 39.974 13.2812H36.7217ZM41.625 23.5568V12.1699H44.6777V14.1567H44.796C45.003 13.45 45.3503 12.9162 45.8382 12.5554C46.326 12.1897 46.8878 12.0068 47.5234 12.0068C47.8733 12.0068 48.2034 12.0439 48.5139 12.118V14.9203C48.366 14.8708 48.1616 14.8313 47.9004 14.8017C47.6393 14.767 47.4002 14.7498 47.1834 14.7498C46.4887 14.7498 45.9121 14.9697 45.4538 15.4095C45.0005 15.8444 44.7738 16.4128 44.7738 17.1146V23.5568H41.625ZM49.5249 22.919C50.2394 23.4874 51.1387 23.7716 52.2228 23.7716C53.0605 23.7716 53.7528 23.606 54.2998 23.2748C54.8517 22.9388 55.2656 22.5063 55.5416 21.9775H55.6303V23.5566H58.6165V15.8764C58.6165 14.972 58.3898 14.2381 57.9364 13.6747C57.4881 13.1063 56.8967 12.6887 56.1625 12.4218C55.4282 12.1549 54.6398 12.0215 53.7972 12.0215C52.4372 12.0215 51.326 12.3254 50.4636 12.9333C49.6062 13.5412 49.0691 14.3641 48.8523 15.4019L51.7645 15.6392C51.873 15.2586 52.0947 14.9448 52.4298 14.6977C52.7648 14.4506 53.2157 14.327 53.7824 14.327C54.3196 14.327 54.7334 14.4555 55.0242 14.7125C55.3199 14.9695 55.4677 15.3328 55.4677 15.8023V15.8468C55.4677 16.2125 55.2558 16.4497 54.832 16.5584C54.4082 16.6672 53.7036 16.7709 52.718 16.8698C51.969 16.939 51.2693 17.0873 50.6188 17.3146C49.9733 17.537 49.451 17.8903 49.0519 18.3747C48.6527 18.859 48.4531 19.5263 48.4531 20.3763C48.4531 21.5031 48.8104 22.3507 49.5249 22.919ZM54.8246 20.9916C54.3811 21.3919 53.8145 21.5921 53.1246 21.5921C52.6417 21.5921 52.2425 21.4808 51.9271 21.2584C51.6167 21.0361 51.4615 20.7074 51.4615 20.2725C51.4615 19.8277 51.629 19.4892 51.9641 19.2568C52.3041 19.0246 52.75 18.8689 53.302 18.7898C53.5336 18.7553 53.7947 18.7157 54.0854 18.6713C54.3811 18.6218 54.6571 18.5649 54.9133 18.5007C55.1745 18.4364 55.3666 18.3623 55.4899 18.2783V19.4867C55.4899 20.0847 55.2681 20.5863 54.8246 20.9916ZM67.4844 8.37402V23.5565H70.5888V21.7328H70.7292C70.877 22.049 71.084 22.3629 71.3501 22.6743C71.6212 22.9807 71.9686 23.2352 72.3923 23.4379C72.821 23.6405 73.3409 23.7418 73.952 23.7418C74.8142 23.7418 75.5929 23.5194 76.2877 23.0746C76.9824 22.6249 77.5343 21.965 77.9434 21.0952C78.3523 20.2205 78.5568 19.148 78.5568 17.8779C78.5568 16.5731 78.3449 15.4883 77.9212 14.6235C77.5023 13.7536 76.9455 13.1037 76.2507 12.6737C75.5559 12.2388 74.7921 12.0214 73.9594 12.0214C73.3286 12.0214 72.7989 12.1301 72.3701 12.3475C71.9415 12.5601 71.5965 12.8245 71.3353 13.1408C71.0742 13.4571 70.8721 13.7709 70.7292 14.0823H70.6332V8.37402H67.4844ZM71.1875 20.3095C70.7736 19.6916 70.5666 18.8762 70.5666 17.863C70.5666 16.845 70.7736 16.0369 71.1875 15.4389C71.6014 14.836 72.1903 14.5345 72.9541 14.5345C73.7327 14.5345 74.3239 14.8434 74.728 15.4611C75.137 16.074 75.3415 16.8746 75.3415 17.863C75.3415 18.8565 75.137 19.667 74.728 20.2946C74.319 20.9173 73.7277 21.2287 72.9541 21.2287C72.1952 21.2287 71.6064 20.9223 71.1875 20.3095ZM83.0587 23.7716C81.9746 23.7716 81.0753 23.4874 80.3608 22.919C79.6463 22.3507 79.2891 21.5031 79.2891 20.3763C79.2891 19.5263 79.4886 18.859 79.8877 18.3747C80.2869 17.8903 80.8092 17.537 81.4548 17.3146C82.1052 17.0873 82.8049 16.939 83.5537 16.8698C84.5391 16.7709 85.2445 16.6672 85.6683 16.5584C86.092 16.4497 86.3039 16.2125 86.3039 15.8468V15.8023C86.3039 15.3328 86.156 14.9695 85.8602 14.7125C85.5694 14.4555 85.1556 14.327 84.618 14.327C84.0514 14.327 83.601 14.4506 83.2653 14.6977C82.9306 14.9448 82.7088 15.2586 82.6005 15.6392L79.6882 15.4019C79.905 14.3641 80.4421 13.5412 81.2995 12.9333C82.1618 12.3254 83.2728 12.0215 84.633 12.0215C85.4755 12.0215 86.264 12.1549 86.9985 12.4218C87.733 12.6887 88.3237 13.1063 88.7724 13.6747C89.2261 14.2381 89.4521 14.972 89.4521 15.8764V23.5566H86.4659V21.9775H86.3778C86.1011 22.5063 85.6874 22.9388 85.1357 23.2748C84.5889 23.606 83.8968 23.7716 83.0587 23.7716ZM83.9608 21.5921C84.6504 21.5921 85.2171 21.3919 85.6608 20.9916C86.1036 20.5863 86.3255 20.0847 86.3255 19.4867V18.2783C86.2025 18.3623 86.0106 18.4364 85.7488 18.5007C85.4929 18.5649 85.2171 18.6218 84.9213 18.6713C84.6305 18.7157 84.3696 18.7553 84.1378 18.7898C83.5861 18.8689 83.1399 19.0246 82.8 19.2568C82.4649 19.4892 82.2974 19.8277 82.2974 20.2725C82.2974 20.7074 82.4526 21.0361 82.7631 21.2584C83.0784 21.4808 83.4772 21.5921 83.9608 21.5921ZM97.6292 15.5947L100.511 15.4168C100.374 14.369 99.8908 13.5412 99.0633 12.9333C98.2398 12.3254 97.1115 12.0215 95.6774 12.0215C94.2242 12.0215 93.056 12.3378 92.1744 12.9704C91.297 13.603 90.8608 14.4678 90.8658 15.565C90.8558 17.2948 91.9501 18.3796 94.1478 18.8195L96.1136 19.2124C97.07 19.4052 97.5552 19.7832 97.5702 20.3466C97.5652 20.6827 97.3923 20.9594 97.0525 21.1769C96.7177 21.3943 96.274 21.5031 95.7223 21.5031C95.1606 21.5031 94.6995 21.3845 94.3397 21.1473C93.9849 20.91 93.7581 20.5592 93.66 20.0946L90.5625 20.2577C90.7104 21.3449 91.2305 22.2049 92.1229 22.8375C93.0144 23.4652 94.2117 23.779 95.7148 23.779C96.6952 23.779 97.5652 23.6233 98.3238 23.3119C99.0832 22.9957 99.6789 22.5558 100.113 21.9923C100.551 21.429 100.771 20.7741 100.771 20.0278C100.766 18.4217 99.6715 17.3937 97.4887 16.9439L95.434 16.5288C94.9063 16.4151 94.5324 16.2643 94.3106 16.0766C94.0937 15.8888 93.9874 15.6589 93.9924 15.3871C93.9874 15.0461 94.1527 14.7743 94.4876 14.5717C94.8274 14.3641 95.242 14.2603 95.7298 14.2603C96.2765 14.2603 96.7102 14.3913 97.0301 14.6532C97.3508 14.9152 97.5502 15.229 97.6292 15.5947ZM107.093 23.779C105.93 23.779 104.927 23.5417 104.085 23.0673C103.242 22.5879 102.594 21.9108 102.141 21.0361C101.687 20.1563 101.461 19.116 101.461 17.9151C101.461 16.7438 101.687 15.7158 102.141 14.8311C102.594 13.9465 103.232 13.257 104.055 12.7628C104.883 12.2686 105.854 12.0215 106.967 12.0215C107.968 12.0215 108.869 12.234 109.673 12.659C110.481 13.0841 111.122 13.7265 111.594 14.5865C112.067 15.4415 112.304 16.5139 112.304 17.8038V18.6713H104.573V18.6786C104.573 19.5287 104.804 20.1983 105.267 20.6877C105.73 21.1769 106.356 21.4216 107.145 21.4216C107.672 21.4216 108.128 21.3103 108.512 21.0879C108.897 20.8656 109.167 20.5369 109.325 20.102L112.237 20.2948C112.016 21.3523 111.454 22.1975 110.552 22.8301C109.65 23.4627 108.497 23.779 107.093 23.779ZM104.573 16.7141H109.34C109.335 16.037 109.118 15.4786 108.69 15.0387C108.261 14.5988 107.704 14.3789 107.019 14.3789C106.319 14.3789 105.745 14.6063 105.297 15.0609C104.848 15.5156 104.607 16.0667 104.573 16.7141ZM0.0950052 20.2511C0.289452 19.8611 0.762343 19.703 1.15123 19.898L9.98393 24.3274L18.8166 19.898C19.2056 19.703 19.6784 19.8611 19.8729 20.2511C20.0674 20.6411 19.9097 21.1154 19.5208 21.3105L10.3361 25.9164C10.1144 26.0276 9.85348 26.0276 9.63188 25.9164L0.447082 21.3105C0.0581887 21.1154 -0.0994413 20.6411 0.0950052 20.2511ZM1.15123 15.2915C0.762343 15.0965 0.289452 15.2546 0.0950052 15.6446C-0.0994413 16.0347 0.0581887 16.5089 0.447082 16.7039L9.63188 21.3099C9.85348 21.421 10.1144 21.421 10.3361 21.3099L19.5208 16.7039C19.9097 16.5089 20.0674 16.0347 19.8729 15.6446C19.6784 15.2546 19.2056 15.0965 18.8166 15.2915L9.98393 19.7209L1.15123 15.2915Z" fill="url(#paint0_linear_21538_184)"/>
<defs>
<linearGradient id="paint0_linear_21538_184" x1="56.4602" y1="6.01239" x2="56.4602" y2="31.2487" gradientUnits="userSpaceOnUse">
<stop stop-color="#E4E5E7"/>
<stop offset="1" stop-color="#E4E5E7" stop-opacity="0.7"/>
</linearGradient>
</defs>
</svg>
