<svg width="114" height="20" viewBox="0 0 114 20" fill="none" xmlns="http://www.w3.org/2000/svg">
<g clip-path="url(#clip0_21538_184)">
<path fill-rule="evenodd" clip-rule="evenodd" d="M11.3202 1.49599C11.7092 1.30097 11.8668 0.826688 11.6723 0.436648C11.4778 0.0466071 11.005 -0.111488 10.616 0.0835325L1.43128 4.68947C1.16457 4.82323 0.996094 5.09662 0.996094 5.3957C0.996094 5.69478 1.16457 5.96818 1.43128 6.10193L10.616 10.7079C10.7325 10.7662 10.8565 10.793 10.9783 10.7913C11.1 10.7929 11.2238 10.7662 11.3401 10.7078L20.5248 6.10192C20.7917 5.96812 20.9602 5.69456 20.96 5.39536C20.9599 5.09616 20.7912 4.82273 20.5242 4.68916L15.9219 2.38619C15.7006 2.2754 15.4401 2.27546 15.2187 2.38635L10.6214 4.68932C10.2323 4.88417 10.0745 5.35839 10.2688 5.74852C10.4631 6.13863 10.9359 6.29693 11.3249 6.10208L15.5707 3.97523L18.4109 5.39646L10.9781 9.12383L3.54375 5.3957L11.3202 1.49599ZM67.3314 6.16939V8.54164H65.077V17.5562H61.9282V8.54164H60.3242V6.16939H61.9282V5.34652C61.9282 4.10603 62.2805 3.18183 62.9852 2.57394C63.6948 1.96605 64.5842 1.66211 65.6535 1.66211C66.1364 1.66211 66.5774 1.69918 66.9766 1.77331C67.3807 1.84744 67.6813 1.91416 67.8784 1.97347L67.324 4.34572C67.2008 4.30618 67.048 4.26912 66.8658 4.23452C66.6834 4.19993 66.4986 4.18263 66.3114 4.18263C65.8482 4.18263 65.5254 4.29136 65.3431 4.50881C65.1657 4.72133 65.077 5.02033 65.077 5.40583V6.16939H67.3314ZM37.7178 7.28119C37.5158 6.56951 37.1413 6.01351 36.5943 5.6132C36.0522 5.20794 35.3698 5.00531 34.5469 5.00531C33.3889 5.00531 32.4501 5.43528 31.7307 6.29522C31.0162 7.15022 30.6589 8.36845 30.6589 9.94995C30.6589 11.5364 31.0113 12.7621 31.716 13.6269C32.4206 14.4919 33.3741 14.9243 34.5764 14.9243C35.6408 14.9243 36.4761 14.6475 37.0821 14.094C37.6932 13.5355 38.0086 12.7868 38.0283 11.8478H34.776V9.43103H41.1105V11.3437C41.1105 12.6731 40.8297 13.8197 40.2679 14.7834C39.7061 15.7422 38.9325 16.4786 37.947 16.9926C36.9664 17.5066 35.8379 17.7636 34.5616 17.7636C33.1425 17.7636 31.8958 17.4498 30.8216 16.8221C29.7473 16.1895 28.9096 15.2925 28.3084 14.1311C27.7122 12.9647 27.4141 11.5809 27.4141 9.97962C27.4141 8.33878 27.727 6.93524 28.3528 5.76888C28.9786 4.60252 29.8262 3.71046 30.8955 3.09268C31.9648 2.47491 33.1647 2.16602 34.4951 2.16602C35.6384 2.16602 36.6732 2.38347 37.5996 2.81839C38.526 3.2533 39.2848 3.85625 39.8761 4.62723C40.4675 5.39327 40.8321 6.27792 40.9701 7.28119H37.7178ZM42.6211 17.5568V6.16993H45.6738V8.15669H45.7921C45.999 7.44995 46.3464 6.91619 46.8342 6.55542C47.3221 6.18969 47.8839 6.00684 48.5195 6.00684C48.8694 6.00684 49.1995 6.0439 49.51 6.11804V8.92026C49.3621 8.87084 49.1576 8.83126 48.8965 8.80168C48.6354 8.76701 48.3963 8.74976 48.1795 8.74976C47.4847 8.74976 46.9082 8.96968 46.4499 9.40951C45.9966 9.84443 45.7699 10.4128 45.7699 11.1146V17.5568H42.6211ZM50.521 16.919C51.2355 17.4874 52.1348 17.7716 53.2189 17.7716C54.0566 17.7716 54.7489 17.606 55.2959 17.2748C55.8478 16.9388 56.2617 16.5063 56.5377 15.9775H56.6264V17.5566H59.6126V9.87642C59.6126 8.972 59.3859 8.23806 58.9325 7.67465C58.4841 7.10629 57.8928 6.68868 57.1586 6.4218C56.4243 6.15493 55.6359 6.02148 54.7933 6.02148C53.4333 6.02148 52.3221 6.32543 51.4597 6.93332C50.6023 7.54121 50.0652 8.36408 49.8484 9.40192L52.7606 9.63917C52.869 9.25858 53.0908 8.94483 53.4259 8.69767C53.7609 8.45058 54.2118 8.32702 54.7785 8.32702C55.3157 8.32702 55.7295 8.4555 56.0202 8.7125C56.316 8.9695 56.4638 9.33275 56.4638 9.80225V9.84675C56.4638 10.2125 56.2519 10.4497 55.8281 10.5584C55.4043 10.6672 54.6996 10.7709 53.7141 10.8698C52.9651 10.939 52.2654 11.0873 51.6149 11.3146C50.9694 11.537 50.4471 11.8903 50.048 12.3747C49.6488 12.859 49.4492 13.5263 49.4492 14.3763C49.4492 15.5031 49.8065 16.3507 50.521 16.919ZM55.8207 14.9916C55.3772 15.3919 54.8106 15.5921 54.1207 15.5921C53.6378 15.5921 53.2386 15.4808 52.9232 15.2584C52.6128 15.0361 52.4576 14.7074 52.4576 14.2725C52.4576 13.8277 52.6251 13.4892 52.9602 13.2568C53.3002 13.0246 53.7461 12.8689 54.2981 12.7898C54.5296 12.7553 54.7908 12.7157 55.0815 12.6713C55.3772 12.6218 55.6532 12.5649 55.9094 12.5007C56.1706 12.4364 56.3627 12.3623 56.486 12.2783V13.4867C56.486 14.0847 56.2642 14.5863 55.8207 14.9916ZM68.4805 2.37402V17.5565H71.5849V15.7328H71.7253C71.8731 16.049 72.0801 16.3629 72.3462 16.6743C72.6173 16.9807 72.9647 17.2352 73.3884 17.4379C73.8171 17.6405 74.337 17.7418 74.9481 17.7418C75.8103 17.7418 76.589 17.5194 77.2838 17.0746C77.9785 16.6249 78.5304 15.965 78.9394 15.0952C79.3484 14.2205 79.5529 13.148 79.5529 11.8779C79.5529 10.5731 79.341 9.4883 78.9173 8.62346C78.4984 7.75361 77.9416 7.10371 77.2468 6.67373C76.552 6.23882 75.7882 6.02137 74.9555 6.02137C74.3246 6.02137 73.795 6.13009 73.3662 6.34755C72.9376 6.56006 72.5926 6.82447 72.3314 7.14077C72.0703 7.45707 71.8682 7.77091 71.7253 8.08226H71.6293V2.37402H68.4805ZM72.1836 14.3095C71.7697 13.6916 71.5627 12.8762 71.5627 11.863C71.5627 10.845 71.7697 10.0369 72.1836 9.43888C72.5975 8.83596 73.1864 8.53446 73.9502 8.53446C74.7288 8.53446 75.32 8.84338 75.7241 9.46113C76.1331 10.074 76.3376 10.8746 76.3376 11.863C76.3376 12.8565 76.1331 13.667 75.7241 14.2946C75.3151 14.9173 74.7238 15.2287 73.9502 15.2287C73.1913 15.2287 72.6025 14.9223 72.1836 14.3095ZM84.0548 17.7716C82.9707 17.7716 82.0714 17.4874 81.3569 16.919C80.6424 16.3507 80.2852 15.5031 80.2852 14.3763C80.2852 13.5263 80.4847 12.859 80.8838 12.3747C81.283 11.8903 81.8053 11.537 82.4509 11.3146C83.1013 11.0873 83.801 10.939 84.5498 10.8698C85.5352 10.7709 86.2406 10.6672 86.6643 10.5584C87.0881 10.4497 87.3 10.2125 87.3 9.84675V9.80225C87.3 9.33275 87.1521 8.9695 86.8563 8.7125C86.5655 8.4555 86.1517 8.32702 85.6141 8.32702C85.0474 8.32702 84.5971 8.45058 84.2614 8.69767C83.9267 8.94483 83.7049 9.25858 83.5966 9.63917L80.6843 9.40192C80.9011 8.36408 81.4382 7.54121 82.2956 6.93332C83.1579 6.32543 84.2689 6.02148 85.6291 6.02148C86.4716 6.02148 87.2601 6.15493 87.9946 6.4218C88.7291 6.68868 89.3198 7.10629 89.7685 7.67465C90.2222 8.23806 90.4482 8.972 90.4482 9.87642V17.5566H87.462V15.9775H87.3739C87.0972 16.5063 86.6835 16.9388 86.1317 17.2748C85.585 17.606 84.8929 17.7716 84.0548 17.7716ZM84.9569 15.5921C85.6465 15.5921 86.2132 15.3919 86.6569 14.9916C87.0997 14.5863 87.3216 14.0847 87.3216 13.4867V12.2783C87.1986 12.3623 87.0067 12.4364 86.7449 12.5007C86.489 12.5649 86.2132 12.6218 85.9174 12.6713C85.6266 12.7157 85.3657 12.7553 85.1339 12.7898C84.5821 12.8689 84.136 13.0246 83.7961 13.2568C83.461 13.4892 83.2935 13.8277 83.2935 14.2725C83.2935 14.7074 83.4487 15.0361 83.7592 15.2584C84.0745 15.4808 84.4733 15.5921 84.9569 15.5921ZM98.6252 9.59467L101.508 9.41675C101.37 8.369 100.887 7.54121 100.059 6.93332C99.2359 6.32543 98.1076 6.02148 96.6735 6.02148C95.2203 6.02148 94.0521 6.33778 93.1705 6.97038C92.2931 7.60298 91.8569 8.46783 91.8619 9.565C91.8519 11.2948 92.9462 12.3796 95.1438 12.8195L97.1097 13.2124C98.0661 13.4052 98.5513 13.7832 98.5663 14.3466C98.5613 14.6827 98.3884 14.9594 98.0486 15.1769C97.7138 15.3943 97.2701 15.5031 96.7184 15.5031C96.1567 15.5031 95.6956 15.3845 95.3358 15.1473C94.981 14.91 94.7542 14.5592 94.6561 14.0946L91.5586 14.2577C91.7065 15.3449 92.2266 16.2049 93.119 16.8375C94.0105 17.4652 95.2078 17.779 96.7109 17.779C97.6913 17.779 98.5613 17.6233 99.3199 17.3119C100.079 16.9957 100.675 16.5558 101.109 15.9923C101.547 15.429 101.767 14.7741 101.767 14.0278C101.762 12.4217 100.668 11.3937 98.4848 10.9439L96.4301 10.5288C95.9024 10.4151 95.5285 10.2643 95.3067 10.0766C95.0898 9.88875 94.9835 9.65892 94.9885 9.38708C94.9835 9.04608 95.1488 8.77425 95.4837 8.57167C95.8235 8.36408 96.2381 8.2603 96.7258 8.2603C97.2726 8.2603 97.7063 8.39125 98.0262 8.65317C98.3469 8.91517 98.5463 9.229 98.6252 9.59467ZM108.089 17.779C106.926 17.779 105.923 17.5417 105.081 17.0673C104.238 16.5879 103.59 15.9108 103.137 15.0361C102.683 14.1563 102.457 13.116 102.457 11.9151C102.457 10.7438 102.683 9.71575 103.137 8.83108C103.59 7.94647 104.228 7.25703 105.051 6.76281C105.879 6.26859 106.85 6.02148 107.963 6.02148C108.964 6.02148 109.865 6.234 110.669 6.65903C111.477 7.08406 112.118 7.72654 112.59 8.5865C113.063 9.4415 113.3 10.5139 113.3 11.8038V12.6713H105.569V12.6786C105.569 13.5287 105.8 14.1983 106.263 14.6877C106.726 15.1769 107.353 15.4216 108.141 15.4216C108.668 15.4216 109.124 15.3103 109.508 15.0879C109.893 14.8656 110.163 14.5369 110.321 14.102L113.234 14.2948C113.012 15.3523 112.45 16.1975 111.549 16.8301C110.646 17.4627 109.493 17.779 108.089 17.779ZM105.569 10.7141H110.336C110.331 10.037 110.114 9.47858 109.686 9.03867C109.257 8.59883 108.7 8.37892 108.015 8.37892C107.315 8.37892 106.741 8.60625 106.293 9.06092C105.845 9.51558 105.603 10.0667 105.569 10.7141ZM1.0911 14.2511C1.28555 13.8611 1.75844 13.703 2.14733 13.898L10.98 18.3274L19.8127 13.898C20.2017 13.703 20.6745 13.8611 20.869 14.2511C21.0634 14.6411 20.9058 15.1154 20.5169 15.3105L11.3322 19.9164C11.1105 20.0276 10.8496 20.0276 10.628 19.9164L1.44318 15.3105C1.05428 15.1154 0.896652 14.6411 1.0911 14.2511ZM2.14733 9.29153C1.75844 9.09653 1.28555 9.25461 1.0911 9.64461C0.896652 10.0347 1.05428 10.5089 1.44318 10.7039L10.628 15.3099C10.8496 15.421 11.1105 15.421 11.3322 15.3099L20.5169 10.7039C20.9058 10.5089 21.0634 10.0347 20.869 9.64461C20.6745 9.25461 20.2017 9.09653 19.8127 9.29153L10.98 13.7209L2.14733 9.29153Z" fill="url(#paint0_linear_21538_184)"/>
</g>
<defs>
<linearGradient id="paint0_linear_21538_184" x1="57.4563" y1="0.0123866" x2="57.4563" y2="25.2487" gradientUnits="userSpaceOnUse">
<stop stop-color="#E4E5E7"/>
<stop offset="1" stop-color="#E4E5E7" stop-opacity="0.7"/>
</linearGradient>
<clipPath id="clip0_21538_184">
<rect width="113" height="20" fill="white" transform="translate(0.996094)"/>
</clipPath>
</defs>
</svg>
