<svg width="88" height="32" viewBox="0 0 88 32" fill="none" xmlns="http://www.w3.org/2000/svg">
<path fill-rule="evenodd" clip-rule="evenodd" d="M25.3538 11.5344C26.1186 9.02312 25.6582 4.01188 24.1755 2.16296C24.13 2.10715 24.0723 2.06341 24.0074 2.03533C23.9425 2.00726 23.8721 1.99565 23.8021 2.00146C23.732 2.00726 23.6643 2.03032 23.6044 2.06874C23.5445 2.10716 23.4942 2.15984 23.4577 2.22246L21.6311 5.24391C21.4152 5.53533 21.1014 5.73057 20.753 5.79031C20.4046 5.85006 20.0475 5.76988 19.7535 5.56592C17.7096 4.15321 15.3116 3.40136 12.8599 3.40461C10.4077 3.40102 8.00907 4.15288 5.96474 5.56592C5.67049 5.7686 5.3138 5.84803 4.96589 5.78834C4.61797 5.72865 4.30444 5.53423 4.08789 5.24391L2.26052 2.22246C2.22375 2.16025 2.17346 2.10795 2.11373 2.06979C2.05399 2.03163 1.98648 2.00868 1.91666 2.0028C1.84684 1.99693 1.77668 2.00828 1.71185 2.03595C1.64702 2.06362 1.58934 2.10683 1.54349 2.16208C0.0591196 4.01538 -0.400449 9.02575 0.365219 11.5336C0.619323 12.3692 0.688091 13.2512 0.538815 14.1087C0.389539 14.9593 0.239425 15.9865 0.239425 16.7023C0.239425 24.0472 5.8901 30 12.8566 30C19.8256 30 25.4729 24.0446 25.4729 16.7023C25.4729 15.9865 25.3236 14.9593 25.1744 14.1087C25.0333 13.2481 25.0949 12.3647 25.3538 11.5344ZM12.8566 27.0311C7.46924 27.0311 3.08908 22.4118 3.08908 16.7338C3.08595 14.7908 3.60948 12.8865 4.59923 11.2407C5.58898 9.59486 7.00462 8.27462 8.68273 7.43234C9.98544 6.77773 11.4132 6.4391 12.8591 6.44181C14.3544 6.44181 15.7691 6.79445 17.0355 7.43409C18.7136 8.27672 20.1292 9.59715 21.119 11.2431C22.1089 12.889 22.6327 14.7933 22.63 16.7364C22.6266 22.4118 18.2439 27.0311 12.8566 27.0311ZM17.0873 20.6986L14.5907 16.1336L12.4505 12.3308C12.4258 12.2864 12.3903 12.2496 12.3476 12.224C12.3049 12.1985 12.2565 12.1853 12.2073 12.1856H10.1627C10.1127 12.1858 10.0637 12.1998 10.0206 12.2261C9.97743 12.2525 9.94175 12.2903 9.91715 12.3357C9.89254 12.3811 9.87987 12.4325 9.88044 12.4847C9.881 12.5368 9.89478 12.5879 9.92036 12.6327L11.9691 16.2605L9.22095 20.6785C9.19358 20.7232 9.17808 20.7748 9.17602 20.8278C9.17395 20.8808 9.18541 20.9335 9.20921 20.9804C9.23316 21.0273 9.26894 21.0666 9.31268 21.0938C9.35643 21.1211 9.40648 21.1355 9.45744 21.1353H11.5171C11.5643 21.1355 11.6108 21.1232 11.6522 21.0995C11.6936 21.0757 11.7285 21.0414 11.7536 20.9996L13.2397 18.554L14.5731 20.99C14.6234 21.081 14.7156 21.1388 14.8146 21.1388H16.8449C16.8944 21.1391 16.9431 21.1255 16.9858 21.0993C17.0284 21.0731 17.0635 21.0353 17.0873 20.99C17.1376 20.9025 17.1376 20.7888 17.0873 20.6969V20.6986ZM38.9157 8.99902H36.3067V15.4829H33.359V8.99902H30.75V23.933H33.359V17.5681H36.3067V23.9295H38.9157V8.99902ZM46.4198 20.8319L46.9649 23.933H49.5881L46.5716 9.00165H43.0577L40.1787 23.933H42.7893L43.2892 20.8319H46.4198ZM46.0566 18.7713H43.6305L44.8113 11.625L46.0566 18.7713ZM55.3998 18.0152V21.2099L55.4006 21.2108C55.4006 21.4637 55.352 21.6326 55.2597 21.7201C55.1667 21.8076 55.0014 21.8513 54.7599 21.8513H53.8961C53.6387 21.8513 53.4651 21.8076 53.3753 21.7201C53.2856 21.6326 53.2403 21.4646 53.2403 21.2108V19.5317H50.6347V21.5923C50.6347 23.1516 51.4582 23.9339 53.1061 23.9339H55.5558C57.2037 23.9339 58.0272 23.1551 58.0272 21.5923V17.6871C58.0272 16.1401 57.2339 15.3674 55.6455 15.3674H53.855C53.5967 15.3674 53.4231 15.3237 53.3334 15.2362C53.2437 15.1487 53.1992 14.9807 53.1992 14.7269V11.723C53.1992 11.4692 53.2437 11.3003 53.3334 11.2128C53.4231 11.1253 53.5967 11.0816 53.855 11.0816H54.7172C54.9595 11.0816 55.1281 11.1253 55.2178 11.2128C55.3075 11.3003 55.3528 11.4692 55.3528 11.723V13.4266H57.9828V11.3441C57.9828 9.78479 57.1676 9.00252 55.5348 9.00252H53.0399C51.4071 9.00252 50.5928 9.78129 50.5928 11.3441V15.0069C50.5928 16.5863 51.371 17.3738 52.9284 17.3738H54.765C55.0082 17.3738 55.1759 17.4176 55.2656 17.5051C55.3553 17.5926 55.3998 17.7615 55.3998 18.0152ZM67.5951 8.99902H64.9887V21.2099C64.9887 21.4628 64.9442 21.6317 64.8545 21.7192C64.7639 21.8067 64.5903 21.8505 64.3329 21.8505H63.1319C62.8887 21.8505 62.721 21.8067 62.6313 21.7192C62.5415 21.6317 62.4963 21.4637 62.4963 21.2099V8.99902H59.8873V21.5879C59.8873 23.1481 60.7117 23.9295 62.3587 23.9295H65.1237C66.7716 23.9295 67.5951 23.1516 67.5951 21.5879V8.99902ZM72.3585 23.933V18.1115H73.2181L75.396 23.933H78.2088L75.8271 18.0397C76.9324 17.8175 77.4834 17.0615 77.4834 15.7673V11.3406C77.4834 9.78042 76.6599 8.99902 75.0119 8.99902H69.7521V23.933H72.3585ZM72.3585 16.0989V11.0807H74.2396C74.4819 11.0807 74.6497 11.1244 74.7402 11.212C74.83 11.2995 74.8744 11.4683 74.8744 11.7212V15.4576C74.8744 15.7113 74.83 15.8802 74.7394 15.9677C74.6471 16.0552 74.4828 16.0989 74.2396 16.0989H72.3585ZM84.8281 20.8319L85.3732 23.933H88.0006L84.9841 9.00165H81.4702L78.592 23.933H81.1977L81.6983 20.8319H84.8281ZM84.4692 18.7713H82.0422L83.223 11.625L84.4692 18.7713Z" fill="url(#paint0_linear_21538_24)"/>
<defs>
<linearGradient id="paint0_linear_21538_24" x1="44.2418" y1="2.01734" x2="44.2418" y2="37.3486" gradientUnits="userSpaceOnUse">
<stop stop-color="#E4E5E7"/>
<stop offset="1" stop-color="#E4E5E7" stop-opacity="0.7"/>
</linearGradient>
</defs>
</svg>
