<svg width="88" height="28" viewBox="0 0 88 28" fill="none" xmlns="http://www.w3.org/2000/svg">
<path fill-rule="evenodd" clip-rule="evenodd" d="M25.3538 9.53443C26.1186 7.02312 25.6582 2.01188 24.1755 0.162959C24.13 0.107147 24.0723 0.0634085 24.0074 0.0353341C23.9425 0.00725968 23.8721 -0.00435046 23.8021 0.0014565C23.732 0.00726347 23.6643 0.0303221 23.6044 0.0687397C23.5445 0.107157 23.4942 0.159839 23.4577 0.222461L21.6311 3.24391C21.4152 3.53533 21.1014 3.73057 20.753 3.79031C20.4046 3.85006 20.0475 3.76988 19.7535 3.56592C17.7096 2.15321 15.3116 1.40136 12.8599 1.40461C10.4077 1.40102 8.00907 2.15288 5.96474 3.56592C5.67049 3.7686 5.3138 3.84803 4.96589 3.78834C4.61797 3.72865 4.30444 3.53423 4.08789 3.24391L2.26052 0.222461C2.22375 0.160254 2.17346 0.107953 2.11373 0.0697925C2.05399 0.0316317 1.98648 0.00868308 1.91666 0.00280414C1.84684 -0.0030748 1.77668 0.00828115 1.71185 0.0359528C1.64702 0.0636244 1.58934 0.106834 1.54349 0.162084C0.0591196 2.01538 -0.400449 7.02575 0.365219 9.53356C0.619323 10.3692 0.688091 11.2512 0.538815 12.1087C0.389539 12.9593 0.239425 13.9865 0.239425 14.7023C0.239425 22.0472 5.8901 28 12.8566 28C19.8256 28 25.4729 22.0446 25.4729 14.7023C25.4729 13.9865 25.3236 12.9593 25.1744 12.1087C25.0333 11.2481 25.0949 10.3647 25.3538 9.53443ZM12.8566 25.0311C7.46924 25.0311 3.08908 20.4118 3.08908 14.7338C3.08595 12.7908 3.60948 10.8865 4.59923 9.24069C5.58898 7.59486 7.00462 6.27462 8.68273 5.43234C9.98544 4.77773 11.4132 4.4391 12.8591 4.44181C14.3544 4.44181 15.7691 4.79445 17.0355 5.43409C18.7136 6.27672 20.1292 7.59715 21.119 9.24306C22.1089 10.889 22.6327 12.7933 22.63 14.7364C22.6266 20.4118 18.2439 25.0311 12.8566 25.0311ZM17.0873 18.6986L14.5907 14.1336L12.4505 10.3308C12.4258 10.2864 12.3903 10.2496 12.3476 10.224C12.3049 10.1985 12.2565 10.1853 12.2073 10.1856H10.1627C10.1127 10.1858 10.0637 10.1998 10.0206 10.2261C9.97743 10.2525 9.94175 10.2903 9.91715 10.3357C9.89254 10.3811 9.87987 10.4325 9.88044 10.4847C9.881 10.5368 9.89478 10.5879 9.92036 10.6327L11.9691 14.2605L9.22095 18.6785C9.19358 18.7232 9.17808 18.7748 9.17602 18.8278C9.17395 18.8808 9.18541 18.9335 9.20921 18.9804C9.23316 19.0273 9.26894 19.0666 9.31268 19.0938C9.35643 19.1211 9.40648 19.1355 9.45744 19.1353H11.5171C11.5643 19.1355 11.6108 19.1232 11.6522 19.0995C11.6936 19.0757 11.7285 19.0414 11.7536 18.9996L13.2397 16.554L14.5731 18.99C14.6234 19.081 14.7156 19.1388 14.8146 19.1388H16.8449C16.8944 19.1391 16.9431 19.1255 16.9858 19.0993C17.0284 19.0731 17.0635 19.0353 17.0873 18.99C17.1376 18.9025 17.1376 18.7888 17.0873 18.6969V18.6986ZM38.9157 6.99902H36.3067V13.4829H33.359V6.99902H30.75V21.933H33.359V15.5681H36.3067V21.9295H38.9157V6.99902ZM46.4198 18.8319L46.9649 21.933H49.5881L46.5716 7.00165H43.0577L40.1787 21.933H42.7893L43.2892 18.8319H46.4198ZM46.0566 16.7713H43.6305L44.8113 9.62496L46.0566 16.7713ZM55.3998 16.0152V19.2099L55.4006 19.2108C55.4006 19.4637 55.352 19.6326 55.2597 19.7201C55.1667 19.8076 55.0014 19.8513 54.7599 19.8513H53.8961C53.6387 19.8513 53.4651 19.8076 53.3753 19.7201C53.2856 19.6326 53.2403 19.4646 53.2403 19.2108V17.5317H50.6347V19.5923C50.6347 21.1516 51.4582 21.9339 53.1061 21.9339H55.5558C57.2037 21.9339 58.0272 21.1551 58.0272 19.5923V15.6871C58.0272 14.1401 57.2339 13.3674 55.6455 13.3674H53.855C53.5967 13.3674 53.4231 13.3237 53.3334 13.2362C53.2437 13.1487 53.1992 12.9807 53.1992 12.7269V9.72296C53.1992 9.46921 53.2437 9.30033 53.3334 9.21283C53.4231 9.12532 53.5967 9.08157 53.855 9.08157H54.7172C54.9595 9.08157 55.1281 9.12532 55.2178 9.21283C55.3075 9.30033 55.3528 9.46921 55.3528 9.72296V11.4266H57.9828V9.34408C57.9828 7.78479 57.1676 7.00252 55.5348 7.00252H53.0399C51.4071 7.00252 50.5928 7.78129 50.5928 9.34408V13.0069C50.5928 14.5863 51.371 15.3738 52.9284 15.3738H54.765C55.0082 15.3738 55.1759 15.4176 55.2656 15.5051C55.3553 15.5926 55.3998 15.7615 55.3998 16.0152ZM67.5951 6.99902H64.9887V19.2099C64.9887 19.4628 64.9442 19.6317 64.8545 19.7192C64.7639 19.8067 64.5903 19.8505 64.3329 19.8505H63.1319C62.8887 19.8505 62.721 19.8067 62.6313 19.7192C62.5415 19.6317 62.4963 19.4637 62.4963 19.2099V6.99902H59.8873V19.5879C59.8873 21.1481 60.7117 21.9295 62.3587 21.9295H65.1237C66.7716 21.9295 67.5951 21.1516 67.5951 19.5879V6.99902ZM72.3585 21.933V16.1115H73.2181L75.396 21.933H78.2088L75.8271 16.0397C76.9324 15.8175 77.4834 15.0615 77.4834 13.7673V9.34058C77.4834 7.78042 76.6599 6.99902 75.0119 6.99902H69.7521V21.933H72.3585ZM72.3585 14.0989V9.0807H74.2396C74.4819 9.0807 74.6497 9.12445 74.7402 9.21195C74.83 9.29945 74.8744 9.46833 74.8744 9.72121V13.4576C74.8744 13.7113 74.83 13.8802 74.7394 13.9677C74.6471 14.0552 74.4828 14.0989 74.2396 14.0989H72.3585ZM84.8281 18.8319L85.3732 21.933H88.0006L84.9841 7.00165H81.4702L78.592 21.933H81.1977L81.6983 18.8319H84.8281ZM84.4692 16.7713H82.0422L83.223 9.62496L84.4692 16.7713Z" fill="url(#paint0_linear_21538_24)"/>
<defs>
<linearGradient id="paint0_linear_21538_24" x1="44.2418" y1="0.0173415" x2="44.2418" y2="35.3486" gradientUnits="userSpaceOnUse">
<stop stop-color="#E4E5E7"/>
<stop offset="1" stop-color="#E4E5E7" stop-opacity="0.7"/>
</linearGradient>
</defs>
</svg>
