<svg width="120" height="32" viewBox="0 0 120 32" fill="none" xmlns="http://www.w3.org/2000/svg">
<path d="M50.4799 16.86L56.9678 25.5H53.1329L47.1033 17.628V25.5H43.775V8.7H47.1033V16.116L52.8918 8.7H56.7266L50.4799 16.86Z" fill="url(#paint0_linear_22325_96)"/>
<path d="M70.0716 24.012C68.8416 25.236 67.3221 25.836 65.5373 25.836C63.7526 25.836 62.2331 25.236 61.0031 24.012C59.773 22.788 59.1701 21.276 59.1701 19.5C59.1701 17.724 59.773 16.236 61.0031 15.012C62.2331 13.788 63.7526 13.164 65.5373 13.164C67.3221 13.164 68.8416 13.788 70.0716 15.012C71.3017 16.236 71.9287 17.724 71.9287 19.5C71.9287 21.276 71.3017 22.788 70.0716 24.012ZM63.1979 21.876C63.8249 22.5 64.5967 22.812 65.5373 22.812C66.478 22.812 67.2498 22.5 67.8768 21.876C68.5039 21.252 68.8175 20.46 68.8175 19.5C68.8175 18.54 68.5039 17.748 67.8768 17.124C67.2498 16.5 66.478 16.188 65.5373 16.188C64.5967 16.188 63.8249 16.5 63.1979 17.124C62.5949 17.748 62.2814 18.54 62.2814 19.5C62.2814 20.46 62.5949 21.252 63.1979 21.876Z" fill="url(#paint1_linear_22325_96)"/>
<path d="M81.2437 21.564L83.9209 13.5H87.2492L82.8597 25.5C81.6055 28.956 79.5796 30.468 76.4924 30.3V27.42C78.1566 27.444 79.0731 26.748 79.6519 25.116L74.7076 13.5H78.1083L81.2437 21.564Z" fill="url(#paint2_linear_22325_96)"/>
<path d="M102.392 20.772H93.2996C93.7096 22.284 94.8431 23.028 96.7003 23.028C97.8821 23.028 98.7986 22.62 99.4015 21.828L101.91 23.268C100.728 24.972 98.9674 25.836 96.652 25.836C94.6502 25.836 93.0584 25.236 91.8525 24.036C90.6465 22.836 90.0436 21.324 90.0436 19.5C90.0436 17.7 90.6465 16.188 91.8283 14.988C93.0101 13.764 94.5537 13.164 96.4108 13.164C98.1715 13.164 99.6427 13.764 100.776 14.988C101.934 16.212 102.513 17.7 102.513 19.5C102.513 19.908 102.465 20.316 102.392 20.772ZM93.2513 18.372H99.4015C99.0397 16.74 97.8338 15.948 96.4108 15.948C94.7467 15.948 93.6131 16.836 93.2513 18.372Z" fill="url(#paint3_linear_22325_96)"/>
<path d="M114.115 13.164C115.731 13.164 117.13 13.788 118.263 15.012C119.421 16.236 120 17.724 120 19.5C120 21.276 119.421 22.788 118.263 24.012C117.13 25.236 115.731 25.836 114.115 25.836C112.427 25.836 111.124 25.26 110.208 24.084V25.5H107.097V8.7H110.208V14.916C111.124 13.74 112.427 13.164 114.115 13.164ZM111.149 21.948C111.776 22.572 112.572 22.884 113.536 22.884C114.501 22.884 115.297 22.572 115.924 21.948C116.575 21.3 116.889 20.484 116.889 19.5C116.889 18.516 116.575 17.7 115.924 17.076C115.297 16.428 114.501 16.116 113.536 16.116C112.572 16.116 111.776 16.428 111.149 17.076C110.521 17.7 110.208 18.516 110.208 19.5C110.208 20.484 110.521 21.3 111.149 21.948Z" fill="url(#paint4_linear_22325_96)"/>
<path d="M16.2244 7.77773L32.4697 17.0856V9.31826L16.214 0L0 9.3286V17.1063L16.2244 7.77773Z" fill="url(#paint5_linear_22325_96)"/>
<path d="M29.8712 26.4461L32.4697 24.9253V20.1573L16.214 10.8287L0 20.1573V24.9461L2.59843 26.4461L16.214 18.6063L29.8712 26.4461Z" fill="url(#paint6_linear_22325_96)"/>
<path d="M16.2244 29.6315L20.3502 32L27.1273 28.1211L16.214 21.8537L5.3423 28.1211L12.1185 32L16.2244 29.6315Z" fill="url(#paint7_linear_22325_96)"/>
<defs>
<linearGradient id="paint0_linear_22325_96" x1="60.3293" y1="0.0198188" x2="60.3293" y2="40.3985" gradientUnits="userSpaceOnUse">
<stop stop-color="#E4E5E7"/>
<stop offset="1" stop-color="#E4E5E7" stop-opacity="0.7"/>
</linearGradient>
<linearGradient id="paint1_linear_22325_96" x1="60.3293" y1="0.0198188" x2="60.3293" y2="40.3985" gradientUnits="userSpaceOnUse">
<stop stop-color="#E4E5E7"/>
<stop offset="1" stop-color="#E4E5E7" stop-opacity="0.7"/>
</linearGradient>
<linearGradient id="paint2_linear_22325_96" x1="60.3293" y1="0.0198188" x2="60.3293" y2="40.3985" gradientUnits="userSpaceOnUse">
<stop stop-color="#E4E5E7"/>
<stop offset="1" stop-color="#E4E5E7" stop-opacity="0.7"/>
</linearGradient>
<linearGradient id="paint3_linear_22325_96" x1="60.3293" y1="0.0198188" x2="60.3293" y2="40.3985" gradientUnits="userSpaceOnUse">
<stop stop-color="#E4E5E7"/>
<stop offset="1" stop-color="#E4E5E7" stop-opacity="0.7"/>
</linearGradient>
<linearGradient id="paint4_linear_22325_96" x1="60.3293" y1="0.0198188" x2="60.3293" y2="40.3985" gradientUnits="userSpaceOnUse">
<stop stop-color="#E4E5E7"/>
<stop offset="1" stop-color="#E4E5E7" stop-opacity="0.7"/>
</linearGradient>
<linearGradient id="paint5_linear_22325_96" x1="60.3293" y1="0.0198188" x2="60.3293" y2="40.3985" gradientUnits="userSpaceOnUse">
<stop stop-color="#E4E5E7"/>
<stop offset="1" stop-color="#E4E5E7" stop-opacity="0.7"/>
</linearGradient>
<linearGradient id="paint6_linear_22325_96" x1="60.3293" y1="0.0198188" x2="60.3293" y2="40.3985" gradientUnits="userSpaceOnUse">
<stop stop-color="#E4E5E7"/>
<stop offset="1" stop-color="#E4E5E7" stop-opacity="0.7"/>
</linearGradient>
<linearGradient id="paint7_linear_22325_96" x1="60.3293" y1="0.0198188" x2="60.3293" y2="40.3985" gradientUnits="userSpaceOnUse">
<stop stop-color="#E4E5E7"/>
<stop offset="1" stop-color="#E4E5E7" stop-opacity="0.7"/>
</linearGradient>
</defs>
</svg>
