<svg width="107" height="32" viewBox="0 0 107 32" fill="none" xmlns="http://www.w3.org/2000/svg">
<path d="M0.996094 22.5151V7.38502H4.1443V19.9448H11.9723V22.5151H0.996094Z" fill="url(#paint0_linear_21538_205)"/>
<path d="M16.0037 14.8356L13.2915 14.3569C13.5964 13.2886 14.1211 12.4977 14.8656 11.9844C15.6101 11.471 16.7163 11.2144 18.184 11.2144C19.517 11.2144 20.5097 11.3704 21.162 11.6826C21.8144 11.9879 22.2717 12.3798 22.5341 12.8585C22.8035 13.3302 22.9382 14.2008 22.9382 15.4703L22.9063 18.8835C22.9063 19.8547 22.9524 20.5727 23.0446 21.0375C23.1438 21.4953 23.3247 21.9879 23.587 22.5151H20.6302C20.5522 22.3208 20.4565 22.033 20.3431 21.6514C20.2934 21.478 20.258 21.3635 20.2367 21.308C19.7262 21.7936 19.1802 22.1578 18.5988 22.4006C18.0174 22.6434 17.397 22.7648 16.7375 22.7648C15.5747 22.7648 14.6565 22.4561 13.9829 21.8387C13.3163 21.2213 12.9831 20.4409 12.9831 19.4974C12.9831 18.873 13.1355 18.3181 13.4404 17.8325C13.7453 17.3399 14.1708 16.9653 14.7167 16.7086C15.2698 16.445 16.0639 16.2161 17.0992 16.0219C18.496 15.7652 19.4639 15.5258 20.0027 15.3039V15.0125C20.0027 14.4506 19.8609 14.0517 19.5773 13.8158C19.2937 13.573 18.7583 13.4516 17.9713 13.4516C17.4395 13.4516 17.0247 13.5557 16.7269 13.7638C16.4291 13.965 16.188 14.3222 16.0037 14.8356ZM20.0027 17.2081C19.6198 17.333 19.0136 17.4821 18.184 17.6556C17.3544 17.829 16.812 17.999 16.5567 18.1655C16.1667 18.436 15.9718 18.7794 15.9718 19.1956C15.9718 19.6049 16.1277 19.9587 16.4397 20.257C16.7517 20.5553 17.1488 20.7045 17.6309 20.7045C18.1698 20.7045 18.6839 20.531 19.1731 20.1842C19.5348 19.9206 19.7723 19.598 19.8857 19.2164C19.9637 18.9667 20.0027 18.4915 20.0027 17.7908V17.2081Z" fill="url(#paint1_linear_21538_205)"/>
<path d="M35.7335 22.5151H32.7449V16.8751C32.7449 15.6819 32.6811 14.9119 32.5534 14.565C32.4258 14.2112 32.2166 13.9372 31.9259 13.743C31.6423 13.5487 31.2984 13.4516 30.8942 13.4516C30.3766 13.4516 29.9122 13.5904 29.5009 13.8678C29.0897 14.1453 28.8061 14.513 28.6501 14.9709C28.5012 15.4287 28.4267 16.2751 28.4267 17.5099V22.5151H25.4381V11.4641H28.214V13.0874C29.1996 11.8387 30.4404 11.2144 31.9366 11.2144C32.596 11.2144 33.1987 11.3323 33.7446 11.5682C34.2906 11.7971 34.7019 12.0919 34.9784 12.4527C35.262 12.8134 35.457 13.2227 35.5634 13.6805C35.6768 14.1384 35.7335 14.794 35.7335 15.6472V22.5151Z" fill="url(#paint2_linear_21538_205)"/>
<path d="M38.0632 23.2435L41.4773 23.6493C41.534 24.0378 41.6652 24.3049 41.8708 24.4506C42.1545 24.6587 42.6012 24.7627 43.2109 24.7627C43.9909 24.7627 44.5759 24.6483 44.9659 24.4194C45.2282 24.2667 45.4267 24.0205 45.5615 23.6805C45.6536 23.4377 45.6997 22.9903 45.6997 22.3382V20.7253C44.8063 21.9185 43.6789 22.5151 42.3175 22.5151C40.8002 22.5151 39.5983 21.8873 38.712 20.6316C38.0171 19.6396 37.6697 18.4048 37.6697 16.9272C37.6697 15.0749 38.1235 13.6597 39.0311 12.6816C39.9457 11.7034 41.0802 11.2144 42.4345 11.2144C43.8314 11.2144 44.9836 11.8144 45.8912 13.0146V11.4641H48.6884V21.3809C48.6884 22.6851 48.5785 23.6597 48.3587 24.3049C48.1389 24.9501 47.8304 25.4565 47.4334 25.8241C47.0363 26.1918 46.5045 26.4797 45.838 26.6878C45.1786 26.8959 44.3419 27 43.3279 27C41.4135 27 40.0556 26.6774 39.2544 26.0323C38.4532 25.394 38.0526 24.5824 38.0526 23.5973C38.0526 23.5002 38.0561 23.3822 38.0632 23.2435ZM40.7328 16.7607C40.7328 17.9331 40.9632 18.7933 41.4241 19.3413C41.8921 19.8824 42.4664 20.153 43.1471 20.153C43.8775 20.153 44.4943 19.8755 44.9978 19.3205C45.5012 18.7586 45.7529 17.9296 45.7529 16.8335C45.7529 15.6889 45.5118 14.8391 45.0297 14.2841C44.5475 13.7291 43.9377 13.4516 43.2003 13.4516C42.4842 13.4516 41.8921 13.7256 41.4241 14.2737C40.9632 14.8148 40.7328 15.6438 40.7328 16.7607Z" fill="url(#paint3_linear_21538_205)"/>
<path d="M61.2178 16.9063L64.2703 17.8533C63.8023 19.5182 63.0224 20.7565 61.9304 21.5682C60.8456 22.3729 59.4665 22.7752 57.7931 22.7752C55.7226 22.7752 54.0209 22.085 52.6879 20.7045C51.3549 19.317 50.6884 17.4232 50.6884 15.0229C50.6884 12.4839 51.3584 10.5137 52.6985 9.11238C54.0386 7.70413 55.8006 7 57.9845 7C59.8919 7 61.4412 7.55151 62.6324 8.65453C63.3414 9.30663 63.8732 10.2431 64.2278 11.4641L61.1115 12.1925C60.9271 11.4017 60.5407 10.7773 59.9522 10.3195C59.3707 9.8616 58.6617 9.63267 57.825 9.63267C56.6692 9.63267 55.7297 10.0385 55.0065 10.8502C54.2904 11.6618 53.9323 12.9764 53.9323 14.794C53.9323 16.7225 54.2868 18.0961 54.9959 18.9147C55.7049 19.7333 56.6267 20.1426 57.7612 20.1426C58.5979 20.1426 59.3176 19.8824 59.9202 19.3621C60.5229 18.8418 60.9555 18.0232 61.2178 16.9063Z" fill="url(#paint4_linear_21538_205)"/>
<path d="M69.5035 7.26015V12.8689C70.4679 11.7659 71.6201 11.2144 72.9602 11.2144C73.648 11.2144 74.2684 11.3392 74.8215 11.589C75.3745 11.8387 75.7893 12.1578 76.0658 12.5463C76.3495 12.9348 76.5409 13.3649 76.6402 13.8366C76.7465 14.3084 76.7997 15.0402 76.7997 16.0323V22.5151H73.8111V16.6774C73.8111 15.5189 73.7543 14.7836 73.6409 14.4714C73.5274 14.1592 73.3253 13.9129 73.0346 13.7326C72.751 13.5453 72.3929 13.4516 71.9604 13.4516C71.4641 13.4516 71.0209 13.5695 70.6309 13.8054C70.241 14.0413 69.9538 14.3985 69.7694 14.8772C69.5922 15.3489 69.5035 16.0496 69.5035 16.9792V22.5151H66.5149V7.26015H69.5035Z" fill="url(#paint5_linear_21538_205)"/>
<path d="M81.6394 14.8356L78.9273 14.3569C79.2322 13.2886 79.7569 12.4977 80.5014 11.9844C81.2459 11.471 82.352 11.2144 83.8198 11.2144C85.1528 11.2144 86.1455 11.3704 86.7978 11.6826C87.4501 11.9879 87.9075 12.3798 88.1698 12.8585C88.4393 13.3302 88.574 14.2008 88.574 15.4703L88.5421 18.8835C88.5421 19.8547 88.5882 20.5727 88.6804 21.0375C88.7796 21.4953 88.9604 21.9879 89.2228 22.5151H86.266C86.188 22.3208 86.0923 22.033 85.9789 21.6514C85.9292 21.478 85.8938 21.3635 85.8725 21.308C85.362 21.7936 84.816 22.1578 84.2346 22.4006C83.6532 22.6434 83.0327 22.7648 82.3733 22.7648C81.2105 22.7648 80.2922 22.4561 79.6186 21.8387C78.9521 21.2213 78.6189 20.4409 78.6189 19.4974C78.6189 18.873 78.7713 18.3181 79.0762 17.8325C79.3811 17.3399 79.8065 16.9653 80.3525 16.7086C80.9056 16.445 81.6997 16.2161 82.7349 16.0219C84.1318 15.7652 85.0996 15.5258 85.6385 15.3039V15.0125C85.6385 14.4506 85.4967 14.0517 85.2131 13.8158C84.9295 13.573 84.3941 13.4516 83.6071 13.4516C83.0753 13.4516 82.6605 13.5557 82.3627 13.7638C82.0649 13.965 81.8238 14.3222 81.6394 14.8356ZM85.6385 17.2081C85.2556 17.333 84.6494 17.4821 83.8198 17.6556C82.9902 17.829 82.4478 17.999 82.1925 18.1655C81.8025 18.436 81.6075 18.7794 81.6075 19.1956C81.6075 19.6049 81.7635 19.9587 82.0755 20.257C82.3875 20.5553 82.7846 20.7045 83.2667 20.7045C83.8056 20.7045 84.3197 20.531 84.8089 20.1842C85.1705 19.9206 85.4081 19.598 85.5215 19.2164C85.5995 18.9667 85.6385 18.4915 85.6385 17.7908V17.2081Z" fill="url(#paint6_linear_21538_205)"/>
<path d="M91.0951 9.96566V7.26015H94.0838V9.96566H91.0951ZM91.0951 22.5151V11.4641H94.0838V22.5151H91.0951Z" fill="url(#paint7_linear_21538_205)"/>
<path d="M106.996 22.5151H104.007V16.8751C104.007 15.6819 103.944 14.9119 103.816 14.565C103.688 14.2112 103.479 13.9372 103.188 13.743C102.905 13.5487 102.561 13.4516 102.157 13.4516C101.639 13.4516 101.175 13.5904 100.764 13.8678C100.352 14.1453 100.069 14.513 99.9126 14.9709C99.7637 15.4287 99.6893 16.2751 99.6893 17.5099V22.5151H96.7006V11.4641H99.4766V13.0874C100.462 11.8387 101.703 11.2144 103.199 11.2144C103.859 11.2144 104.461 11.3323 105.007 11.5682C105.553 11.7971 105.964 12.0919 106.241 12.4527C106.525 12.8134 106.72 13.2227 106.826 13.6805C106.939 14.1384 106.996 14.794 106.996 15.6472V22.5151Z" fill="url(#paint8_linear_21538_205)"/>
<defs>
<linearGradient id="paint0_linear_21538_205" x1="54.287" y1="7.01239" x2="54.287" y2="32.249" gradientUnits="userSpaceOnUse">
<stop stop-color="#E4E5E7"/>
<stop offset="1" stop-color="#E4E5E7" stop-opacity="0.7"/>
</linearGradient>
<linearGradient id="paint1_linear_21538_205" x1="54.287" y1="7.01239" x2="54.287" y2="32.249" gradientUnits="userSpaceOnUse">
<stop stop-color="#E4E5E7"/>
<stop offset="1" stop-color="#E4E5E7" stop-opacity="0.7"/>
</linearGradient>
<linearGradient id="paint2_linear_21538_205" x1="54.287" y1="7.01239" x2="54.287" y2="32.249" gradientUnits="userSpaceOnUse">
<stop stop-color="#E4E5E7"/>
<stop offset="1" stop-color="#E4E5E7" stop-opacity="0.7"/>
</linearGradient>
<linearGradient id="paint3_linear_21538_205" x1="54.287" y1="7.01239" x2="54.287" y2="32.249" gradientUnits="userSpaceOnUse">
<stop stop-color="#E4E5E7"/>
<stop offset="1" stop-color="#E4E5E7" stop-opacity="0.7"/>
</linearGradient>
<linearGradient id="paint4_linear_21538_205" x1="54.287" y1="7.01239" x2="54.287" y2="32.249" gradientUnits="userSpaceOnUse">
<stop stop-color="#E4E5E7"/>
<stop offset="1" stop-color="#E4E5E7" stop-opacity="0.7"/>
</linearGradient>
<linearGradient id="paint5_linear_21538_205" x1="54.287" y1="7.01239" x2="54.287" y2="32.249" gradientUnits="userSpaceOnUse">
<stop stop-color="#E4E5E7"/>
<stop offset="1" stop-color="#E4E5E7" stop-opacity="0.7"/>
</linearGradient>
<linearGradient id="paint6_linear_21538_205" x1="54.287" y1="7.01239" x2="54.287" y2="32.249" gradientUnits="userSpaceOnUse">
<stop stop-color="#E4E5E7"/>
<stop offset="1" stop-color="#E4E5E7" stop-opacity="0.7"/>
</linearGradient>
<linearGradient id="paint7_linear_21538_205" x1="54.287" y1="7.01239" x2="54.287" y2="32.249" gradientUnits="userSpaceOnUse">
<stop stop-color="#E4E5E7"/>
<stop offset="1" stop-color="#E4E5E7" stop-opacity="0.7"/>
</linearGradient>
<linearGradient id="paint8_linear_21538_205" x1="54.287" y1="7.01239" x2="54.287" y2="32.249" gradientUnits="userSpaceOnUse">
<stop stop-color="#E4E5E7"/>
<stop offset="1" stop-color="#E4E5E7" stop-opacity="0.7"/>
</linearGradient>
</defs>
</svg>
