<svg width="107" height="24" viewBox="0 0 107 24" fill="none" xmlns="http://www.w3.org/2000/svg">
<path d="M0.992188 18.5151V3.38502H4.14039V15.9448H11.9684V18.5151H0.992188Z" fill="url(#paint0_linear_21538_205)"/>
<path d="M15.9998 10.8356L13.2876 10.3569C13.5925 9.28859 14.1172 8.49775 14.8617 7.98439C15.6062 7.47104 16.7124 7.21436 18.1801 7.21436C19.5131 7.21436 20.5058 7.37045 21.1581 7.68262C21.8105 7.98786 22.2678 8.37981 22.5302 8.85848C22.7996 9.33021 22.9343 10.2008 22.9343 11.4703L22.9024 14.8835C22.9024 15.8547 22.9485 16.5727 23.0407 17.0375C23.1399 17.4953 23.3207 17.9879 23.5831 18.5151H20.6263C20.5483 18.3208 20.4526 18.033 20.3392 17.6514C20.2895 17.478 20.2541 17.3635 20.2328 17.308C19.7223 17.7936 19.1763 18.1578 18.5949 18.4006C18.0135 18.6434 17.393 18.7648 16.7336 18.7648C15.5708 18.7648 14.6526 18.4561 13.979 17.8387C13.3124 17.2213 12.9792 16.4409 12.9792 15.4974C12.9792 14.873 13.1316 14.3181 13.4365 13.8325C13.7414 13.3399 14.1669 12.9653 14.7128 12.7086C15.2659 12.445 16.06 12.2161 17.0952 12.0219C18.4921 11.7652 19.4599 11.5258 19.9988 11.3039V11.0125C19.9988 10.4506 19.857 10.0517 19.5734 9.81582C19.2898 9.57301 18.7544 9.45161 17.9674 9.45161C17.4356 9.45161 17.0208 9.55567 16.723 9.76379C16.4252 9.96497 16.1841 10.3222 15.9998 10.8356ZM19.9988 13.2081C19.6159 13.333 19.0097 13.4821 18.1801 13.6556C17.3505 13.829 16.8081 13.999 16.5528 14.1655C16.1628 14.436 15.9678 14.7794 15.9678 15.1956C15.9678 15.6049 16.1238 15.9587 16.4358 16.257C16.7478 16.5553 17.1449 16.7045 17.627 16.7045C18.1659 16.7045 18.68 16.531 19.1692 16.1842C19.5308 15.9206 19.7684 15.598 19.8818 15.2164C19.9598 14.9667 19.9988 14.4915 19.9988 13.7908V13.2081Z" fill="url(#paint1_linear_21538_205)"/>
<path d="M35.7296 18.5151H32.741V12.8751C32.741 11.6819 32.6772 10.9119 32.5495 10.565C32.4219 10.2112 32.2127 9.93722 31.922 9.74298C31.6384 9.54873 31.2945 9.45161 30.8903 9.45161C30.3727 9.45161 29.9083 9.59036 29.497 9.86785C29.0858 10.1453 28.8022 10.513 28.6462 10.9709C28.4973 11.4287 28.4228 12.2751 28.4228 13.5099V18.5151H25.4342V7.4641H28.2101V9.08741C29.1957 7.83871 30.4365 7.21436 31.9326 7.21436C32.5921 7.21436 33.1948 7.33229 33.7407 7.56816C34.2867 7.79709 34.698 8.09192 34.9745 8.45265C35.2581 8.81339 35.4531 9.22268 35.5595 9.68054C35.6729 10.1384 35.7296 10.794 35.7296 11.6472V18.5151Z" fill="url(#paint2_linear_21538_205)"/>
<path d="M38.0593 19.2435L41.4734 19.6493C41.5301 20.0378 41.6613 20.3049 41.8669 20.4506C42.1505 20.6587 42.5973 20.7627 43.207 20.7627C43.987 20.7627 44.572 20.6483 44.9619 20.4194C45.2243 20.2667 45.4228 20.0205 45.5576 19.6805C45.6497 19.4377 45.6958 18.9903 45.6958 18.3382V16.7253C44.8024 17.9185 43.675 18.5151 42.3136 18.5151C40.7963 18.5151 39.5944 17.8873 38.7081 16.6316C38.0132 15.6396 37.6658 14.4048 37.6658 12.9272C37.6658 11.0749 38.1196 9.65973 39.0272 8.68158C39.9418 7.70343 41.0763 7.21436 42.4306 7.21436C43.8275 7.21436 44.9797 7.81443 45.8873 9.01457V7.4641H48.6845V17.3809C48.6845 18.6851 48.5746 19.6597 48.3548 20.3049C48.135 20.9501 47.8265 21.4565 47.4295 21.8241C47.0324 22.1918 46.5006 22.4797 45.8341 22.6878C45.1747 22.8959 44.338 23 43.324 23C41.4096 23 40.0517 22.6774 39.2505 22.0323C38.4493 21.394 38.0487 20.5824 38.0487 19.5973C38.0487 19.5002 38.0522 19.3822 38.0593 19.2435ZM40.7289 12.7607C40.7289 13.9331 40.9593 14.7933 41.4202 15.3413C41.8882 15.8824 42.4625 16.153 43.1432 16.153C43.8736 16.153 44.4904 15.8755 44.9939 15.3205C45.4973 14.7586 45.749 13.9296 45.749 12.8335C45.749 11.6889 45.5079 10.8391 45.0258 10.2841C44.5436 9.7291 43.9338 9.45161 43.1964 9.45161C42.4803 9.45161 41.8882 9.72563 41.4202 10.2737C40.9593 10.8148 40.7289 11.6438 40.7289 12.7607Z" fill="url(#paint3_linear_21538_205)"/>
<path d="M61.2139 12.9063L64.2664 13.8533C63.7984 15.5182 63.0185 16.7565 61.9265 17.5682C60.8417 18.3729 59.4625 18.7752 57.7892 18.7752C55.7187 18.7752 54.017 18.085 52.684 16.7045C51.351 15.317 50.6844 13.4232 50.6844 11.0229C50.6844 8.48387 51.3545 6.5137 52.6946 5.11238C54.0347 3.70413 55.7967 3 57.9806 3C59.888 3 61.4373 3.55151 62.6285 4.65453C63.3375 5.30663 63.8693 6.24315 64.2239 7.4641L61.1076 8.19251C60.9232 7.40167 60.5368 6.77732 59.9482 6.31946C59.3668 5.8616 58.6578 5.63267 57.8211 5.63267C56.6653 5.63267 55.7258 6.0385 55.0026 6.85016C54.2864 7.66181 53.9284 8.97641 53.9284 10.794C53.9284 12.7225 54.2829 14.0961 54.992 14.9147C55.701 15.7333 56.6228 16.1426 57.7573 16.1426C58.594 16.1426 59.3136 15.8824 59.9163 15.3621C60.519 14.8418 60.9516 14.0232 61.2139 12.9063Z" fill="url(#paint4_linear_21538_205)"/>
<path d="M69.4996 3.26015V8.86889C70.464 7.76587 71.6162 7.21436 72.9563 7.21436C73.6441 7.21436 74.2645 7.33923 74.8176 7.58897C75.3706 7.83871 75.7854 8.15782 76.0619 8.54631C76.3456 8.93479 76.537 9.3649 76.6363 9.83663C76.7426 10.3084 76.7958 11.0402 76.7958 12.0323V18.5151H73.8071V12.6774C73.8071 11.5189 73.7504 10.7836 73.637 10.4714C73.5235 10.1592 73.3214 9.91294 73.0307 9.73257C72.7471 9.54527 72.389 9.45161 71.9565 9.45161C71.4602 9.45161 71.017 9.56955 70.627 9.80541C70.2371 10.0413 69.9499 10.3985 69.7655 10.8772C69.5883 11.3489 69.4996 12.0496 69.4996 12.9792V18.5151H66.511V3.26015H69.4996Z" fill="url(#paint5_linear_21538_205)"/>
<path d="M81.6355 10.8356L78.9234 10.3569C79.2283 9.28859 79.753 8.49775 80.4975 7.98439C81.242 7.47104 82.3481 7.21436 83.8159 7.21436C85.1489 7.21436 86.1416 7.37045 86.7939 7.68262C87.4462 7.98786 87.9036 8.37981 88.1659 8.85848C88.4354 9.33021 88.5701 10.2008 88.5701 11.4703L88.5382 14.8835C88.5382 15.8547 88.5843 16.5727 88.6765 17.0375C88.7757 17.4953 88.9565 17.9879 89.2189 18.5151H86.2621C86.1841 18.3208 86.0884 18.033 85.975 17.6514C85.9253 17.478 85.8899 17.3635 85.8686 17.308C85.3581 17.7936 84.8121 18.1578 84.2307 18.4006C83.6493 18.6434 83.0288 18.7648 82.3694 18.7648C81.2066 18.7648 80.2883 18.4561 79.6147 17.8387C78.9482 17.2213 78.615 16.4409 78.615 15.4974C78.615 14.873 78.7674 14.3181 79.0723 13.8325C79.3772 13.3399 79.8026 12.9653 80.3486 12.7086C80.9017 12.445 81.6958 12.2161 82.731 12.0219C84.1279 11.7652 85.0957 11.5258 85.6346 11.3039V11.0125C85.6346 10.4506 85.4928 10.0517 85.2092 9.81582C84.9256 9.57301 84.3902 9.45161 83.6032 9.45161C83.0714 9.45161 82.6566 9.55567 82.3588 9.76379C82.061 9.96497 81.8199 10.3222 81.6355 10.8356ZM85.6346 13.2081C85.2517 13.333 84.6455 13.4821 83.8159 13.6556C82.9863 13.829 82.4439 13.999 82.1886 14.1655C81.7986 14.436 81.6036 14.7794 81.6036 15.1956C81.6036 15.6049 81.7596 15.9587 82.0716 16.257C82.3836 16.5553 82.7807 16.7045 83.2628 16.7045C83.8017 16.7045 84.3158 16.531 84.805 16.1842C85.1666 15.9206 85.4042 15.598 85.5176 15.2164C85.5956 14.9667 85.6346 14.4915 85.6346 13.7908V13.2081Z" fill="url(#paint6_linear_21538_205)"/>
<path d="M91.0912 5.96566V3.26015H94.0799V5.96566H91.0912ZM91.0912 18.5151V7.4641H94.0799V18.5151H91.0912Z" fill="url(#paint7_linear_21538_205)"/>
<path d="M106.992 18.5151H104.004V12.8751C104.004 11.6819 103.94 10.9119 103.812 10.565C103.684 10.2112 103.475 9.93722 103.185 9.74298C102.901 9.54873 102.557 9.45161 102.153 9.45161C101.635 9.45161 101.171 9.59036 100.76 9.86785C100.348 10.1453 100.065 10.513 99.9087 10.9709C99.7598 11.4287 99.6854 12.2751 99.6854 13.5099V18.5151H96.6967V7.4641H99.4727V9.08741C100.458 7.83871 101.699 7.21436 103.195 7.21436C103.855 7.21436 104.457 7.33229 105.003 7.56816C105.549 7.79709 105.961 8.09192 106.237 8.45265C106.521 8.81339 106.716 9.22268 106.822 9.68054C106.935 10.1384 106.992 10.794 106.992 11.6472V18.5151Z" fill="url(#paint8_linear_21538_205)"/>
<defs>
<linearGradient id="paint0_linear_21538_205" x1="54.2831" y1="3.01239" x2="54.2831" y2="28.249" gradientUnits="userSpaceOnUse">
<stop stop-color="#E4E5E7"/>
<stop offset="1" stop-color="#E4E5E7" stop-opacity="0.7"/>
</linearGradient>
<linearGradient id="paint1_linear_21538_205" x1="54.2831" y1="3.01239" x2="54.2831" y2="28.249" gradientUnits="userSpaceOnUse">
<stop stop-color="#E4E5E7"/>
<stop offset="1" stop-color="#E4E5E7" stop-opacity="0.7"/>
</linearGradient>
<linearGradient id="paint2_linear_21538_205" x1="54.2831" y1="3.01239" x2="54.2831" y2="28.249" gradientUnits="userSpaceOnUse">
<stop stop-color="#E4E5E7"/>
<stop offset="1" stop-color="#E4E5E7" stop-opacity="0.7"/>
</linearGradient>
<linearGradient id="paint3_linear_21538_205" x1="54.2831" y1="3.01239" x2="54.2831" y2="28.249" gradientUnits="userSpaceOnUse">
<stop stop-color="#E4E5E7"/>
<stop offset="1" stop-color="#E4E5E7" stop-opacity="0.7"/>
</linearGradient>
<linearGradient id="paint4_linear_21538_205" x1="54.2831" y1="3.01239" x2="54.2831" y2="28.249" gradientUnits="userSpaceOnUse">
<stop stop-color="#E4E5E7"/>
<stop offset="1" stop-color="#E4E5E7" stop-opacity="0.7"/>
</linearGradient>
<linearGradient id="paint5_linear_21538_205" x1="54.2831" y1="3.01239" x2="54.2831" y2="28.249" gradientUnits="userSpaceOnUse">
<stop stop-color="#E4E5E7"/>
<stop offset="1" stop-color="#E4E5E7" stop-opacity="0.7"/>
</linearGradient>
<linearGradient id="paint6_linear_21538_205" x1="54.2831" y1="3.01239" x2="54.2831" y2="28.249" gradientUnits="userSpaceOnUse">
<stop stop-color="#E4E5E7"/>
<stop offset="1" stop-color="#E4E5E7" stop-opacity="0.7"/>
</linearGradient>
<linearGradient id="paint7_linear_21538_205" x1="54.2831" y1="3.01239" x2="54.2831" y2="28.249" gradientUnits="userSpaceOnUse">
<stop stop-color="#E4E5E7"/>
<stop offset="1" stop-color="#E4E5E7" stop-opacity="0.7"/>
</linearGradient>
<linearGradient id="paint8_linear_21538_205" x1="54.2831" y1="3.01239" x2="54.2831" y2="28.249" gradientUnits="userSpaceOnUse">
<stop stop-color="#E4E5E7"/>
<stop offset="1" stop-color="#E4E5E7" stop-opacity="0.7"/>
</linearGradient>
</defs>
</svg>
