<svg width="101" height="32" viewBox="0 0 101 32" fill="none" xmlns="http://www.w3.org/2000/svg">
<path fill-rule="evenodd" clip-rule="evenodd" d="M5.86127 2C3.1743 2 0.996094 4.16138 0.996094 6.82759V25.1724C0.996094 27.8386 3.1743 30 5.86127 30H14.278C16.6963 30 18.6566 28.0548 18.6566 25.6552V17.3994L23.9903 24.2076C25.6964 26.3853 29.2141 25.1882 29.2141 22.4298V6.82759C29.2141 4.16138 27.0359 2 24.3489 2H5.86127ZM25.3223 6.48064C25.3143 6.11881 25.2496 5.86207 24.8354 5.86207H5.86127C5.32387 5.86207 4.88823 6.29434 4.88823 6.82759V25.1724C4.88823 25.7057 5.32387 26.1379 5.86127 26.1379H14.4239C14.6926 26.1379 14.7645 25.9218 14.7645 25.6552V14.5842C14.7645 11.8259 18.2822 10.6287 19.9883 12.8064L25.322 19.6146V6.82759C25.322 6.80046 25.3221 6.7736 25.3223 6.74704L25.3223 6.48064ZM76.6994 22.6155C81.4763 22.6155 84.5803 20.2884 84.5803 16.233C84.5803 12.1777 81.4763 9.85059 76.6994 9.85059C71.9227 9.85059 68.8359 12.1777 68.8359 16.233C68.8359 20.2884 71.9227 22.6155 76.6994 22.6155ZM76.6994 19.775C74.0437 19.775 72.4055 18.4917 72.4055 16.233C72.4055 13.9744 74.061 12.691 76.6994 12.691C79.355 12.691 80.9935 13.9744 80.9935 16.233C80.9935 18.4917 79.355 19.775 76.6994 19.775ZM97.6038 10.2441V17.5677L90.4474 10.2441H86.7227V22.2219H90.1198V14.3508L97.9142 22.2219H101.001V10.2441H97.6038ZM58.2591 17.4308V19.5526H67.6745V22.2219H54.793V10.2441H67.4848V12.9135H58.2591V14.8813H65.8638V17.4308H58.2591ZM48.5648 10.2441V17.5677L41.4084 10.2441H37.6836V22.2219H41.0807V14.3508L48.8752 22.2219H51.9619V10.2441H48.5648Z" fill="url(#paint0_linear_21538_2526)"/>
<defs>
<linearGradient id="paint0_linear_21538_2526" x1="51.273" y1="2.01734" x2="51.273" y2="37.3486" gradientUnits="userSpaceOnUse">
<stop stop-color="#E4E5E7"/>
<stop offset="1" stop-color="#E4E5E7" stop-opacity="0.7"/>
</linearGradient>
</defs>
</svg>
