<svg width="101" height="28" viewBox="0 0 101 28" fill="none" xmlns="http://www.w3.org/2000/svg">
<path fill-rule="evenodd" clip-rule="evenodd" d="M5.85736 0C3.1704 0 0.992188 2.16138 0.992188 4.82759V23.1724C0.992188 25.8386 3.1704 28 5.85736 28H14.2741C16.6924 28 18.6527 26.0548 18.6527 23.6552V15.3994L23.9864 22.2076C25.6925 24.3853 29.2102 23.1882 29.2102 20.4298V4.82759C29.2102 2.16138 27.032 0 24.345 0H5.85736ZM25.3184 4.48064C25.3104 4.11881 25.2457 3.86207 24.8315 3.86207H5.85736C5.31996 3.86207 4.88433 4.29434 4.88433 4.82759V23.1724C4.88433 23.7057 5.31996 24.1379 5.85736 24.1379H14.42C14.6887 24.1379 14.7606 23.9218 14.7606 23.6552V12.5842C14.7606 9.8259 18.2783 8.62874 19.9844 10.8064L25.3181 17.6146V4.82759C25.3181 4.80046 25.3182 4.7736 25.3184 4.74704L25.3184 4.48064ZM76.6954 20.6155C81.4724 20.6155 84.5764 18.2884 84.5764 14.233C84.5764 10.1777 81.4724 7.85059 76.6954 7.85059C71.9188 7.85059 68.832 10.1777 68.832 14.233C68.832 18.2884 71.9188 20.6155 76.6954 20.6155ZM76.6954 17.775C74.0398 17.775 72.4016 16.4917 72.4016 14.233C72.4016 11.9744 74.0571 10.691 76.6954 10.691C79.3511 10.691 80.9896 11.9744 80.9896 14.233C80.9896 16.4917 79.3511 17.775 76.6954 17.775ZM97.5999 8.24414V15.5677L90.4435 8.24414H86.7188V20.2219H90.1159V12.3508L97.9103 20.2219H100.997V8.24414H97.5999ZM58.2552 15.4308V17.5526H67.6706V20.2219H54.7891V8.24414H67.4809V10.9135H58.2552V12.8813H65.8599V15.4308H58.2552ZM48.5609 8.24414V15.5677L41.4045 8.24414H37.6797V20.2219H41.0768V12.3508L48.8713 20.2219H51.958V8.24414H48.5609Z" fill="url(#paint0_linear_21538_2526)"/>
<defs>
<linearGradient id="paint0_linear_21538_2526" x1="51.2691" y1="0.0173415" x2="51.2691" y2="35.3486" gradientUnits="userSpaceOnUse">
<stop stop-color="#E4E5E7"/>
<stop offset="1" stop-color="#E4E5E7" stop-opacity="0.7"/>
</linearGradient>
</defs>
</svg>
