<svg width="112" height="32" viewBox="0 0 112 32" fill="none" xmlns="http://www.w3.org/2000/svg">
<g clip-path="url(#clip0_21538_150)">
<path fill-rule="evenodd" clip-rule="evenodd" d="M19.9417 15.2604V12.2525C19.9417 12.1236 20.0277 12.0376 20.1136 11.9947C22.1762 11.3931 23.5942 9.33051 23.2075 7.01012C22.9067 5.24834 21.4887 3.78735 19.7269 3.48655C16.9338 2.97091 14.4845 5.11943 14.4845 7.82655V11.0064C14.4845 11.1353 14.3556 11.2642 14.2267 11.2642H11.3047C11.1758 11.2642 11.0469 11.1353 11.0469 11.0064V8.0414C11.0469 3.78735 14.3556 0.177843 18.5667 0.00596238C23.0356 -0.165919 26.6881 3.40061 26.6881 7.82655C26.6881 11.6939 23.895 14.9166 20.1995 15.5182C20.1136 15.5612 19.9417 15.4323 19.9417 15.2604ZM7.73832 15.6476H9.75792C9.88683 15.6476 10.0157 15.5187 10.0157 15.3898V14.4874C10.0157 13.2412 8.98446 12.21 7.73832 12.21C7.43753 12.21 7.13674 12.2529 6.83595 12.2959C6.70703 12.2959 6.62109 12.4248 6.62109 12.5537V15.5187C6.62109 15.6906 6.79297 15.8195 6.92189 15.7765C7.17971 15.6906 7.4805 15.6476 7.73832 15.6476ZM11.348 16.7214H14.27C14.3989 16.7214 14.5278 16.8503 14.5278 16.9792V18.8269C14.5278 22.3075 11.9926 25.3584 8.55496 25.7451C4.47278 26.2178 0.992188 22.995 0.992188 18.9988C0.992188 16.1198 2.79694 13.6705 5.33219 12.6822C5.50407 12.6392 5.67595 12.7681 5.67595 12.94V16.2917C5.67595 16.3776 5.63298 16.4206 5.59001 16.4635C4.7306 17.237 4.21496 18.3972 4.51575 19.6863C4.77357 20.9754 5.80486 22.0067 7.09397 22.2645C9.24248 22.6942 11.0902 21.0614 11.0902 18.9988V16.9792C11.0902 16.8073 11.1761 16.7214 11.348 16.7214ZM15.7863 12.211C15.7948 12.2103 15.8035 12.21 15.8125 12.21H18.7345C18.8634 12.21 18.9923 12.3389 18.9923 12.4678V15.3898C18.9923 15.5187 18.8634 15.6476 18.7345 15.6476H18.6954H18.6915H18.6525C16.9336 15.6476 15.5156 14.2725 15.5156 12.5108V12.4678C15.5156 12.3389 15.6445 12.21 15.7734 12.21L15.7863 12.211ZM11.3047 12.21H14.2267C14.3986 12.21 14.4845 12.3389 14.4845 12.4678V15.3898C14.4845 15.5187 14.3556 15.6476 14.2267 15.6476H11.3047C11.1758 15.6476 11.0469 15.5187 11.0469 15.3898V12.4678C11.0469 12.3389 11.1758 12.21 11.3047 12.21ZM38.1761 13.2296C37.8324 12.628 37.3167 12.1123 36.6722 11.7686C36.0276 11.4248 35.2971 11.2529 34.4377 11.2529H28.9805C28.9375 11.2529 28.8945 11.2529 28.7656 11.2959C28.7227 11.3389 28.6797 11.4248 28.6797 11.4678V24.5737C28.6797 24.6597 28.7227 24.7026 28.7656 24.7456C28.8086 24.7886 28.8516 24.8315 28.9375 24.8315H31.2149C31.3009 24.8315 31.3438 24.7886 31.3868 24.7456C31.4298 24.7026 31.4728 24.6597 31.4728 24.5737V19.6321C31.4728 19.5892 31.4728 19.5462 31.5587 19.5462H34.3088C35.1682 19.5462 35.9417 19.3743 36.5862 19.0306C37.2308 18.6868 37.7464 18.1711 38.1331 17.5696C38.5199 16.968 38.6918 16.2375 38.6918 15.421C38.6918 14.6046 38.5199 13.8741 38.1761 13.2296ZM36.0276 15.507C36.0276 16.0656 35.8128 16.4953 35.469 16.8391C35.1252 17.1828 34.6526 17.3547 34.051 17.3547H31.6017C31.5587 17.3547 31.5157 17.3547 31.5157 17.2688V13.7022C31.5157 13.6593 31.5157 13.6163 31.6017 13.6163H34.051C34.6096 13.6163 35.0823 13.7882 35.469 14.1319C35.8557 14.4757 36.0276 14.9484 36.0276 15.507ZM41.3555 24.1019C40.5821 23.5433 40.0664 22.7698 39.7656 21.7815C39.5938 21.1799 39.5078 20.5354 39.5078 19.8049C39.5078 19.0314 39.5938 18.3439 39.7656 17.7423C40.0664 16.7969 40.5821 16.0235 41.3555 15.5078C42.129 14.9492 43.0743 14.6914 44.1486 14.6914C45.2229 14.6914 46.1252 14.9492 46.8557 15.5078C47.5862 16.0235 48.1448 16.7969 48.4456 17.7423C48.6605 18.3868 48.7464 19.0744 48.7464 19.7619C48.7464 20.4494 48.6605 21.094 48.4886 21.6956C48.1878 22.6839 47.6722 23.5003 46.8987 24.0589C46.1252 24.6175 45.2229 24.9183 44.1056 24.9183C42.9884 24.9183 42.129 24.6605 41.3555 24.1019ZM45.2229 22.2112C45.5237 21.9534 45.7385 21.6096 45.8674 21.1369L45.8674 21.1369C45.9534 20.7072 46.0393 20.2775 46.0393 19.8049C46.0393 19.2463 45.9963 18.8166 45.8674 18.4298C45.7385 18.0001 45.5237 17.6564 45.2229 17.3985C44.9221 17.1407 44.5783 17.0118 44.1486 17.0118C43.7189 17.0118 43.3322 17.1407 43.0743 17.3985C42.7736 17.6564 42.5587 18.0001 42.4298 18.4298C42.3439 18.7306 42.2579 19.2033 42.2579 19.8049C42.2579 20.4065 42.3009 20.8362 42.3868 21.1369C42.5157 21.6096 42.7306 21.9534 43.0314 22.2112C43.3322 22.469 43.7189 22.5979 44.1486 22.5979C44.5783 22.5979 44.9221 22.469 45.2229 22.2112ZM50.4648 24.5737C50.4648 24.6597 50.5078 24.7026 50.5508 24.7456C50.5773 24.7722 50.6039 24.7823 50.6406 24.7963C50.6633 24.805 50.6898 24.8151 50.7227 24.8315H53.0001C53.086 24.8315 53.129 24.7886 53.172 24.7456C53.2149 24.7026 53.2579 24.6597 53.2579 24.5737V11.5108C53.2579 11.4248 53.2149 11.3818 53.172 11.3389C53.129 11.2959 53.0431 11.2529 53.0001 11.2529H50.7227C50.6367 11.2529 50.5938 11.2959 50.5508 11.3389C50.5078 11.3818 50.4648 11.4678 50.4648 11.5108V24.5737ZM55.1524 28.5708C55.1094 28.5278 55.1094 28.4849 55.1094 28.3989V26.6371C55.1094 26.5512 55.1524 26.5082 55.1953 26.4653C55.2383 26.4223 55.2813 26.3793 55.3672 26.3793C55.9258 26.3793 56.3555 26.3363 56.6563 26.2504C56.9571 26.1645 57.2149 26.0356 57.4298 25.8207C57.6017 25.6059 57.7735 25.2621 57.8595 24.8754V24.7464L54.6367 15.1211V15.0352C54.6367 14.9063 54.7227 14.8633 54.8516 14.8633H57.2579C57.3868 14.8633 57.4728 14.9492 57.5157 15.0352L59.1486 21.3088C59.1486 21.3518 59.1916 21.3518 59.1916 21.3518C59.1916 21.3518 59.2345 21.3518 59.2345 21.3088L60.8674 15.0352C60.9104 14.9063 60.9963 14.8633 61.1252 14.8633H63.4886C63.5745 14.8633 63.6175 14.9062 63.6605 14.9492C63.7034 14.9922 63.7034 15.0781 63.6605 15.1641L60.3088 25.2191C59.965 26.1645 59.6642 26.852 59.3205 27.3247C58.9767 27.7973 58.504 28.1411 57.9025 28.3559C57.3009 28.5708 56.4415 28.6997 55.3242 28.6997H55.1953C55.1953 28.6782 55.1846 28.6567 55.1738 28.6353C55.1631 28.6138 55.1524 28.5923 55.1524 28.5708ZM65.418 23.0268C65.8477 23.6284 66.4493 24.101 67.2227 24.4448C67.9962 24.7886 68.8986 24.9605 69.9728 25.0034C71.4768 25.0034 72.68 24.6167 73.5823 23.9292C74.4847 23.1987 74.9144 22.2533 74.9144 21.0502C74.9144 20.2337 74.6996 19.5892 74.2699 19.0735C73.8402 18.5579 73.3675 18.1711 72.8519 17.9133C72.3362 17.6555 71.6057 17.3547 70.7033 17.011C69.8439 16.7531 69.2423 16.4953 68.8556 16.3234C68.4689 16.1515 68.1681 15.9367 67.9532 15.7218C67.7384 15.507 67.6524 15.2492 67.6524 14.9054C67.6524 14.4327 67.8243 14.089 68.1681 13.8312C68.5118 13.5733 68.9845 13.4444 69.5861 13.4444C70.3596 13.4444 71.0041 13.6163 71.4338 14.003C71.9065 14.3898 72.1214 14.8195 72.1214 15.3781V15.55C72.1214 15.6359 72.1643 15.6789 72.2073 15.7218C72.2503 15.7648 72.2932 15.8078 72.3792 15.8078H74.6136C74.6996 15.8078 74.7425 15.7648 74.7855 15.7218C74.8285 15.6789 74.8715 15.6359 74.8715 15.55V15.2492C74.8715 14.3898 74.6566 13.7022 74.2269 13.0577C73.7972 12.4131 73.1956 11.9405 72.4221 11.5967C71.6487 11.2529 70.7893 11.0811 69.801 11.0811C68.8986 11.0811 68.0392 11.2529 67.3517 11.5537C66.6212 11.8545 66.0625 12.2842 65.6758 12.8858C65.2891 13.4444 65.0742 14.1319 65.0742 14.9054C65.0742 15.6789 65.2891 16.3664 65.6758 16.882C66.0625 17.3977 66.5782 17.8274 67.1798 18.1282C67.7814 18.429 68.5118 18.7298 69.3713 19.0306L69.5002 19.0807C70.2071 19.3555 70.7227 19.5559 71.0471 19.7181C71.4338 19.89 71.6917 20.0618 71.9065 20.2767C72.1214 20.4915 72.2073 20.7494 72.2073 21.0502C72.2073 21.4799 72.0354 21.8236 71.6917 22.1244C71.3479 22.4252 70.8322 22.5541 70.1447 22.5541C69.3283 22.5541 68.6837 22.3822 68.2111 22.0385C67.7384 21.6947 67.4806 21.265 67.4806 20.7494V20.4486C67.4806 20.3626 67.4376 20.3197 67.3946 20.2767C67.3517 20.2337 67.2657 20.1908 67.2227 20.1908H65.0313C64.9453 20.1908 64.9023 20.2337 64.8594 20.2767C64.8164 20.3197 64.7734 20.4056 64.7734 20.4486V20.8783C64.7734 21.6947 64.9883 22.4252 65.418 23.0268ZM78.4454 24.1878C77.6719 23.6722 77.1563 22.9847 76.8125 22.0393C76.5977 21.3948 76.4688 20.6213 76.4688 19.7619C76.4688 18.9025 76.5977 18.172 76.8125 17.5274C77.1133 16.668 77.6719 15.9805 78.4024 15.4649C79.1759 14.9492 80.0783 14.6914 81.1095 14.6914C82.1408 14.6914 83.0432 14.9492 83.8167 15.4649C84.5901 15.9805 85.1058 16.6251 85.3636 17.3985C85.3815 17.4613 85.3995 17.5222 85.4166 17.5804C85.4817 17.8013 85.5355 17.984 85.5355 18.0861V18.129C85.5355 18.2579 85.4495 18.3009 85.3636 18.3439L83.1291 18.6876H83.0862C82.9573 18.6876 82.9143 18.6447 82.8713 18.4728L82.8284 18.172C82.7424 17.8282 82.5276 17.5704 82.2268 17.3556C81.926 17.1407 81.5392 17.0118 81.1095 17.0118C80.6798 17.0118 80.3361 17.0977 80.0783 17.3126C79.7775 17.5274 79.6056 17.7853 79.4767 18.172C79.3478 18.5587 79.2618 19.0744 79.2618 19.7619C79.2618 20.4494 79.3478 20.9651 79.4767 21.3518C79.6056 21.7385 79.7775 22.0393 80.0783 22.2542C80.3791 22.469 80.7228 22.5979 81.1525 22.5979C81.5392 22.5979 81.883 22.512 82.2268 22.2971C82.5276 22.0823 82.7424 21.7815 82.8713 21.4377V21.3088V21.2659C82.8713 21.094 82.9573 21.051 83.1291 21.051L85.3636 21.3948C85.4925 21.4377 85.5355 21.4807 85.5355 21.6096C85.5355 21.6956 85.4925 21.9104 85.4066 22.1682C85.1487 23.0276 84.5901 23.7152 83.8167 24.1878C83.0432 24.6605 82.1408 24.9183 81.1095 24.9183C80.0783 24.9613 79.1759 24.7035 78.4454 24.1878ZM95.1097 16.323C94.7229 15.8074 94.2073 15.4207 93.5627 15.1199C92.9182 14.8621 92.1447 14.6902 91.1994 14.7331C90.4259 14.7331 89.6954 14.8621 89.0938 15.1199C88.4922 15.3777 87.9766 15.7215 87.5899 16.1512C87.2031 16.5809 86.9883 17.0535 86.9453 17.6122C86.9453 17.6981 86.9883 17.7411 87.1602 17.784L89.4806 18.0848C89.6095 18.1278 89.6954 18.0419 89.7384 17.9129C89.8243 17.6551 89.9962 17.4403 90.254 17.3114C90.5118 17.1824 90.8556 17.0965 91.2423 17.0965C91.758 17.0965 92.1447 17.1824 92.4025 17.4403C92.6604 17.6551 92.7893 17.9989 92.7893 18.4286V18.8583C92.7893 18.9013 92.7463 18.9442 92.7033 18.9442H90.7267C89.4376 18.9442 88.4493 19.2021 87.7617 19.7607C87.0742 20.3193 86.7305 21.0927 86.7305 22.0811C86.7305 23.0264 87.0742 23.7569 87.6758 24.2296C88.3204 24.7022 89.1368 24.9601 90.1251 24.9601C91.3283 24.9601 92.1877 24.6163 92.7463 23.8858C92.7893 23.8428 92.7893 23.8428 92.8322 23.8428C92.857 23.8675 92.8675 23.878 92.8719 23.8907C92.8752 23.9 92.8752 23.9105 92.8752 23.9288V24.5733C92.8752 24.6593 92.9182 24.7022 92.9612 24.7452C93.0041 24.7882 93.0471 24.8312 93.133 24.8312H95.4105C95.4964 24.8312 95.5394 24.7882 95.5823 24.7452C95.6253 24.7022 95.6683 24.6593 95.6683 24.5733V17.9989C95.6683 17.3973 95.4964 16.8387 95.1097 16.323ZM92.9182 21.3076C92.9182 21.7803 92.7463 22.167 92.3596 22.4678C91.9728 22.7686 91.5002 22.9405 90.9845 22.9405C90.5548 22.9405 90.254 22.8545 89.9962 22.6397C89.7384 22.4248 89.6095 22.167 89.6095 21.8232C89.6095 21.3935 89.7384 21.0927 90.0821 20.8779C90.4259 20.663 90.8986 20.5341 91.4572 20.5341H92.8322C92.8752 20.5341 92.9182 20.5771 92.9182 20.6201V21.3076ZM97.8555 24.7456C97.8125 24.7026 97.7695 24.6597 97.7695 24.5737V11.5108C97.7695 11.4678 97.8125 11.3818 97.8555 11.3389C97.8984 11.2959 97.9414 11.2529 98.0274 11.2529H100.305C100.348 11.2529 100.434 11.2959 100.477 11.3389C100.52 11.3818 100.563 11.4248 100.563 11.5108V24.5737C100.563 24.6597 100.52 24.7026 100.477 24.7456C100.434 24.7886 100.391 24.8315 100.305 24.8315H98.0274C97.9945 24.8151 97.968 24.805 97.9453 24.7963C97.9086 24.7823 97.882 24.7722 97.8555 24.7456ZM111.219 20.6643C111.391 20.6643 111.477 20.6213 111.477 20.4494C111.52 19.8478 111.477 19.2892 111.391 18.7736C111.219 17.5274 110.746 16.4962 109.973 15.7657C109.199 15.0352 108.168 14.6484 106.879 14.6484C105.891 14.6484 104.988 14.9063 104.258 15.4649C103.527 16.0235 103.012 16.754 102.711 17.6564C102.496 18.215 102.41 18.8595 102.41 19.547C102.41 20.5783 102.539 21.4377 102.797 22.0823C103.098 22.9847 103.656 23.6722 104.43 24.1878C105.16 24.7035 106.106 24.9613 107.223 24.9613C107.996 24.9613 108.727 24.8324 109.414 24.5316C110.059 24.2308 110.617 23.8011 111.047 23.2855C111.064 23.2526 111.08 23.2261 111.094 23.2034C111.117 23.1667 111.133 23.1401 111.133 23.1136C111.133 23.087 111.117 23.0605 111.094 23.0238C111.08 23.0011 111.064 22.9745 111.047 22.9417L109.672 21.5667C109.629 21.5237 109.586 21.4807 109.543 21.4807C109.5 21.4807 109.414 21.5237 109.371 21.6096C108.899 22.2542 108.254 22.5979 107.438 22.5979C106.406 22.5979 105.719 22.2542 105.375 21.5237C105.289 21.2659 105.203 21.008 105.16 20.7502C105.16 20.7072 105.16 20.6643 105.246 20.6643H111.219ZM105.16 18.7736C105.203 18.5587 105.246 18.3439 105.289 18.172C105.547 17.4415 106.063 17.0548 106.922 17.0118C107.352 17.0118 107.696 17.0977 107.996 17.3126C108.297 17.5274 108.469 17.8282 108.598 18.215C108.598 18.215 108.598 18.3869 108.684 18.7736C108.684 18.8166 108.684 18.8595 108.598 18.8595H105.246C105.203 18.8595 105.16 18.8595 105.16 18.7736Z" fill="url(#paint0_linear_21538_150)"/>
</g>
<defs>
<linearGradient id="paint0_linear_21538_150" x1="56.5462" y1="0.0177748" x2="56.5462" y2="36.232" gradientUnits="userSpaceOnUse">
<stop stop-color="#E4E5E7"/>
<stop offset="1" stop-color="#E4E5E7" stop-opacity="0.7"/>
</linearGradient>
<clipPath id="clip0_21538_150">
<rect width="111" height="32" fill="white" transform="translate(0.996094)"/>
</clipPath>
</defs>
</svg>
