<svg width="111" height="32" viewBox="0 0 111 32" fill="none" xmlns="http://www.w3.org/2000/svg">
<g clip-path="url(#clip0_21538_150)">
<path fill-rule="evenodd" clip-rule="evenodd" d="M18.9456 15.2604V12.2525C18.9456 12.1236 19.0316 12.0376 19.1175 11.9947C21.1801 11.3931 22.5981 9.33051 22.2114 7.01012C21.9106 5.24834 20.4926 3.78735 18.7308 3.48655C15.9377 2.97091 13.4884 5.11943 13.4884 7.82655V11.0064C13.4884 11.1353 13.3595 11.2642 13.2306 11.2642H10.3086C10.1797 11.2642 10.0508 11.1353 10.0508 11.0064V8.0414C10.0508 3.78735 13.3595 0.177843 17.5706 0.00596238C22.0395 -0.165919 25.692 3.40061 25.692 7.82655C25.692 11.6939 22.8989 14.9166 19.2034 15.5182C19.1175 15.5612 18.9456 15.4323 18.9456 15.2604ZM6.74223 15.6476H8.76183C8.89074 15.6476 9.01965 15.5187 9.01965 15.3898V14.4874C9.01965 13.2412 7.98837 12.21 6.74223 12.21C6.44144 12.21 6.14064 12.2529 5.83985 12.2959C5.71094 12.2959 5.625 12.4248 5.625 12.5537V15.5187C5.625 15.6906 5.79688 15.8195 5.92579 15.7765C6.18361 15.6906 6.48441 15.6476 6.74223 15.6476ZM10.3519 16.7214H13.2739C13.4028 16.7214 13.5317 16.8503 13.5317 16.9792V18.8269C13.5317 22.3075 10.9965 25.3584 7.55886 25.7451C3.47669 26.2178 -0.00390625 22.995 -0.00390625 18.9988C-0.00390625 16.1198 1.80085 13.6705 4.33609 12.6822C4.50797 12.6392 4.67985 12.7681 4.67985 12.94V16.2917C4.67985 16.3776 4.63688 16.4206 4.59391 16.4635C3.73451 17.237 3.21886 18.3972 3.51966 19.6863C3.77748 20.9754 4.80876 22.0067 6.09787 22.2645C8.24639 22.6942 10.0941 21.0614 10.0941 18.9988V16.9792C10.0941 16.8073 10.18 16.7214 10.3519 16.7214ZM14.7902 12.211C14.7987 12.2103 14.8074 12.21 14.8164 12.21H17.7384C17.8673 12.21 17.9962 12.3389 17.9962 12.4678V15.3898C17.9962 15.5187 17.8673 15.6476 17.7384 15.6476H17.6993H17.6954H17.6564C15.9375 15.6476 14.5195 14.2725 14.5195 12.5108V12.4678C14.5195 12.3389 14.6484 12.21 14.7774 12.21L14.7902 12.211ZM10.3086 12.21H13.2306C13.4025 12.21 13.4884 12.3389 13.4884 12.4678V15.3898C13.4884 15.5187 13.3595 15.6476 13.2306 15.6476H10.3086C10.1797 15.6476 10.0508 15.5187 10.0508 15.3898V12.4678C10.0508 12.3389 10.1797 12.21 10.3086 12.21ZM37.18 13.2296C36.8363 12.628 36.3206 12.1123 35.6761 11.7686C35.0315 11.4248 34.301 11.2529 33.4416 11.2529H27.9844C27.9414 11.2529 27.8984 11.2529 27.7695 11.2959C27.7266 11.3389 27.6836 11.4248 27.6836 11.4678V24.5737C27.6836 24.6597 27.7266 24.7026 27.7695 24.7456C27.8125 24.7886 27.8555 24.8315 27.9414 24.8315H30.2188C30.3048 24.8315 30.3478 24.7886 30.3907 24.7456C30.4337 24.7026 30.4767 24.6597 30.4767 24.5737V19.6321C30.4767 19.5892 30.4767 19.5462 30.5626 19.5462H33.3127C34.1721 19.5462 34.9456 19.3743 35.5901 19.0306C36.2347 18.6868 36.7503 18.1711 37.1371 17.5696C37.5238 16.968 37.6957 16.2375 37.6957 15.421C37.6957 14.6046 37.5238 13.8741 37.18 13.2296ZM35.0315 15.507C35.0315 16.0656 34.8167 16.4953 34.4729 16.8391C34.1291 17.1828 33.6565 17.3547 33.0549 17.3547H30.6056C30.5626 17.3547 30.5196 17.3547 30.5196 17.2688V13.7022C30.5196 13.6593 30.5196 13.6163 30.6056 13.6163H33.0549C33.6135 13.6163 34.0862 13.7882 34.4729 14.1319C34.8596 14.4757 35.0315 14.9484 35.0315 15.507ZM40.3594 24.1019C39.586 23.5433 39.0703 22.7698 38.7695 21.7815C38.5977 21.1799 38.5117 20.5354 38.5117 19.8049C38.5117 19.0314 38.5977 18.3439 38.7695 17.7423C39.0703 16.7969 39.586 16.0235 40.3594 15.5078C41.1329 14.9492 42.0783 14.6914 43.1525 14.6914C44.2268 14.6914 45.1291 14.9492 45.8596 15.5078C46.5901 16.0235 47.1487 16.7969 47.4495 17.7423C47.6644 18.3868 47.7503 19.0744 47.7503 19.7619C47.7503 20.4494 47.6644 21.094 47.4925 21.6956C47.1917 22.6839 46.6761 23.5003 45.9026 24.0589C45.1291 24.6175 44.2268 24.9183 43.1095 24.9183C41.9923 24.9183 41.1329 24.6605 40.3594 24.1019ZM44.2268 22.2112C44.5276 21.9534 44.7424 21.6096 44.8713 21.1369L44.8713 21.1369C44.9573 20.7072 45.0432 20.2775 45.0432 19.8049C45.0432 19.2463 45.0002 18.8166 44.8713 18.4298C44.7424 18.0001 44.5276 17.6564 44.2268 17.3985C43.926 17.1407 43.5822 17.0118 43.1525 17.0118C42.7228 17.0118 42.3361 17.1407 42.0783 17.3985C41.7775 17.6564 41.5626 18.0001 41.4337 18.4298C41.3478 18.7306 41.2618 19.2033 41.2618 19.8049C41.2618 20.4065 41.3048 20.8362 41.3907 21.1369C41.5196 21.6096 41.7345 21.9534 42.0353 22.2112C42.3361 22.469 42.7228 22.5979 43.1525 22.5979C43.5822 22.5979 43.926 22.469 44.2268 22.2112ZM49.4688 24.5737C49.4688 24.6597 49.5117 24.7026 49.5547 24.7456C49.5812 24.7722 49.6078 24.7823 49.6445 24.7963C49.6672 24.805 49.6937 24.8151 49.7266 24.8315H52.004C52.0899 24.8315 52.1329 24.7886 52.1759 24.7456C52.2188 24.7026 52.2618 24.6597 52.2618 24.5737V11.5108C52.2618 11.4248 52.2188 11.3818 52.1759 11.3389C52.1329 11.2959 52.047 11.2529 52.004 11.2529H49.7266C49.6406 11.2529 49.5977 11.2959 49.5547 11.3389C49.5117 11.3818 49.4688 11.4678 49.4688 11.5108V24.5737ZM54.1563 28.5708C54.1133 28.5278 54.1133 28.4849 54.1133 28.3989V26.6371C54.1133 26.5512 54.1563 26.5082 54.1992 26.4653C54.2422 26.4223 54.2852 26.3793 54.3711 26.3793C54.9297 26.3793 55.3594 26.3363 55.6602 26.2504C55.961 26.1645 56.2188 26.0356 56.4337 25.8207C56.6056 25.6059 56.7775 25.2621 56.8634 24.8754V24.7464L53.6406 15.1211V15.0352C53.6406 14.9063 53.7266 14.8633 53.8555 14.8633H56.2618C56.3907 14.8633 56.4767 14.9492 56.5196 15.0352L58.1525 21.3088C58.1525 21.3518 58.1955 21.3518 58.1955 21.3518C58.1955 21.3518 58.2384 21.3518 58.2384 21.3088L59.8713 15.0352C59.9143 14.9063 60.0002 14.8633 60.1291 14.8633H62.4925C62.5784 14.8633 62.6214 14.9062 62.6644 14.9492C62.7073 14.9922 62.7073 15.0781 62.6644 15.1641L59.3127 25.2191C58.9689 26.1645 58.6681 26.852 58.3244 27.3247C57.9806 27.7973 57.5079 28.1411 56.9064 28.3559C56.3048 28.5708 55.4454 28.6997 54.3281 28.6997H54.1992C54.1992 28.6782 54.1885 28.6567 54.1778 28.6353C54.167 28.6138 54.1563 28.5923 54.1563 28.5708ZM64.4219 23.0268C64.8516 23.6284 65.4532 24.101 66.2266 24.4448C67.0001 24.7886 67.9025 24.9605 68.9768 25.0034C70.4807 25.0034 71.6839 24.6167 72.5863 23.9292C73.4886 23.1987 73.9183 22.2533 73.9183 21.0502C73.9183 20.2337 73.7035 19.5892 73.2738 19.0735C72.8441 18.5579 72.3714 18.1711 71.8558 17.9133C71.3401 17.6555 70.6096 17.3547 69.7072 17.011C68.8478 16.7531 68.2463 16.4953 67.8595 16.3234C67.4728 16.1515 67.172 15.9367 66.9571 15.7218C66.7423 15.507 66.6563 15.2492 66.6563 14.9054C66.6563 14.4327 66.8282 14.089 67.172 13.8312C67.5158 13.5733 67.9884 13.4444 68.59 13.4444C69.3635 13.4444 70.008 13.6163 70.4377 14.003C70.9104 14.3898 71.1253 14.8195 71.1253 15.3781V15.55C71.1253 15.6359 71.1682 15.6789 71.2112 15.7218C71.2542 15.7648 71.2971 15.8078 71.3831 15.8078H73.6175C73.7035 15.8078 73.7465 15.7648 73.7894 15.7218C73.8324 15.6789 73.8754 15.6359 73.8754 15.55V15.2492C73.8754 14.3898 73.6605 13.7022 73.2308 13.0577C72.8011 12.4131 72.1995 11.9405 71.4261 11.5967C70.6526 11.2529 69.7932 11.0811 68.8049 11.0811C67.9025 11.0811 67.0431 11.2529 66.3556 11.5537C65.6251 11.8545 65.0665 12.2842 64.6797 12.8858C64.293 13.4444 64.0781 14.1319 64.0781 14.9054C64.0781 15.6789 64.293 16.3664 64.6797 16.882C65.0665 17.3977 65.5821 17.8274 66.1837 18.1282C66.7853 18.429 67.5158 18.7298 68.3752 19.0306L68.5041 19.0807C69.211 19.3555 69.7267 19.5559 70.051 19.7181C70.4377 19.89 70.6956 20.0618 70.9104 20.2767C71.1253 20.4915 71.2112 20.7494 71.2112 21.0502C71.2112 21.4799 71.0393 21.8236 70.6956 22.1244C70.3518 22.4252 69.8362 22.5541 69.1486 22.5541C68.3322 22.5541 67.6876 22.3822 67.215 22.0385C66.7423 21.6947 66.4845 21.265 66.4845 20.7494V20.4486C66.4845 20.3626 66.4415 20.3197 66.3985 20.2767C66.3556 20.2337 66.2696 20.1908 66.2266 20.1908H64.0352C63.9492 20.1908 63.9063 20.2337 63.8633 20.2767C63.8203 20.3197 63.7773 20.4056 63.7773 20.4486V20.8783C63.7773 21.6947 63.9922 22.4252 64.4219 23.0268ZM77.4493 24.1878C76.6758 23.6722 76.1602 22.9847 75.8164 22.0393C75.6016 21.3948 75.4727 20.6213 75.4727 19.7619C75.4727 18.9025 75.6016 18.172 75.8164 17.5274C76.1172 16.668 76.6758 15.9805 77.4063 15.4649C78.1798 14.9492 79.0822 14.6914 80.1134 14.6914C81.1447 14.6914 82.0471 14.9492 82.8206 15.4649C83.594 15.9805 84.1097 16.6251 84.3675 17.3985C84.3854 17.4613 84.4034 17.5222 84.4205 17.5804C84.4856 17.8013 84.5394 17.984 84.5394 18.0861V18.129C84.5394 18.2579 84.4534 18.3009 84.3675 18.3439L82.133 18.6876H82.0901C81.9612 18.6876 81.9182 18.6447 81.8752 18.4728L81.8323 18.172C81.7463 17.8282 81.5315 17.5704 81.2307 17.3556C80.9299 17.1407 80.5432 17.0118 80.1134 17.0118C79.6837 17.0118 79.34 17.0977 79.0822 17.3126C78.7814 17.5274 78.6095 17.7853 78.4806 18.172C78.3517 18.5587 78.2657 19.0744 78.2657 19.7619C78.2657 20.4494 78.3517 20.9651 78.4806 21.3518C78.6095 21.7385 78.7814 22.0393 79.0822 22.2542C79.383 22.469 79.7267 22.5979 80.1564 22.5979C80.5432 22.5979 80.8869 22.512 81.2307 22.2971C81.5315 22.0823 81.7463 21.7815 81.8752 21.4377V21.3088V21.2659C81.8752 21.094 81.9612 21.051 82.133 21.051L84.3675 21.3948C84.4964 21.4377 84.5394 21.4807 84.5394 21.6096C84.5394 21.6956 84.4964 21.9104 84.4105 22.1682C84.1526 23.0276 83.594 23.7152 82.8206 24.1878C82.0471 24.6605 81.1447 24.9183 80.1134 24.9183C79.0822 24.9613 78.1798 24.7035 77.4493 24.1878ZM94.1136 16.323C93.7268 15.8074 93.2112 15.4207 92.5666 15.1199C91.9221 14.8621 91.1486 14.6902 90.2033 14.7331C89.4298 14.7331 88.6993 14.8621 88.0977 15.1199C87.4962 15.3777 86.9805 15.7215 86.5938 16.1512C86.207 16.5809 85.9922 17.0535 85.9492 17.6122C85.9492 17.6981 85.9922 17.7411 86.1641 17.784L88.4845 18.0848C88.6134 18.1278 88.6993 18.0419 88.7423 17.9129C88.8282 17.6551 89.0001 17.4403 89.2579 17.3114C89.5158 17.1824 89.8595 17.0965 90.2463 17.0965C90.7619 17.0965 91.1486 17.1824 91.4064 17.4403C91.6643 17.6551 91.7932 17.9989 91.7932 18.4286V18.8583C91.7932 18.9013 91.7502 18.9442 91.7072 18.9442H89.7306C88.4415 18.9442 87.4532 19.2021 86.7657 19.7607C86.0781 20.3193 85.7344 21.0927 85.7344 22.0811C85.7344 23.0264 86.0781 23.7569 86.6797 24.2296C87.3243 24.7022 88.1407 24.9601 89.129 24.9601C90.3322 24.9601 91.1916 24.6163 91.7502 23.8858C91.7932 23.8428 91.7932 23.8428 91.8362 23.8428C91.8609 23.8675 91.8714 23.878 91.8758 23.8907C91.8791 23.9 91.8791 23.9105 91.8791 23.9288V24.5733C91.8791 24.6593 91.9221 24.7022 91.9651 24.7452C92.008 24.7882 92.051 24.8312 92.1369 24.8312H94.4144C94.5003 24.8312 94.5433 24.7882 94.5863 24.7452C94.6292 24.7022 94.6722 24.6593 94.6722 24.5733V17.9989C94.6722 17.3973 94.5003 16.8387 94.1136 16.323ZM91.9221 21.3076C91.9221 21.7803 91.7502 22.167 91.3635 22.4678C90.9767 22.7686 90.5041 22.9405 89.9884 22.9405C89.5587 22.9405 89.2579 22.8545 89.0001 22.6397C88.7423 22.4248 88.6134 22.167 88.6134 21.8232C88.6134 21.3935 88.7423 21.0927 89.0861 20.8779C89.4298 20.663 89.9025 20.5341 90.4611 20.5341H91.8362C91.8791 20.5341 91.9221 20.5771 91.9221 20.6201V21.3076ZM96.8594 24.7456C96.8164 24.7026 96.7734 24.6597 96.7734 24.5737V11.5108C96.7734 11.4678 96.8164 11.3818 96.8594 11.3389C96.9023 11.2959 96.9453 11.2529 97.0313 11.2529H99.3087C99.3517 11.2529 99.4376 11.2959 99.4806 11.3389C99.5235 11.3818 99.5665 11.4248 99.5665 11.5108V24.5737C99.5665 24.6597 99.5235 24.7026 99.4806 24.7456C99.4376 24.7886 99.3946 24.8315 99.3087 24.8315H97.0313C96.9984 24.8151 96.9719 24.805 96.9492 24.7963C96.9125 24.7823 96.8859 24.7722 96.8594 24.7456ZM110.223 20.6643C110.395 20.6643 110.481 20.6213 110.481 20.4494C110.524 19.8478 110.481 19.2892 110.395 18.7736C110.223 17.5274 109.75 16.4962 108.977 15.7657C108.203 15.0352 107.172 14.6484 105.883 14.6484C104.895 14.6484 103.992 14.9063 103.262 15.4649C102.531 16.0235 102.016 16.754 101.715 17.6564C101.5 18.215 101.414 18.8595 101.414 19.547C101.414 20.5783 101.543 21.4377 101.801 22.0823C102.102 22.9847 102.66 23.6722 103.434 24.1878C104.164 24.7035 105.11 24.9613 106.227 24.9613C107 24.9613 107.731 24.8324 108.418 24.5316C109.063 24.2308 109.621 23.8011 110.051 23.2855C110.067 23.2526 110.084 23.2261 110.098 23.2034C110.121 23.1667 110.137 23.1401 110.137 23.1136C110.137 23.087 110.121 23.0605 110.098 23.0238C110.084 23.0011 110.067 22.9745 110.051 22.9417L108.676 21.5667C108.633 21.5237 108.59 21.4807 108.547 21.4807C108.504 21.4807 108.418 21.5237 108.375 21.6096C107.903 22.2542 107.258 22.5979 106.442 22.5979C105.41 22.5979 104.723 22.2542 104.379 21.5237C104.293 21.2659 104.207 21.008 104.164 20.7502C104.164 20.7072 104.164 20.6643 104.25 20.6643H110.223ZM104.164 18.7736C104.207 18.5587 104.25 18.3439 104.293 18.172C104.551 17.4415 105.067 17.0548 105.926 17.0118C106.356 17.0118 106.699 17.0977 107 17.3126C107.301 17.5274 107.473 17.8282 107.602 18.215C107.602 18.215 107.602 18.3869 107.688 18.7736C107.688 18.8166 107.688 18.8595 107.602 18.8595H104.25C104.207 18.8595 104.164 18.8595 104.164 18.7736Z" fill="url(#paint0_linear_21538_150)"/>
</g>
<defs>
<linearGradient id="paint0_linear_21538_150" x1="55.5501" y1="0.0177748" x2="55.5501" y2="36.232" gradientUnits="userSpaceOnUse">
<stop stop-color="#E4E5E7"/>
<stop offset="1" stop-color="#E4E5E7" stop-opacity="0.7"/>
</linearGradient>
<clipPath id="clip0_21538_150">
<rect width="111" height="32" fill="white"/>
</clipPath>
</defs>
</svg>
