<svg width="95" height="32" viewBox="0 0 95 32" fill="none" xmlns="http://www.w3.org/2000/svg">
<path fill-rule="evenodd" clip-rule="evenodd" d="M0.221284 21.3648C-0.0696218 20.899 -0.0740166 20.3058 0.209954 19.8355L10.902 2.13236C11.4967 1.14772 12.9327 1.23382 13.409 2.28266L23.1767 23.7897C23.5391 24.5877 23.1219 25.5266 22.2927 25.7792L7.09834 30.406C6.487 30.5921 5.8283 30.3427 5.48658 29.7955L0.221284 21.3648ZM12.1356 7.30862C12.2386 6.78783 12.9416 6.71273 13.1493 7.20033L19.8869 23.0253C20.0137 23.3232 19.8558 23.6668 19.5494 23.7596L9.0513 26.9406C8.66543 27.0575 8.29578 26.7153 8.37507 26.3144L12.1356 7.30862ZM51.189 23.6467H54.1739V12.5412H51.189V23.6467ZM51.0619 9.67062C51.0619 8.6843 51.6038 8.19079 52.6867 8.19079C53.7694 8.19079 54.3112 8.6843 54.3112 9.67062C54.3112 10.141 54.1758 10.5068 53.9051 10.7685C53.6343 11.0301 53.2282 11.1606 52.6867 11.1606C51.6038 11.1606 51.0619 10.6639 51.0619 9.67062ZM92.0137 18.5016L90.8588 18.5412C89.9912 18.5679 89.3453 18.7271 88.9213 19.0182C88.4969 19.3098 88.2852 19.7531 88.2852 20.3494C88.2852 21.2034 88.7679 21.6307 89.7334 21.6307C90.4248 21.6307 90.978 21.4289 91.392 21.0246C91.8063 20.6209 92.0137 20.0845 92.0137 19.4153V18.5016ZM92.8945 23.6471L92.3171 22.1371H92.2387C91.7362 22.7797 91.2192 23.2252 90.6874 23.4735C90.156 23.7218 89.4628 23.8456 88.6082 23.8456C87.5574 23.8456 86.7309 23.5411 86.1271 22.9319C85.5239 22.323 85.2222 21.4553 85.2222 20.3293C85.2222 19.1509 85.6282 18.2817 86.4402 17.7219C87.253 17.1624 88.4776 16.8528 90.1152 16.7931L92.0137 16.7335V16.2466C92.0137 15.1211 91.4459 14.5581 90.3108 14.5581C89.4365 14.5581 88.4089 14.826 87.2281 15.3627L86.2398 13.3164C87.499 12.6479 88.8954 12.313 90.4283 12.313C91.8962 12.313 93.0217 12.6378 93.8047 13.2866C94.5874 13.9356 94.9789 14.9226 94.9789 16.2466V23.6471H92.8945ZM76.5069 23.6471H73.522V17.1606C73.522 16.3595 73.3896 15.7587 73.1259 15.3578C72.8613 14.9572 72.4455 14.7566 71.8778 14.7566C71.1148 14.7566 70.5602 15.0417 70.2143 15.611C69.8684 16.1806 69.6957 17.1178 69.6957 18.4223V23.6471H66.7107V12.5415H68.991L69.3922 13.9621H69.5588C69.8521 13.4525 70.2766 13.0534 70.8308 12.7654C71.3854 12.477 72.0216 12.3329 72.7393 12.3329C74.3769 12.3329 75.4857 12.8761 76.0666 13.9621H76.3306C76.6244 13.4455 77.0566 13.0449 77.6276 12.7601C78.1984 12.4753 78.8425 12.3329 79.5602 12.3329C80.7997 12.3329 81.7379 12.656 82.3737 13.3016C83.0098 13.9474 83.3278 14.9821 83.3278 16.4054V23.6471H80.3332V17.1606C80.3332 16.3595 80.2009 15.7587 79.9372 15.3578C79.6725 14.9572 79.2568 14.7566 78.689 14.7566C77.9586 14.7566 77.4122 15.0218 77.0498 15.5514C76.6879 16.0813 76.5069 16.9221 76.5069 18.0743V23.6471ZM63.5128 22.9518C64.2926 22.3558 64.6824 21.4884 64.6824 20.3491C64.6824 19.7999 64.5881 19.326 64.3987 18.9286C64.2093 18.5313 63.9157 18.1805 63.518 17.8756C63.1202 17.5713 62.4937 17.2436 61.6387 16.8925C60.6799 16.5018 60.0586 16.2068 59.7745 16.0083C59.4912 15.8097 59.3488 15.5748 59.3488 15.3029C59.3488 14.8196 59.7894 14.5779 60.6702 14.5779C61.1658 14.5779 61.6519 14.6544 62.1281 14.8062C62.6043 14.9588 63.1167 15.1538 63.6648 15.3924L64.565 13.2072C63.3189 12.6246 62.0369 12.3331 60.7189 12.3331C59.3356 12.3331 58.2676 12.6028 57.5143 13.1426C56.7603 13.6824 56.3836 14.4457 56.3836 15.432C56.3836 16.0083 56.4735 16.4937 56.6531 16.8876C56.8322 17.2815 57.1193 17.6308 57.5143 17.9353C57.9085 18.2401 58.5271 18.5712 59.3685 18.9286C59.9556 19.1804 60.4256 19.4007 60.7776 19.5894C61.1302 19.7782 61.3779 19.9473 61.5217 20.096C61.665 20.245 61.7369 20.4386 61.7369 20.6771C61.7369 21.3127 61.1951 21.6305 60.1121 21.6305C59.5838 21.6305 58.9722 21.541 58.2775 21.3625C57.5824 21.1836 56.9579 20.9619 56.4033 20.6967V23.2001C56.8927 23.4119 57.4179 23.5725 57.979 23.682C58.5402 23.7911 59.2181 23.8458 60.0144 23.8458C61.567 23.8458 62.7331 23.5477 63.5128 22.9518ZM49.6056 12.4223C49.3381 12.3627 49.0023 12.3329 48.5976 12.3329C47.9189 12.3329 47.2911 12.5233 46.714 12.9042C46.1362 13.2852 45.678 13.7868 45.3386 14.4089H45.1921L44.7515 12.5415H42.491V23.6471H45.4759V17.995C45.4759 17.101 45.7416 16.4054 46.273 15.9088C46.8052 15.4121 47.5471 15.1638 48.4998 15.1638C48.8457 15.1638 49.1391 15.1971 49.3807 15.2631L49.6056 12.4223ZM33.7057 15.9584H34.7039C35.6369 15.9584 36.3347 15.7715 36.798 15.3972C37.2614 15.0233 37.4929 14.4783 37.4929 13.7631C37.4929 13.0416 37.2987 12.5084 36.9107 12.164C36.5222 11.8195 35.9141 11.6473 35.0854 11.6473H33.7057V15.9584ZM40.5559 13.654C40.5559 15.217 40.0749 16.4123 39.1122 17.2398C38.1502 18.0679 36.7818 18.4814 35.0074 18.4814H33.7057V23.6469H30.672V9.12439H35.242C36.9777 9.12439 38.297 9.50355 39.2007 10.2619C40.1044 11.0202 40.5559 12.1511 40.5559 13.654Z" fill="url(#paint0_linear_21538_29)"/>
<defs>
<linearGradient id="paint0_linear_21538_29" x1="47.7501" y1="1.46036" x2="47.7501" y2="38.0846" gradientUnits="userSpaceOnUse">
<stop stop-color="#E4E5E7"/>
<stop offset="1" stop-color="#E4E5E7" stop-opacity="0.7"/>
</linearGradient>
</defs>
</svg>
