<svg width="95" height="30" viewBox="0 0 95 30" fill="none" xmlns="http://www.w3.org/2000/svg">
<g clip-path="url(#clip0_21538_29)">
<path fill-rule="evenodd" clip-rule="evenodd" d="M0.221284 20.3648C-0.0696218 19.899 -0.0740166 19.3058 0.209954 18.8355L10.902 1.13236C11.4967 0.147723 12.9327 0.233818 13.409 1.28266L23.1767 22.7897C23.5391 23.5877 23.1219 24.5266 22.2927 24.7792L7.09834 29.406C6.487 29.5921 5.8283 29.3427 5.48658 28.7955L0.221284 20.3648ZM12.1356 6.30862C12.2386 5.78783 12.9416 5.71273 13.1493 6.20033L19.8869 22.0253C20.0137 22.3232 19.8558 22.6668 19.5494 22.7596L9.0513 25.9406C8.66543 26.0575 8.29578 25.7153 8.37507 25.3144L12.1356 6.30862ZM51.189 22.6467H54.1739V11.5412H51.189V22.6467ZM51.0619 8.67062C51.0619 7.6843 51.6038 7.19079 52.6867 7.19079C53.7694 7.19079 54.3112 7.6843 54.3112 8.67062C54.3112 9.14096 54.1758 9.5068 53.9051 9.76847C53.6343 10.0301 53.2282 10.1606 52.6867 10.1606C51.6038 10.1606 51.0619 9.66394 51.0619 8.67062ZM92.0137 17.5016L90.8588 17.5412C89.9912 17.5679 89.3453 17.7271 88.9213 18.0182C88.4969 18.3098 88.2852 18.7531 88.2852 19.3494C88.2852 20.2034 88.7679 20.6307 89.7334 20.6307C90.4248 20.6307 90.978 20.4289 91.392 20.0246C91.8063 19.6209 92.0137 19.0845 92.0137 18.4153V17.5016ZM92.8945 22.6471L92.3171 21.1371H92.2387C91.7362 21.7797 91.2192 22.2252 90.6874 22.4735C90.156 22.7218 89.4628 22.8456 88.6082 22.8456C87.5574 22.8456 86.7309 22.5411 86.1271 21.9319C85.5239 21.323 85.2222 20.4553 85.2222 19.3293C85.2222 18.1509 85.6282 17.2817 86.4402 16.7219C87.253 16.1624 88.4776 15.8528 90.1152 15.7931L92.0137 15.7335V15.2466C92.0137 14.1211 91.4459 13.5581 90.3108 13.5581C89.4365 13.5581 88.4089 13.826 87.2281 14.3627L86.2398 12.3164C87.499 11.6479 88.8954 11.313 90.4283 11.313C91.8962 11.313 93.0217 11.6378 93.8047 12.2866C94.5874 12.9356 94.9789 13.9226 94.9789 15.2466V22.6471H92.8945ZM76.5069 22.6471H73.522V16.1606C73.522 15.3595 73.3896 14.7587 73.1259 14.3578C72.8613 13.9572 72.4455 13.7566 71.8778 13.7566C71.1148 13.7566 70.5602 14.0417 70.2143 14.611C69.8684 15.1806 69.6957 16.1178 69.6957 17.4223V22.6471H66.7107V11.5415H68.991L69.3922 12.9621H69.5588C69.8521 12.4525 70.2766 12.0534 70.8308 11.7654C71.3854 11.477 72.0216 11.3329 72.7393 11.3329C74.3769 11.3329 75.4857 11.8761 76.0666 12.9621H76.3306C76.6244 12.4455 77.0566 12.0449 77.6276 11.7601C78.1984 11.4753 78.8425 11.3329 79.5602 11.3329C80.7997 11.3329 81.7379 11.656 82.3737 12.3016C83.0098 12.9474 83.3278 13.9821 83.3278 15.4054V22.6471H80.3332V16.1606C80.3332 15.3595 80.2009 14.7587 79.9372 14.3578C79.6725 13.9572 79.2568 13.7566 78.689 13.7566C77.9586 13.7566 77.4122 14.0218 77.0498 14.5514C76.6879 15.0813 76.5069 15.9221 76.5069 17.0743V22.6471ZM63.5128 21.9518C64.2926 21.3558 64.6824 20.4884 64.6824 19.3491C64.6824 18.7999 64.5881 18.326 64.3987 17.9286C64.2093 17.5313 63.9157 17.1805 63.518 16.8756C63.1202 16.5713 62.4937 16.2436 61.6387 15.8925C60.6799 15.5018 60.0586 15.2068 59.7745 15.0083C59.4912 14.8097 59.3488 14.5748 59.3488 14.3029C59.3488 13.8196 59.7894 13.5779 60.6702 13.5779C61.1658 13.5779 61.6519 13.6544 62.1281 13.8062C62.6043 13.9588 63.1167 14.1538 63.6648 14.3924L64.565 12.2072C63.3189 11.6246 62.0369 11.3331 60.7189 11.3331C59.3356 11.3331 58.2676 11.6028 57.5143 12.1426C56.7603 12.6824 56.3836 13.4457 56.3836 14.432C56.3836 15.0083 56.4735 15.4937 56.6531 15.8876C56.8322 16.2815 57.1193 16.6308 57.5143 16.9353C57.9085 17.2401 58.5271 17.5712 59.3685 17.9286C59.9556 18.1804 60.4256 18.4007 60.7776 18.5894C61.1302 18.7782 61.3779 18.9473 61.5217 19.096C61.665 19.245 61.7369 19.4386 61.7369 19.6771C61.7369 20.3127 61.1951 20.6305 60.1121 20.6305C59.5838 20.6305 58.9722 20.541 58.2775 20.3625C57.5824 20.1836 56.9579 19.9619 56.4033 19.6967V22.2001C56.8927 22.4119 57.4179 22.5725 57.979 22.682C58.5402 22.7911 59.2181 22.8458 60.0144 22.8458C61.567 22.8458 62.7331 22.5477 63.5128 21.9518ZM49.6056 11.4223C49.3381 11.3627 49.0023 11.3329 48.5976 11.3329C47.9189 11.3329 47.2911 11.5233 46.714 11.9042C46.1362 12.2852 45.678 12.7868 45.3386 13.4089H45.1921L44.7515 11.5415H42.491V22.6471H45.4759V16.995C45.4759 16.101 45.7416 15.4054 46.273 14.9088C46.8052 14.4121 47.5471 14.1638 48.4998 14.1638C48.8457 14.1638 49.1391 14.1971 49.3807 14.2631L49.6056 11.4223ZM33.7057 14.9584H34.7039C35.6369 14.9584 36.3347 14.7715 36.798 14.3972C37.2614 14.0233 37.4929 13.4783 37.4929 12.7631C37.4929 12.0416 37.2987 11.5084 36.9107 11.164C36.5222 10.8195 35.9141 10.6473 35.0854 10.6473H33.7057V14.9584ZM40.5559 12.654C40.5559 14.217 40.0749 15.4123 39.1122 16.2398C38.1502 17.0679 36.7818 17.4814 35.0074 17.4814H33.7057V22.6469H30.672V8.12439H35.242C36.9777 8.12439 38.297 8.50355 39.2007 9.26187C40.1044 10.0202 40.5559 11.1511 40.5559 12.654Z" fill="url(#paint0_linear_21538_29)"/>
</g>
<defs>
<linearGradient id="paint0_linear_21538_29" x1="47.7501" y1="0.460359" x2="47.7501" y2="37.0846" gradientUnits="userSpaceOnUse">
<stop stop-color="#E4E5E7"/>
<stop offset="1" stop-color="#E4E5E7" stop-opacity="0.7"/>
</linearGradient>
<clipPath id="clip0_21538_29">
<rect width="95" height="30" fill="white"/>
</clipPath>
</defs>
</svg>
