<svg width="104" height="32" viewBox="0 0 104 32" fill="none" xmlns="http://www.w3.org/2000/svg">
<path fill-rule="evenodd" clip-rule="evenodd" d="M19.8906 11.6677L12.3873 7.33608L4.88369 11.667L4.88369 20.3309L12.3867 24.6623V24.6619L19.8906 20.3292V11.6677ZM12.3877 30.0173L12.3871 30.0169L12.3867 30.0171V30.0167L0.246894 23.0085V8.98991L0.246094 8.98945L12.3845 1.98145L24.525 8.98929L24.5253 8.98945L24.525 8.98966L24.5232 8.99111L24.525 8.99006V17.6533L24.5267 17.6523V17.6568L29.1618 20.3323V25.6836L29.1626 25.684L29.1618 25.6845V25.6867L29.1596 25.6858L24.525 28.3632L19.8906 25.684V25.6836L12.3878 30.0165L12.3877 30.0173ZM12.3899 10.6572L12.3867 16.0108L17.0259 18.6868L17.0251 13.3332L12.3899 10.6572ZM7.75 18.6877L12.3852 16.0125V16.0117L17.0244 18.6877L12.386 21.3653L7.75 18.6877ZM12.3884 10.6572L7.75 13.3356V18.6876L12.3852 16.0108L12.3884 10.6572ZM51.7982 19.2393C52.0181 20.3328 52.5591 21.3359 53.3519 22.1204C54.1435 22.8988 55.1468 23.426 56.2366 23.6379C57.3265 23.8497 58.4545 23.736 59.4801 23.3108C60.5057 22.8857 61.3833 22.1679 62.0036 21.2471C62.6239 20.3264 62.9593 19.2433 62.9679 18.1332C62.9729 17.3936 62.8305 16.6605 62.5491 15.9766C62.2677 15.2926 61.8529 14.6716 61.3289 14.1496C60.805 13.6277 60.1824 13.2153 59.4973 12.9365C58.8123 12.6578 58.0787 12.5182 57.3391 12.526C56.2238 12.5174 55.1313 12.8416 54.2011 13.4572C53.271 14.0728 52.5456 14.9517 52.1176 15.9817C51.6895 17.0117 51.5783 18.1459 51.7982 19.2393ZM58.6217 21.267C58.2147 21.4321 57.7782 21.5121 57.3391 21.502C56.9001 21.512 56.4636 21.4319 56.0566 21.2668C55.6496 21.1017 55.2808 20.855 54.9727 20.542C54.3565 19.8912 54.0131 19.029 54.0131 18.1328C54.0131 17.2365 54.3565 16.3743 54.9727 15.7236C55.6069 15.1083 56.4556 14.7643 57.3391 14.7643C58.2226 14.7643 59.0714 15.1083 59.7055 15.7236C60.3218 16.3743 60.6652 17.2365 60.6652 18.1328C60.6652 19.029 60.3218 19.8912 59.7055 20.542C59.3976 20.8551 59.0287 21.1019 58.6217 21.267ZM73.9879 12.8004H71.4719L68.5087 20.902L65.5239 12.8004H63.0079L67.1663 23.4604H69.8303L73.9879 12.8004ZM79.8599 21.6276C78.0903 21.6276 76.7895 20.7324 76.4479 19.1124H84.9335C84.9871 18.7948 85.0151 18.474 85.0191 18.1524C85.0494 16.6778 84.5069 15.2488 83.5055 14.166C83.0221 13.6318 82.4288 13.2085 81.7664 12.9252C81.104 12.6418 80.3881 12.5051 79.6679 12.5244C78.0263 12.5244 76.6615 13.0564 75.6167 14.1444C75.0987 14.6683 74.6918 15.2917 74.4207 15.9768C74.1496 16.662 74.0198 17.3949 74.0391 18.1316C74.0167 18.8768 74.147 19.6187 74.422 20.3118C74.697 21.0047 75.111 21.6341 75.6383 22.1612C76.7039 23.206 78.1111 23.7388 79.8383 23.7388C81.9063 23.7388 83.4623 22.9708 84.5071 21.4148L82.6095 20.306C81.9919 21.1796 81.0751 21.6276 79.8599 21.6276ZM79.6471 14.6132C81.1599 14.6132 82.3751 15.5084 82.6951 17.2356H76.4271C76.7471 15.6156 77.9407 14.6132 79.6471 14.6132ZM92.1199 12.8004C90.5207 12.8004 89.4119 13.2692 88.8367 14.5916V12.8004H86.5335V23.4604H88.8367V18.0876C88.8367 17.0004 89.1567 16.2116 89.8175 15.7428C90.4891 15.269 91.2989 15.0318 92.1199 15.0684V12.8004ZM103.466 12.8004H101.014L98.2855 20.5396L95.1087 12.8004H92.5927L97.1127 23.2684L97.0063 23.482C96.4303 24.9532 95.6207 25.6564 94.1703 25.5716V27.7244C96.6223 27.874 98.3495 26.5516 99.3727 23.802L103.466 12.8004ZM48.8727 20.4252L50.9535 21.6268V24.2844L47.2399 22.1412C47.0063 22.3308 46.7583 22.5012 46.4975 22.6508C45.2895 23.363 43.9127 23.7384 42.5103 23.738C41.4918 23.7458 40.4819 23.551 39.5394 23.1649C38.5969 22.7788 37.7406 22.209 37.0203 21.4888C36.3001 20.7685 35.7303 19.9122 35.3442 18.9697C34.9581 18.0272 34.7633 17.0173 34.7711 15.9988C34.7499 14.9789 34.9397 13.9657 35.3286 13.0226C35.7175 12.0796 36.2971 11.2271 37.0311 10.5188C38.1154 9.43832 39.4953 8.7032 40.9969 8.40613C42.4984 8.10906 44.0543 8.26335 45.4683 8.84955C46.8822 9.43574 48.0909 10.4276 48.9418 11.6999C49.7928 12.9722 50.2478 14.4681 50.2495 15.9988C50.2709 17.5828 49.7888 19.1327 48.8727 20.4252ZM40.4759 20.9703C41.1211 21.2341 41.8134 21.3633 42.5103 21.35C43.2831 21.3499 44.0467 21.1826 44.7487 20.8596C44.7487 20.8596 44.8039 20.834 44.8927 20.7868L42.5103 19.4116V16.7516L46.7711 19.2116C47.4518 18.2798 47.8122 17.1526 47.7983 15.9988C47.8158 15.2916 47.6885 14.5884 47.4244 13.9321C47.1602 13.2759 46.7648 12.6806 46.2623 12.1828C45.2611 11.1993 43.9138 10.6483 42.5103 10.6483C41.1069 10.6483 39.7596 11.1993 38.7583 12.1828C37.7734 13.2092 37.2234 14.5766 37.2234 15.9992C37.2234 17.4217 37.7734 18.7891 38.7583 19.8156C39.2462 20.3135 39.8307 20.7064 40.4759 20.9703Z" fill="url(#paint0_linear_21538_12)"/>
<defs>
<linearGradient id="paint0_linear_21538_12" x1="52.1395" y1="1.99881" x2="52.1395" y2="37.3753" gradientUnits="userSpaceOnUse">
<stop stop-color="#E4E5E7"/>
<stop offset="1" stop-color="#E4E5E7" stop-opacity="0.7"/>
</linearGradient>
</defs>
</svg>
