<svg width="115" height="32" viewBox="0 0 115 32" fill="none" xmlns="http://www.w3.org/2000/svg">
<g clip-path="url(#clip0_21538_62)">
<path fill-rule="evenodd" clip-rule="evenodd" d="M1.52159 30.9461C1.61637 30.9822 1.71711 31.0004 1.81866 31C1.98074 30.9937 2.13725 30.9399 2.26828 30.8455C2.39932 30.7512 2.49895 30.6205 2.55452 30.47C2.58994 30.3786 3.43209 28.1566 3.81092 20.3046C4.00714 16.1889 4.01533 14.3813 3.67737 10.3274C3.39666 6.98377 3.89268 5.46662 4.27151 5.29446C5.16816 4.87752 6.18201 5.63609 7.76 6.90844C9.64869 8.44714 12.0034 10.3463 15.2276 9.86741C18.0717 9.44532 18.9388 6.7305 19.6364 4.5467L19.6372 4.54396L19.6432 4.52541C20.1043 3.0878 20.5373 1.7378 21.3215 1.62263C21.7004 1.56613 22.2373 1.7948 22.8396 2.25747C26.8241 5.32675 32.5065 17.4855 33.4686 27.3012C33.4893 27.5142 33.5948 27.7103 33.7619 27.8464C33.929 27.9826 34.144 28.0478 34.3598 28.0275C34.4668 28.0174 34.5709 27.9866 34.6658 27.9367C34.7608 27.8869 34.8448 27.819 34.9132 27.7371C34.9816 27.6551 35.0329 27.5606 35.0642 27.4591C35.0955 27.3575 35.1062 27.2509 35.0956 27.1452C34.1581 17.5985 28.5902 4.64348 23.8534 0.987795C22.8668 0.226527 21.9375 -0.096276 21.0926 0.0247736C19.302 0.293364 18.6907 2.20056 18.0974 4.05132L18.0947 4.05975C17.3343 6.44039 16.7074 8.01943 14.9986 8.27225C12.4913 8.63276 10.6216 7.13441 8.812 5.67374C7.17132 4.35027 5.47613 2.98376 3.60651 3.83111C2.2738 4.44174 1.75325 6.67173 2.07212 10.4646C2.40189 14.427 2.39644 16.1996 2.20294 20.2346C1.84591 27.6536 1.0719 29.8433 1.05283 29.8971C1.01329 29.9963 0.994067 30.1022 0.996263 30.2088C0.998458 30.3154 1.02203 30.4205 1.06562 30.5181C1.1092 30.6157 1.17194 30.7037 1.2502 30.7772C1.32847 30.8507 1.42071 30.9081 1.52159 30.9461ZM90.3281 20.2035C90.3288 20.3016 90.3689 20.3955 90.4394 20.4647C90.5098 20.5339 90.6052 20.5728 90.7047 20.5728H92.0015C92.0506 20.5731 92.0996 20.5637 92.1452 20.5454C92.1915 20.5269 92.233 20.4998 92.2675 20.4655C92.3027 20.4311 92.3304 20.3903 92.3497 20.3453C92.3684 20.3004 92.3781 20.2522 92.3781 20.2035V6.75258C92.3781 6.654 92.3387 6.55945 92.2682 6.48973C92.197 6.42002 92.1017 6.38086 92.0015 6.38086H90.7047C90.6052 6.38151 90.5098 6.42088 90.4394 6.49046C90.3689 6.56003 90.3288 6.6542 90.3281 6.75258V20.2035ZM68.1219 20.8738C69.349 20.8738 70.3548 20.5546 71.1397 19.9162C71.4188 19.6897 71.928 19.8669 71.928 20.2215C71.928 20.3174 71.9667 20.4095 72.0351 20.4774C72.1042 20.5452 72.1975 20.5833 72.2942 20.5833H73.3596C73.4087 20.5837 73.4577 20.5743 73.5033 20.5559C73.5489 20.5376 73.5904 20.5104 73.6256 20.4761C73.6608 20.4417 73.6885 20.401 73.7071 20.356C73.7265 20.311 73.7361 20.2628 73.7361 20.2141V14.1533C73.7361 13.7176 73.7161 13.309 73.6788 12.9224C73.6394 12.5467 73.533 12.1808 73.3644 11.8417C73.0549 11.1684 72.5042 10.6318 71.8182 10.3352C71.043 9.99492 70.2021 9.82685 69.354 9.84282C68.1351 9.84282 67.1574 10.107 66.4209 10.6354C65.7899 11.0811 65.3106 11.7051 65.0466 12.4252C65.0306 12.4708 65.0245 12.5193 65.0286 12.5675C65.0327 12.6156 65.047 12.6624 65.0704 12.7048C65.0939 12.7472 65.1261 12.7843 65.1649 12.8137C65.2038 12.8432 65.2485 12.8642 65.296 12.8757L66.4957 13.24C66.595 13.2665 66.7006 13.2561 66.7926 13.2107C66.8846 13.1653 66.9565 13.0881 66.9945 12.9938C67.1675 12.61 67.4603 12.2908 67.83 12.083C68.2948 11.8242 68.8204 11.6909 69.354 11.6964C70.1856 11.6964 70.7791 11.8704 71.1349 12.2184C71.4713 12.5562 71.6758 13.0012 71.7111 13.4739C71.7215 13.5652 71.6945 13.657 71.6365 13.729C71.5791 13.801 71.4941 13.8474 71.4016 13.8579C70.6533 13.9588 69.9301 14.0671 69.2168 14.1779C68.4914 14.281 67.7734 14.429 67.0669 14.621C66.3474 14.8192 65.7012 15.2185 65.2062 15.7707C64.7686 16.3226 64.5441 17.0102 64.5728 17.7105C64.5671 18.2576 64.7046 18.7968 64.9718 19.2762C65.2592 19.7584 65.6761 20.1529 66.1764 20.416C66.7768 20.7243 67.4451 20.8816 68.1219 20.8738ZM68.4835 19.222C67.8325 19.222 67.3487 19.0743 67.0369 18.7789C66.8904 18.6448 66.7737 18.4821 66.6943 18.3012C66.6149 18.1202 66.5744 17.9249 66.5755 17.7277C66.565 17.5437 66.5966 17.3596 66.6678 17.1892C66.739 17.0188 66.8481 16.8662 66.9871 16.743C67.296 16.4883 67.6516 16.2944 68.0346 16.1719C68.5484 16.028 69.0706 15.9154 69.5984 15.8346C70.0971 15.7559 70.6512 15.6738 71.2592 15.5885C71.3131 15.5799 71.3684 15.5834 71.4209 15.5987C71.4734 15.614 71.5218 15.6407 71.5619 15.6768C71.6026 15.713 71.6344 15.7577 71.6544 15.8076C71.6752 15.8575 71.6841 15.9113 71.6807 15.9651C71.6807 16.0459 71.6729 16.129 71.6649 16.215L71.6649 16.2153L71.6649 16.2156C71.6609 16.2578 71.6569 16.3006 71.6537 16.3442C71.6323 16.62 71.5764 16.8921 71.4865 17.1542C71.3988 17.5157 71.2281 17.8527 70.9877 18.1388C70.7196 18.4712 70.3783 18.7389 69.99 18.9217C69.5168 19.1306 69.0015 19.2299 68.4835 19.2122V19.222ZM52.2284 20.4647C52.1578 20.3955 52.1178 20.3016 52.1172 20.2034V10.5215C52.1172 10.4229 52.1568 10.3283 52.2275 10.2586C52.2981 10.1889 52.3939 10.1497 52.4938 10.1497H53.6187C53.7053 10.1497 53.7884 10.1837 53.8496 10.2442C53.9109 10.3046 53.9454 10.3867 53.9454 10.4722C53.9545 10.544 53.9826 10.612 54.0269 10.6696C54.0711 10.7272 54.13 10.7722 54.1975 10.8002C54.2651 10.8281 54.3389 10.838 54.4116 10.8289C54.4842 10.8197 54.5531 10.7918 54.6113 10.7479C54.8572 10.5619 55.1232 10.4034 55.4045 10.2753C56.0447 9.99488 56.7394 9.85628 57.4397 9.86908C58.0708 9.84994 58.6984 9.96844 59.2778 10.2162C59.745 10.4266 60.1564 10.7409 60.48 11.1344C60.7886 11.501 61.0307 11.9174 61.1958 12.3653C61.3519 12.7868 61.463 13.2233 61.5275 13.6676C61.5811 14.0387 61.6103 14.4128 61.6148 14.7876V20.2034C61.6148 20.2521 61.6051 20.3004 61.5861 20.3454C61.5672 20.3903 61.5394 20.4311 61.5044 20.4654C61.4693 20.4998 61.4278 20.5269 61.3821 20.5453C61.3365 20.5637 61.2876 20.573 61.2382 20.5727H59.9188C59.8695 20.573 59.8205 20.5637 59.7749 20.5453C59.7292 20.5269 59.6877 20.4998 59.6527 20.4654C59.6176 20.4311 59.5899 20.3903 59.5709 20.3454C59.552 20.3004 59.5422 20.2521 59.5422 20.2034V15.4474C59.5403 15.03 59.5045 14.6134 59.435 14.2017C59.3724 13.7856 59.2436 13.3818 59.0534 13.0053C58.8678 12.6426 58.587 12.3357 58.2402 12.1167C57.8269 11.875 57.351 11.7578 56.871 11.7794C56.4036 11.7741 55.9425 11.8869 55.5317 12.1068C55.1006 12.3544 54.7587 12.7288 54.554 13.1777C54.2856 13.7992 54.1612 14.472 54.1898 15.147V20.2034C54.1898 20.3014 54.1504 20.3953 54.0802 20.4645C54.0101 20.5338 53.9149 20.5727 53.8157 20.5727H52.4938C52.3943 20.5727 52.2989 20.5339 52.2284 20.4647ZM47.8391 19.974C47.0758 20.5599 46.0292 20.8529 44.699 20.8529C43.417 20.8529 42.3669 20.5714 41.5488 20.0085C40.8521 19.5336 40.354 18.8249 40.1472 18.0145C40.1352 17.9669 40.1334 17.9174 40.1423 17.8692C40.1511 17.8209 40.1701 17.775 40.1981 17.7345C40.2262 17.6941 40.2626 17.6599 40.3049 17.6344C40.3473 17.6088 40.3947 17.5924 40.444 17.5862L41.8133 17.3769C41.9082 17.3669 42.0038 17.3886 42.0847 17.4386C42.1657 17.4886 42.2273 17.564 42.2597 17.6526C42.4179 18.0449 42.696 18.3787 43.0553 18.6078C43.5858 18.9326 44.2022 19.0946 44.8262 19.073C45.3537 19.1025 45.8773 18.9673 46.3226 18.6866C46.498 18.5698 46.6403 18.4109 46.7363 18.2248C46.8323 18.0388 46.8788 17.8317 46.8713 17.6231C46.8827 17.3944 46.8131 17.1689 46.6743 16.9855C46.4586 16.7607 46.1855 16.5974 45.8837 16.5128C45.4829 16.3652 44.8669 16.1821 44.0355 15.9639C43.2915 15.7831 42.5672 15.5308 41.8731 15.2106C41.4161 15.0155 41.0207 14.7025 40.7283 14.3047C40.4976 13.9093 40.3828 13.4584 40.3966 13.0024C40.383 12.5623 40.4783 12.1256 40.6744 11.7301C40.8704 11.3346 41.1611 10.9922 41.5214 10.7327C42.278 10.16 43.2756 9.87354 44.5144 9.87354C45.5862 9.83395 46.6436 10.1276 47.5373 10.713C48.2027 11.1495 48.6738 11.8206 48.8542 12.5888C48.8638 12.6346 48.864 12.6817 48.8544 12.7275C48.845 12.7732 48.8261 12.8166 48.799 12.8549C48.7719 12.8932 48.7371 12.9256 48.6968 12.9501C48.6566 12.9746 48.6117 12.9907 48.5649 12.9975L47.2056 13.2437C47.1024 13.2568 46.9978 13.2332 46.9106 13.1773C46.8234 13.1214 46.7591 13.0367 46.7292 12.9384C46.6109 12.6141 46.394 12.3338 46.1081 12.1359C45.6465 11.8176 45.0975 11.6459 44.5343 11.6435C44.0157 11.5975 43.4948 11.7047 43.0379 11.9513C42.8627 12.0391 42.7157 12.1734 42.6135 12.3391C42.5113 12.5047 42.4579 12.6952 42.4593 12.8892C42.4537 13.1066 42.5343 13.3176 42.6837 13.4775C42.9325 13.6885 43.2229 13.8461 43.5367 13.9403C43.9573 14.088 44.5834 14.2653 45.4147 14.4721C46.1462 14.6368 46.8553 14.8864 47.5273 15.2155C47.9831 15.4278 48.3694 15.7622 48.6422 16.1805C48.881 16.5981 48.9992 17.0724 48.9839 17.5517C49.0039 18.0165 48.9103 18.4792 48.7111 18.9008C48.5118 19.3224 48.2127 19.6905 47.8391 19.974ZM77.3566 25.0999C77.2862 25.0302 77.2461 24.9356 77.2461 24.837L77.2689 10.5171C77.2682 10.4682 77.2779 10.4198 77.2965 10.3745C77.3159 10.3293 77.3435 10.2882 77.3781 10.2536C77.4133 10.219 77.4548 10.1916 77.501 10.1731C77.5466 10.1545 77.5957 10.1451 77.6454 10.1454H78.8151C78.887 10.1454 78.9561 10.1737 79.0072 10.224C79.0583 10.2744 79.0867 10.3426 79.0867 10.4138C79.0929 10.4682 79.1122 10.5203 79.1447 10.5649C79.1765 10.6096 79.22 10.6453 79.2705 10.6685C79.3202 10.6918 79.3755 10.7019 79.4314 10.6978C79.4867 10.6937 79.5399 10.6756 79.5855 10.6452C79.846 10.4589 80.1286 10.3043 80.4263 10.1849C80.9846 9.9584 81.5836 9.84617 82.1875 9.85499C83.0967 9.8313 83.9921 10.084 84.7514 10.5787C85.4845 11.067 86.0642 11.7496 86.4221 12.5481C86.8269 13.4298 87.028 14.3892 87.0107 15.3569C87.0266 16.3246 86.8255 17.2836 86.4221 18.1658C86.0642 18.9585 85.4928 19.6395 84.7708 20.1352C84.0163 20.6339 83.123 20.8885 82.2144 20.8638C81.6582 20.8719 81.1041 20.7801 80.5811 20.593C80.3738 20.5199 80.1735 20.4293 79.9821 20.3222C79.9158 20.2843 79.8411 20.2634 79.7645 20.2617C79.6878 20.2599 79.6118 20.2772 79.5434 20.312C79.4757 20.347 79.4176 20.3982 79.3748 20.461C79.3319 20.5239 79.3057 20.5964 79.2988 20.6718V24.837C79.2988 24.9356 79.2594 25.0302 79.1889 25.0999C79.1178 25.1696 79.0224 25.2088 78.9222 25.2088H77.6226C77.5231 25.2088 77.4271 25.1696 77.3566 25.0999ZM79.7403 18.0057C80.2025 18.6951 80.9328 19.0397 81.9305 19.0397C82.5129 19.063 83.0857 18.8893 83.5541 18.5473C83.9949 18.2055 84.3279 17.747 84.5145 17.2254C84.7286 16.6238 84.8344 15.9897 84.8261 15.352C84.8344 14.7199 84.7252 14.0916 84.5041 13.4983C84.3169 12.9738 83.9797 12.5138 83.5341 12.1739C83.0483 11.8308 82.4597 11.6575 81.8627 11.6816C80.8982 11.6816 80.1908 12.0229 79.7403 12.7057C79.2898 13.3884 79.0646 14.2705 79.0646 15.352C79.0528 16.4319 79.2781 17.3164 79.7403 18.0057ZM103.773 20.1103C102.936 20.6206 101.969 20.8852 100.985 20.8734C100.013 20.8856 99.0544 20.6427 98.2087 20.1694C97.4259 19.7165 96.7861 19.0576 96.3605 18.2664C95.9093 17.3878 95.6834 16.413 95.7048 15.428C95.6813 14.4069 95.9024 13.3947 96.3508 12.474C96.7585 11.6696 97.39 10.9966 98.1714 10.5341C98.9998 10.0723 99.9415 9.84485 100.892 9.87687C101.861 9.84747 102.816 10.1046 103.636 10.6154C104.408 11.1226 105 11.855 105.329 12.7103C105.682 13.6308 105.839 14.6126 105.793 15.5955C105.791 15.6899 105.751 15.7796 105.682 15.845C105.612 15.9104 105.52 15.9464 105.425 15.945H98.3158C98.264 15.9438 98.2128 15.9537 98.1651 15.9741C98.1175 15.9945 98.0753 16.0248 98.0408 16.063C98.0062 16.1011 97.9807 16.1463 97.9662 16.1952C97.951 16.2441 97.9468 16.2957 97.9544 16.3463C98.0366 17.0298 98.3303 17.6718 98.7946 18.1852C99.0682 18.4546 99.395 18.6644 99.7556 18.801C100.116 18.9375 100.502 18.9978 100.887 18.9779C102.069 18.9779 102.932 18.5175 103.484 17.6018C103.528 17.5233 103.598 17.462 103.683 17.428C103.767 17.394 103.86 17.3893 103.948 17.4147L105.245 17.8184C105.294 17.8332 105.34 17.8584 105.379 17.8924C105.418 17.9263 105.448 17.9681 105.469 18.015C105.489 18.0618 105.499 18.1126 105.498 18.1637C105.497 18.2147 105.485 18.2649 105.462 18.3107C105.074 19.0498 104.49 19.6715 103.773 20.1103ZM103.621 13.9535C103.321 12.4207 102.437 11.6542 100.967 11.6542L100.96 11.6444C100.084 11.6444 99.3984 11.8758 98.8948 12.3484C98.4491 12.7819 98.1472 13.3378 98.027 13.9436C98.0152 13.9953 98.0159 14.0488 98.0284 14.1002C98.0415 14.1515 98.0657 14.1994 98.0995 14.2401C98.1341 14.2809 98.1769 14.3135 98.2253 14.3354C98.2743 14.3575 98.3275 14.3683 98.3807 14.367H103.262C103.314 14.3682 103.367 14.3578 103.415 14.3366C103.464 14.3153 103.507 14.2838 103.54 14.2442C103.575 14.2046 103.6 14.1581 103.614 14.1077C103.627 14.0575 103.63 14.0048 103.621 13.9535ZM114.685 20.6272C114.771 20.6126 114.848 20.5685 114.904 20.5027C114.96 20.4368 114.99 20.3536 114.989 20.2678V19.2954C114.989 19.2415 114.977 19.1883 114.954 19.1393C114.932 19.0902 114.899 19.0465 114.858 19.0109C114.817 18.9753 114.768 18.9487 114.717 18.9328C114.664 18.9169 114.61 18.9122 114.555 18.9188C114.098 18.9677 113.636 18.9677 113.179 18.9188C112.95 18.9013 112.73 18.8297 112.535 18.7102C112.342 18.5906 112.18 18.4265 112.064 18.2319C111.932 17.9923 111.862 17.7243 111.859 17.4516V16.3585V12.1269C111.859 12.0283 111.898 11.9337 111.97 11.864C112.04 11.7943 112.135 11.7551 112.236 11.7551H114.623C114.722 11.7545 114.818 11.7151 114.888 11.6455C114.958 11.576 114.999 11.4818 114.999 11.3834V10.5046C114.999 10.406 114.959 10.3114 114.889 10.2417C114.818 10.172 114.722 10.1328 114.623 10.1328H112.236C112.136 10.1322 112.041 10.0928 111.97 10.0232C111.9 9.95369 111.86 9.8595 111.859 9.76111V7.60708C111.858 7.50869 111.818 7.41457 111.748 7.34496C111.677 7.27542 111.582 7.23604 111.482 7.23535H110.18C110.081 7.23604 109.985 7.27542 109.915 7.34496C109.844 7.41457 109.804 7.50869 109.804 7.60708V9.76111C109.804 9.85929 109.764 9.95348 109.694 10.0231C109.625 10.0928 109.529 10.1322 109.43 10.1328H108.155C108.106 10.1328 108.057 10.1425 108.011 10.1612C107.966 10.1799 107.924 10.2073 107.89 10.2419C107.855 10.2764 107.828 10.3174 107.809 10.3625C107.79 10.4076 107.781 10.4559 107.781 10.5046V11.3834C107.781 11.4816 107.821 11.5758 107.89 11.6454C107.961 11.715 108.056 11.7545 108.155 11.7551H109.43C109.479 11.7551 109.528 11.7648 109.574 11.7835C109.619 11.8022 109.661 11.8296 109.695 11.8642C109.73 11.8987 109.757 11.9397 109.776 11.9848C109.795 12.0298 109.804 12.0782 109.804 12.1269V16.457C109.804 17.0232 109.81 17.5312 109.824 17.9808C109.848 18.4407 109.975 18.8895 110.195 19.2954C110.445 19.7666 110.848 20.1405 111.34 20.3564C111.88 20.5904 112.462 20.7151 113.052 20.7232C113.597 20.743 114.145 20.7108 114.685 20.6272ZM12.0532 25.0845C11.4472 25.6822 10.6254 26.0179 9.76862 26.0179C8.91231 26.0172 8.0913 25.6811 7.48578 25.0835C7.22812 24.8292 7.01844 24.5363 6.86252 24.2187L5.78606 24.6755C5.73576 24.6988 5.68083 24.7108 5.62526 24.7105C5.54532 24.7098 5.46728 24.6864 5.40054 24.643C5.33381 24.5995 5.28123 24.538 5.24915 24.4657C5.22673 24.4165 5.21452 24.3634 5.21323 24.3095C5.21195 24.2556 5.22164 24.202 5.24171 24.1519C5.26178 24.1017 5.29184 24.056 5.33009 24.0175C5.36836 23.979 5.41405 23.9485 5.46446 23.9277L6.60045 23.4465C6.56007 23.245 6.53924 23.0387 6.53906 22.8303C6.53906 22.6004 6.56423 22.373 6.61307 22.1518L5.30367 21.8887C5.25116 21.8784 5.20122 21.858 5.15674 21.8286C5.11226 21.7992 5.0741 21.7615 5.04447 21.7174C5.01483 21.6734 4.9943 21.6241 4.98406 21.5723C4.97383 21.5204 4.97407 21.467 4.98479 21.4153C4.99489 21.3632 5.01536 21.3136 5.045 21.2694C5.07464 21.2252 5.11288 21.1872 5.15749 21.1577C5.2021 21.1282 5.25221 21.1077 5.3049 21.0975C5.35759 21.0871 5.41183 21.0873 5.46446 21.0978L6.89041 21.3844C7.04295 21.0886 7.24274 20.8154 7.48499 20.5763C7.88381 20.1827 8.37616 19.9026 8.91048 19.7573C8.78713 19.6597 8.66872 19.5552 8.5559 19.4438C7.84436 18.7415 7.40629 17.8197 7.30948 16.8396L6.45783 16.9928C6.41768 17.003 6.3766 17.0093 6.33518 17.0116C6.17579 17.0109 6.02169 16.955 5.89969 16.8538C5.77769 16.7525 5.69552 16.6123 5.66746 16.4574C5.65132 16.3709 5.65262 16.2821 5.67128 16.196C5.68994 16.1099 5.7256 16.0284 5.77622 15.9559C5.82684 15.8834 5.89143 15.8216 5.9663 15.7737C6.04117 15.726 6.12484 15.6932 6.21254 15.6773L7.40407 15.4606C7.58697 14.6937 7.98307 13.985 8.55687 13.419C9.36655 12.6203 10.4641 12.171 11.6088 12.1696C12.7535 12.171 13.851 12.6203 14.6608 13.419C14.7992 13.5556 14.9274 13.7005 15.0446 13.8526C15.7007 13.4751 16.4502 13.2728 17.2183 13.2725C17.4524 13.2722 17.6858 13.2908 17.9161 13.3282C18.1246 12.689 18.4849 12.1013 18.9748 11.6176C19.7846 10.8184 20.8825 10.3687 22.0278 10.3673C23.173 10.3687 24.2709 10.8184 25.0807 11.6176C25.2639 11.7985 25.4289 11.9939 25.5747 12.201C25.5862 12.1983 25.5977 12.1959 25.6093 12.1937L26.6368 12.0081C26.8138 11.9767 26.9962 12.0156 27.1443 12.1163C27.2923 12.2171 27.394 12.3716 27.4271 12.5461C27.4598 12.7213 27.4208 12.902 27.3186 13.0487C27.2164 13.1955 27.0594 13.2963 26.8821 13.3289L26.1789 13.4559C26.2893 13.8347 26.347 14.2299 26.3475 14.6309C26.3464 15.4647 26.0983 16.273 25.6432 16.9606C25.8303 16.9273 26.0212 16.9102 26.214 16.91C27.0708 16.91 27.8925 17.2457 28.4986 17.8434L28.5231 17.8679L29.3947 17.3379C29.487 17.2827 29.5977 17.2656 29.7027 17.2904C29.8077 17.315 29.8987 17.3794 29.9561 17.4697C30.0121 17.5613 30.0294 17.6709 30.0045 17.7749C29.9795 17.879 29.9142 17.9694 29.8225 18.0265L29.0187 18.5146C29.2704 18.9483 29.4171 19.4373 29.4423 19.9429L30.3812 19.9929C30.4895 19.9991 30.5908 20.0473 30.6632 20.1268C30.7357 20.2064 30.7734 20.311 30.7683 20.4179C30.7569 20.517 30.7089 20.6086 30.6335 20.675C30.5581 20.7416 30.4605 20.7783 30.3595 20.7783H30.3376L29.3826 20.7275C29.3414 20.9292 29.2804 21.127 29.2001 21.3181C29.0377 21.705 28.7996 22.0565 28.4993 22.3526C28.1992 22.6486 27.8428 22.8834 27.4507 23.0434C27.0585 23.2034 26.6383 23.2856 26.214 23.2852C25.3574 23.2852 24.5359 22.9494 23.9303 22.3516C23.3246 21.7539 22.9844 20.943 22.9844 20.0976C22.9848 19.6087 23.0989 19.1315 23.3122 18.7003C22.9001 18.8274 22.4674 18.894 22.0278 18.8946C20.8825 18.8931 19.7846 18.4435 18.9748 17.6442C18.1723 16.852 17.7176 15.7806 17.7082 14.6611C17.5465 14.6344 17.3827 14.6207 17.2183 14.6202C16.6767 14.6203 16.1487 14.7671 15.69 15.0403C15.8456 15.4834 15.9276 15.9528 15.9285 16.4306C15.9271 17.5609 15.4716 18.6446 14.6617 19.4438C13.9777 20.119 13.0881 20.5446 12.1382 20.6614C12.3989 20.9386 12.6078 21.2598 12.7549 21.6098C12.9173 21.9967 13.001 22.4114 13.001 22.8303C13.0002 23.676 12.6594 24.4868 12.0532 25.0845ZM17.5722 23.5517C16.9039 23.5799 16.2451 23.3884 15.6991 23.0072C15.1531 22.626 14.7507 22.0767 14.5552 21.4454C14.5137 21.3117 14.5265 21.1671 14.5912 21.0426C14.6558 20.918 14.767 20.8232 14.9013 20.7783C15.0375 20.731 15.1873 20.7389 15.3176 20.8004C15.4479 20.862 15.5481 20.972 15.5962 21.1065C15.9533 22.1825 16.8936 22.6506 18.1772 22.4219C19.4608 22.1932 20.1477 21.4158 20.1231 20.2861C20.1231 20.1433 20.1806 20.0065 20.2827 19.9056C20.385 19.8047 20.5237 19.748 20.6682 19.748C20.8127 19.748 20.9514 19.8047 21.0536 19.9056C21.1558 20.0065 21.2133 20.1433 21.2133 20.2861C21.2487 21.9485 20.1585 23.1804 18.3707 23.5006C18.1066 23.541 17.8393 23.5581 17.5722 23.5517ZM9.11571 17.9963C9.23069 18.1744 9.36575 18.3411 9.51944 18.4928C10.0737 19.0398 10.825 19.3478 11.6088 19.3492C12.3926 19.3478 13.1439 19.0398 13.6981 18.4928C14.0692 18.1265 14.3317 17.6731 14.4651 17.1812C14.1567 16.6371 12.929 15.7588 11.7036 15.9518C10.5562 16.1324 9.50978 17.1744 9.11571 17.9963ZM14.4611 15.668C14.3264 15.1813 14.0651 14.7328 13.6972 14.3701C13.1431 13.8236 12.3922 13.516 11.6088 13.5146V13.5119C10.825 13.5133 10.0737 13.8213 9.51944 14.3683C8.9652 14.9154 8.65318 15.6569 8.65173 16.4306C8.6519 16.5228 8.65649 16.6146 8.66538 16.7056C9.33003 15.8588 10.3594 15.0704 11.5319 14.8892C12.5996 14.7242 13.68 15.1104 14.4611 15.668ZM19.656 16.3704C19.7415 16.484 19.8358 16.5919 19.9384 16.6932C20.4927 17.2402 21.244 17.5481 22.0278 17.5496C22.8116 17.5481 23.5629 17.2402 24.1171 16.6932C24.4539 16.3607 24.7012 15.9565 24.8438 15.5169C24.327 14.8592 23.0211 14.1438 21.8781 14.3251C20.6358 14.5188 19.9212 15.6537 19.656 16.3704ZM24.9436 14.1479C24.0643 13.5175 22.8376 13.1022 21.72 13.276C20.4783 13.4709 19.6257 14.2765 19.1074 15.0842C19.0834 14.9352 19.071 14.7837 19.0707 14.6309C19.0715 13.8571 19.3832 13.1151 19.9376 12.5679C20.492 12.0208 21.2438 11.713 22.0278 11.7123C22.8118 11.713 23.5636 12.0208 24.1179 12.5679C24.5556 12.9999 24.842 13.5533 24.9436 14.1479Z" fill="url(#paint0_linear_21538_62)"/>
</g>
<defs>
<linearGradient id="paint0_linear_21538_62" x1="58.3105" y1="0.0191995" x2="58.3105" y2="39.136" gradientUnits="userSpaceOnUse">
<stop stop-color="#E4E5E7"/>
<stop offset="1" stop-color="#E4E5E7" stop-opacity="0.7"/>
</linearGradient>
<clipPath id="clip0_21538_62">
<rect width="114" height="32" fill="white" transform="translate(0.996094)"/>
</clipPath>
</defs>
</svg>
