<svg width="114" height="32" viewBox="0 0 114 32" fill="none" xmlns="http://www.w3.org/2000/svg">
<g clip-path="url(#clip0_21538_62)">
<path fill-rule="evenodd" clip-rule="evenodd" d="M0.525498 30.9461C0.620277 30.9822 0.721019 31.0004 0.822569 31C0.984642 30.9937 1.14115 30.9399 1.27218 30.8455C1.40322 30.7512 1.50286 30.6205 1.55842 30.47C1.59385 30.3786 2.43599 28.1566 2.81483 20.3046C3.01105 16.1889 3.01923 14.3813 2.68128 10.3274C2.40056 6.98377 2.89659 5.46662 3.27541 5.29446C4.17207 4.87752 5.18592 5.63609 6.76391 6.90844C8.6526 8.44714 11.0074 10.3463 14.2315 9.86741C17.0756 9.44532 17.9427 6.7305 18.6403 4.5467L18.6411 4.54396L18.6471 4.52541C19.1082 3.0878 19.5412 1.7378 20.3254 1.62263C20.7043 1.56613 21.2412 1.7948 21.8435 2.25747C25.828 5.32675 31.5104 17.4855 32.4725 27.3012C32.4932 27.5142 32.5987 27.7103 32.7658 27.8464C32.9329 27.9826 33.148 28.0478 33.3637 28.0275C33.4707 28.0174 33.5748 27.9866 33.6697 27.9367C33.7647 27.8869 33.8487 27.819 33.9171 27.7371C33.9855 27.6551 34.0368 27.5606 34.0681 27.4591C34.0994 27.3575 34.1101 27.2509 34.0995 27.1452C33.162 17.5985 27.5941 4.64348 22.8573 0.987795C21.8707 0.226527 20.9414 -0.096276 20.0965 0.0247736C18.3059 0.293364 17.6946 2.20056 17.1013 4.05132L17.0986 4.05975C16.3382 6.44039 15.7113 8.01943 14.0025 8.27225C11.4952 8.63276 9.62554 7.13441 7.81591 5.67374C6.17523 4.35027 4.48003 2.98376 2.61042 3.83111C1.27771 4.44174 0.757153 6.67173 1.07603 10.4646C1.4058 14.427 1.40035 16.1996 1.20685 20.2346C0.849818 27.6536 0.0758093 29.8433 0.0567314 29.8971C0.0171977 29.9963 -0.00202662 30.1022 0.000168934 30.2088C0.00236448 30.3154 0.0259364 30.4205 0.0695227 30.5181C0.113109 30.6157 0.175847 30.7037 0.25411 30.7772C0.332374 30.8507 0.424613 30.9081 0.525498 30.9461ZM89.332 20.2035C89.3327 20.3016 89.3728 20.3955 89.4433 20.4647C89.5137 20.5339 89.6091 20.5728 89.7086 20.5728H91.0054C91.0545 20.5731 91.1035 20.5637 91.1491 20.5454C91.1954 20.5269 91.2369 20.4998 91.2714 20.4655C91.3067 20.4311 91.3343 20.3903 91.3536 20.3453C91.3723 20.3004 91.382 20.2522 91.382 20.2035V6.75258C91.382 6.654 91.3426 6.55945 91.2721 6.48973C91.2009 6.42002 91.1056 6.38086 91.0054 6.38086H89.7086C89.6091 6.38151 89.5137 6.42088 89.4433 6.49046C89.3728 6.56003 89.3327 6.6542 89.332 6.75258V20.2035ZM67.1258 20.8738C68.3529 20.8738 69.3587 20.5546 70.1436 19.9162C70.4227 19.6897 70.9319 19.8669 70.9319 20.2215C70.9319 20.3174 70.9706 20.4095 71.039 20.4774C71.1081 20.5452 71.2014 20.5833 71.2981 20.5833H72.3635C72.4126 20.5837 72.4616 20.5743 72.5072 20.5559C72.5528 20.5376 72.5943 20.5104 72.6295 20.4761C72.6647 20.4417 72.6924 20.401 72.711 20.356C72.7304 20.311 72.74 20.2628 72.74 20.2141V14.1533C72.74 13.7176 72.72 13.309 72.6827 12.9224C72.6433 12.5467 72.5369 12.1808 72.3683 11.8417C72.0588 11.1684 71.5082 10.6318 70.8221 10.3352C70.0469 9.99492 69.206 9.82685 68.3579 9.84282C67.1391 9.84282 66.1613 10.107 65.4248 10.6354C64.7938 11.0811 64.3146 11.7051 64.0505 12.4252C64.0345 12.4708 64.0284 12.5193 64.0325 12.5675C64.0366 12.6156 64.0509 12.6624 64.0743 12.7048C64.0978 12.7472 64.13 12.7843 64.1688 12.8137C64.2077 12.8432 64.2524 12.8642 64.2999 12.8757L65.4996 13.24C65.5989 13.2665 65.7045 13.2561 65.7965 13.2107C65.8885 13.1653 65.9604 13.0881 65.9984 12.9938C66.1714 12.61 66.4642 12.2908 66.834 12.083C67.2987 11.8242 67.8243 11.6909 68.3579 11.6964C69.1895 11.6964 69.783 11.8704 70.1388 12.2184C70.4753 12.5562 70.6798 13.0012 70.715 13.4739C70.7254 13.5652 70.6984 13.657 70.6404 13.729C70.583 13.801 70.498 13.8474 70.4055 13.8579C69.6572 13.9588 68.934 14.0671 68.2207 14.1779C67.4954 14.281 66.7773 14.429 66.0708 14.621C65.3513 14.8192 64.7051 15.2185 64.2102 15.7707C63.7725 16.3226 63.548 17.0102 63.5767 17.7105C63.571 18.2576 63.7085 18.7968 63.9757 19.2762C64.2631 19.7584 64.68 20.1529 65.1803 20.416C65.7807 20.7243 66.449 20.8816 67.1258 20.8738ZM67.4874 19.222C66.8364 19.222 66.3526 19.0743 66.0409 18.7789C65.8943 18.6448 65.7776 18.4821 65.6982 18.3012C65.6188 18.1202 65.5783 17.9249 65.5794 17.7277C65.5689 17.5437 65.6005 17.3596 65.6717 17.1892C65.7429 17.0188 65.852 16.8662 65.991 16.743C66.2999 16.4883 66.6555 16.2944 67.0385 16.1719C67.5523 16.028 68.0745 15.9154 68.6023 15.8346C69.101 15.7559 69.6551 15.6738 70.2631 15.5885C70.317 15.5799 70.3723 15.5834 70.4248 15.5987C70.4773 15.614 70.5257 15.6407 70.5658 15.6768C70.6065 15.713 70.6383 15.7577 70.6583 15.8076C70.6791 15.8575 70.688 15.9113 70.6846 15.9651C70.6846 16.0459 70.6768 16.129 70.6688 16.215L70.6688 16.2153L70.6688 16.2156C70.6648 16.2578 70.6608 16.3006 70.6576 16.3442C70.6362 16.62 70.5803 16.8921 70.4904 17.1542C70.4027 17.5157 70.232 17.8527 69.9916 18.1388C69.7235 18.4712 69.3822 18.7389 68.9939 18.9217C68.5207 19.1306 68.0055 19.2299 67.4874 19.2122V19.222ZM51.2323 20.4647C51.1617 20.3955 51.1217 20.3016 51.1211 20.2034V10.5215C51.1211 10.4229 51.1608 10.3283 51.2314 10.2586C51.302 10.1889 51.3978 10.1497 51.4977 10.1497H52.6226C52.7092 10.1497 52.7923 10.1837 52.8535 10.2442C52.9148 10.3046 52.9493 10.3867 52.9493 10.4722C52.9584 10.544 52.9865 10.612 53.0308 10.6696C53.0751 10.7272 53.1339 10.7722 53.2014 10.8002C53.269 10.8281 53.3428 10.838 53.4155 10.8289C53.4881 10.8197 53.557 10.7918 53.6152 10.7479C53.8611 10.5619 54.1271 10.4034 54.4084 10.2753C55.0486 9.99488 55.7433 9.85628 56.4436 9.86908C57.0747 9.84994 57.7024 9.96844 58.2817 10.2162C58.7489 10.4266 59.1603 10.7409 59.4839 11.1344C59.7925 11.501 60.0347 11.9174 60.1997 12.3653C60.3558 12.7868 60.467 13.2233 60.5314 13.6676C60.585 14.0387 60.6142 14.4128 60.6187 14.7876V20.2034C60.6187 20.2521 60.609 20.3004 60.59 20.3454C60.5711 20.3903 60.5433 20.4311 60.5083 20.4654C60.4732 20.4998 60.4317 20.5269 60.3861 20.5453C60.3404 20.5637 60.2915 20.573 60.2421 20.5727H58.9227C58.8734 20.573 58.8245 20.5637 58.7788 20.5453C58.7331 20.5269 58.6916 20.4998 58.6566 20.4654C58.6215 20.4311 58.5938 20.3903 58.5748 20.3454C58.5559 20.3004 58.5461 20.2521 58.5461 20.2034V15.4474C58.5442 15.03 58.5084 14.6134 58.4389 14.2017C58.3763 13.7856 58.2475 13.3818 58.0573 13.0053C57.8717 12.6426 57.5909 12.3357 57.2441 12.1167C56.8308 11.875 56.3549 11.7578 55.8749 11.7794C55.4075 11.7741 54.9464 11.8869 54.5356 12.1068C54.1045 12.3544 53.7626 12.7288 53.5579 13.1777C53.2895 13.7992 53.1651 14.472 53.1937 15.147V20.2034C53.1937 20.3014 53.1543 20.3953 53.0841 20.4645C53.014 20.5338 52.9188 20.5727 52.8196 20.5727H51.4977C51.3982 20.5727 51.3028 20.5339 51.2323 20.4647ZM46.843 19.974C46.0797 20.5599 45.0331 20.8529 43.7029 20.8529C42.4209 20.8529 41.3708 20.5714 40.5527 20.0085C39.856 19.5336 39.3579 18.8249 39.1511 18.0145C39.1391 17.9669 39.1374 17.9174 39.1462 17.8692C39.155 17.8209 39.174 17.775 39.202 17.7345C39.2301 17.6941 39.2665 17.6599 39.3088 17.6344C39.3513 17.6088 39.3986 17.5924 39.4479 17.5862L40.8172 17.3769C40.9121 17.3669 41.0077 17.3886 41.0886 17.4386C41.1696 17.4886 41.2312 17.564 41.2636 17.6526C41.4218 18.0449 41.6999 18.3787 42.0592 18.6078C42.5898 18.9326 43.2061 19.0946 43.8301 19.073C44.3577 19.1025 44.8812 18.9673 45.3265 18.6866C45.5019 18.5698 45.6442 18.4109 45.7402 18.2248C45.8362 18.0388 45.8827 17.8317 45.8752 17.6231C45.8866 17.3944 45.817 17.1689 45.6782 16.9855C45.4625 16.7607 45.1894 16.5974 44.8876 16.5128C44.4869 16.3652 43.8708 16.1821 43.0394 15.9639C42.2954 15.7831 41.5711 15.5308 40.877 15.2106C40.42 15.0155 40.0246 14.7025 39.7322 14.3047C39.5015 13.9093 39.3867 13.4584 39.4005 13.0024C39.3869 12.5623 39.4823 12.1256 39.6783 11.7301C39.8743 11.3346 40.165 10.9922 40.5253 10.7327C41.2819 10.16 42.2795 9.87354 43.5183 9.87354C44.5901 9.83395 45.6475 10.1276 46.5412 10.713C47.2066 11.1495 47.6777 11.8206 47.8581 12.5888C47.8677 12.6346 47.8679 12.6817 47.8583 12.7275C47.8489 12.7732 47.83 12.8166 47.8029 12.8549C47.7758 12.8932 47.741 12.9256 47.7008 12.9501C47.6605 12.9746 47.6156 12.9907 47.5688 12.9975L46.2095 13.2437C46.1063 13.2568 46.0017 13.2332 45.9145 13.1773C45.8273 13.1214 45.763 13.0367 45.7331 12.9384C45.6148 12.6141 45.398 12.3338 45.1121 12.1359C44.6504 11.8176 44.1014 11.6459 43.5382 11.6435C43.0196 11.5975 42.4987 11.7047 42.0418 11.9513C41.8666 12.0391 41.7196 12.1734 41.6174 12.3391C41.5152 12.5047 41.4618 12.6952 41.4632 12.8892C41.4576 13.1066 41.5382 13.3176 41.6876 13.4775C41.9364 13.6885 42.2268 13.8461 42.5406 13.9403C42.9613 14.088 43.5873 14.2653 44.4187 14.4721C45.1501 14.6368 45.8592 14.8864 46.5312 15.2155C46.987 15.4278 47.3733 15.7622 47.6461 16.1805C47.8849 16.5981 48.0031 17.0724 47.9878 17.5517C48.0078 18.0165 47.9142 18.4792 47.715 18.9008C47.5157 19.3224 47.2166 19.6905 46.843 19.974ZM76.3605 25.0999C76.2901 25.0302 76.25 24.9356 76.25 24.837L76.2728 10.5171C76.2721 10.4682 76.2818 10.4198 76.3004 10.3745C76.3198 10.3293 76.3474 10.2882 76.382 10.2536C76.4172 10.219 76.4587 10.1916 76.505 10.1731C76.5505 10.1545 76.5996 10.1451 76.6493 10.1454H77.8191C77.8909 10.1454 77.96 10.1737 78.0111 10.224C78.0623 10.2744 78.0906 10.3426 78.0906 10.4138C78.0968 10.4682 78.1161 10.5203 78.1486 10.5649C78.1804 10.6096 78.2239 10.6453 78.2744 10.6685C78.3241 10.6918 78.3794 10.7019 78.4353 10.6978C78.4906 10.6937 78.5438 10.6756 78.5894 10.6452C78.8499 10.4589 79.1325 10.3043 79.4303 10.1849C79.9885 9.9584 80.5875 9.84617 81.1914 9.85499C82.1006 9.8313 82.996 10.084 83.7553 10.5787C84.4884 11.067 85.0681 11.7496 85.426 12.5481C85.8308 13.4298 86.0319 14.3892 86.0146 15.3569C86.0305 16.3246 85.8295 17.2836 85.426 18.1658C85.0681 18.9585 84.4967 19.6395 83.7747 20.1352C83.0202 20.6339 82.1269 20.8885 81.2183 20.8638C80.6621 20.8719 80.108 20.7801 79.585 20.593C79.3777 20.5199 79.1774 20.4293 78.986 20.3222C78.9197 20.2843 78.8451 20.2634 78.7684 20.2617C78.6917 20.2599 78.6157 20.2772 78.5473 20.312C78.4796 20.347 78.4215 20.3982 78.3787 20.461C78.3359 20.5239 78.3096 20.5964 78.3027 20.6718V24.837C78.3027 24.9356 78.2633 25.0302 78.1928 25.0999C78.1217 25.1696 78.0263 25.2088 77.9261 25.2088H76.6265C76.5271 25.2088 76.431 25.1696 76.3605 25.0999ZM78.7442 18.0057C79.2064 18.6951 79.9367 19.0397 80.9344 19.0397C81.5168 19.063 82.0896 18.8893 82.558 18.5473C82.9988 18.2055 83.3318 17.747 83.5184 17.2254C83.7325 16.6238 83.8383 15.9897 83.83 15.352C83.8383 14.7199 83.7291 14.0916 83.508 13.4983C83.3208 12.9738 82.9836 12.5138 82.538 12.1739C82.0523 11.8308 81.4636 11.6575 80.8667 11.6816C79.9021 11.6816 79.1947 12.0229 78.7442 12.7057C78.2937 13.3884 78.0685 14.2705 78.0685 15.352C78.0567 16.4319 78.282 17.3164 78.7442 18.0057ZM102.777 20.1103C101.94 20.6206 100.973 20.8852 99.9887 20.8734C99.0165 20.8856 98.0583 20.6427 97.2126 20.1694C96.4298 19.7165 95.79 19.0576 95.3644 18.2664C94.9132 17.3878 94.6873 16.413 94.7087 15.428C94.6852 14.4069 94.9063 13.3947 95.3547 12.474C95.7624 11.6696 96.3939 10.9966 97.1753 10.5341C98.0037 10.0723 98.9454 9.84485 99.8961 9.87687C100.865 9.84747 101.82 10.1046 102.64 10.6154C103.411 11.1226 104.004 11.855 104.333 12.7103C104.685 13.6308 104.843 14.6126 104.797 15.5955C104.795 15.6899 104.755 15.7796 104.685 15.845C104.616 15.9104 104.524 15.9464 104.428 15.945H97.3197C97.2679 15.9438 97.2167 15.9537 97.1691 15.9741C97.1214 15.9945 97.0792 16.0248 97.0447 16.063C97.0101 16.1011 96.9846 16.1463 96.9701 16.1952C96.9549 16.2441 96.9507 16.2957 96.9583 16.3463C97.0405 17.0298 97.3342 17.6718 97.7985 18.1852C98.0721 18.4546 98.3989 18.6644 98.7595 18.801C99.1202 18.9375 99.5057 18.9978 99.8912 18.9779C101.073 18.9779 101.936 18.5175 102.488 17.6018C102.532 17.5233 102.602 17.462 102.687 17.428C102.771 17.394 102.864 17.3893 102.952 17.4147L104.249 17.8184C104.298 17.8332 104.344 17.8584 104.383 17.8924C104.422 17.9263 104.452 17.9681 104.473 18.015C104.493 18.0618 104.503 18.1126 104.502 18.1637C104.501 18.2147 104.489 18.2649 104.466 18.3107C104.077 19.0498 103.494 19.6715 102.777 20.1103ZM102.625 13.9535C102.325 12.4207 101.441 11.6542 99.9714 11.6542L99.9638 11.6444C99.0884 11.6444 98.4023 11.8758 97.8987 12.3484C97.453 12.7819 97.1511 13.3378 97.0309 13.9436C97.0191 13.9953 97.0198 14.0488 97.0323 14.1002C97.0454 14.1515 97.0696 14.1994 97.1034 14.2401C97.138 14.2809 97.1808 14.3135 97.2292 14.3354C97.2782 14.3575 97.3314 14.3683 97.3846 14.367H102.266C102.318 14.3682 102.371 14.3578 102.419 14.3366C102.468 14.3153 102.51 14.2838 102.544 14.2442C102.579 14.2046 102.604 14.1581 102.618 14.1077C102.631 14.0575 102.634 14.0048 102.625 13.9535ZM113.689 20.6272C113.774 20.6126 113.852 20.5685 113.908 20.5027C113.964 20.4368 113.993 20.3536 113.993 20.2678V19.2954C113.993 19.2415 113.981 19.1883 113.958 19.1393C113.935 19.0902 113.903 19.0465 113.861 19.0109C113.821 18.9753 113.772 18.9487 113.721 18.9328C113.668 18.9169 113.613 18.9122 113.559 18.9188C113.101 18.9677 112.64 18.9677 112.183 18.9188C111.954 18.9013 111.733 18.8297 111.539 18.7102C111.346 18.5906 111.184 18.4265 111.067 18.2319C110.935 17.9923 110.866 17.7243 110.863 17.4516V16.3585V12.1269C110.863 12.0283 110.902 11.9337 110.973 11.864C111.044 11.7943 111.139 11.7551 111.239 11.7551H113.627C113.726 11.7545 113.821 11.7151 113.892 11.6455C113.962 11.576 114.002 11.4818 114.003 11.3834V10.5046C114.003 10.406 113.963 10.3114 113.893 10.2417C113.822 10.172 113.726 10.1328 113.627 10.1328H111.239C111.14 10.1322 111.045 10.0928 110.974 10.0232C110.904 9.95369 110.864 9.8595 110.863 9.76111V7.60708C110.862 7.50869 110.822 7.41457 110.752 7.34496C110.681 7.27542 110.586 7.23604 110.486 7.23535H109.184C109.085 7.23604 108.989 7.27542 108.919 7.34496C108.848 7.41457 108.808 7.50869 108.807 7.60708V9.76111C108.807 9.85929 108.768 9.95348 108.698 10.0231C108.629 10.0928 108.533 10.1322 108.434 10.1328H107.159C107.11 10.1328 107.061 10.1425 107.015 10.1612C106.97 10.1799 106.928 10.2073 106.894 10.2419C106.859 10.2764 106.831 10.3174 106.813 10.3625C106.794 10.4076 106.785 10.4559 106.785 10.5046V11.3834C106.785 11.4816 106.825 11.5758 106.894 11.6454C106.965 11.715 107.059 11.7545 107.159 11.7551H108.434C108.483 11.7551 108.532 11.7648 108.577 11.7835C108.623 11.8022 108.664 11.8296 108.699 11.8642C108.734 11.8987 108.761 11.9397 108.78 11.9848C108.799 12.0298 108.808 12.0782 108.807 12.1269V16.457C108.807 17.0232 108.814 17.5312 108.828 17.9808C108.852 18.4407 108.979 18.8895 109.199 19.2954C109.449 19.7666 109.852 20.1405 110.344 20.3564C110.884 20.5904 111.465 20.7151 112.055 20.7232C112.601 20.743 113.148 20.7108 113.689 20.6272ZM11.0572 25.0845C10.4511 25.6822 9.62932 26.0179 8.77253 26.0179C7.91621 26.0172 7.09521 25.6811 6.48969 25.0835C6.23202 24.8292 6.02235 24.5363 5.86642 24.2187L4.78996 24.6755C4.73967 24.6988 4.68473 24.7108 4.62916 24.7105C4.54923 24.7098 4.47119 24.6864 4.40445 24.643C4.33772 24.5995 4.28514 24.538 4.25306 24.4657C4.23063 24.4165 4.21842 24.3634 4.21714 24.3095C4.21586 24.2556 4.22555 24.202 4.24562 24.1519C4.26569 24.1017 4.29574 24.056 4.334 24.0175C4.37226 23.979 4.41795 23.9485 4.46837 23.9277L5.60435 23.4465C5.56398 23.245 5.54315 23.0387 5.54297 22.8303C5.54297 22.6004 5.56814 22.373 5.61697 22.1518L4.30757 21.8887C4.25506 21.8784 4.20513 21.858 4.16065 21.8286C4.11616 21.7992 4.07801 21.7615 4.04838 21.7174C4.01874 21.6734 3.99821 21.6241 3.98797 21.5723C3.97773 21.5204 3.97797 21.467 3.9887 21.4153C3.9988 21.3632 4.01926 21.3136 4.04891 21.2694C4.07855 21.2252 4.11678 21.1872 4.1614 21.1577C4.20601 21.1282 4.25611 21.1077 4.30881 21.0975C4.3615 21.0871 4.41573 21.0873 4.46837 21.0978L5.89431 21.3844C6.04685 21.0886 6.24664 20.8154 6.48889 20.5763C6.88771 20.1827 7.38007 19.9026 7.91439 19.7573C7.79104 19.6597 7.67263 19.5552 7.55981 19.4438C6.84826 18.7415 6.4102 17.8197 6.31338 16.8396L5.46173 16.9928C5.42158 17.003 5.3805 17.0093 5.33909 17.0116C5.1797 17.0109 5.0256 16.955 4.90359 16.8538C4.78159 16.7525 4.69942 16.6123 4.67137 16.4574C4.65523 16.3709 4.65653 16.2821 4.67519 16.196C4.69385 16.1099 4.72951 16.0284 4.78013 15.9559C4.83075 15.8834 4.89534 15.8216 4.97021 15.7737C5.04507 15.726 5.12875 15.6932 5.21645 15.6773L6.40797 15.4606C6.59088 14.6937 6.98698 13.985 7.56078 13.419C8.37045 12.6203 9.46796 12.171 10.6127 12.1696C11.7574 12.171 12.8549 12.6203 13.6647 13.419C13.8031 13.5556 13.9313 13.7005 14.0485 13.8526C14.7046 13.4751 15.4541 13.2728 16.2222 13.2725C16.4563 13.2722 16.6897 13.2908 16.92 13.3282C17.1285 12.689 17.4888 12.1013 17.9787 11.6176C18.7885 10.8184 19.8865 10.3687 21.0317 10.3673C22.1769 10.3687 23.2748 10.8184 24.0846 11.6176C24.2678 11.7985 24.4328 11.9939 24.5786 12.201C24.5901 12.1983 24.6016 12.1959 24.6132 12.1937L25.6407 12.0081C25.8177 11.9767 26.0001 12.0156 26.1482 12.1163C26.2962 12.2171 26.3979 12.3716 26.431 12.5461C26.4637 12.7213 26.4247 12.902 26.3225 13.0487C26.2203 13.1955 26.0633 13.2963 25.886 13.3289L25.1828 13.4559C25.2932 13.8347 25.3509 14.2299 25.3514 14.6309C25.3503 15.4647 25.1022 16.273 24.6471 16.9606C24.8342 16.9273 25.0251 16.9102 25.2179 16.91C26.0747 16.91 26.8964 17.2457 27.5025 17.8434L27.527 17.8679L28.3986 17.3379C28.4909 17.2827 28.6016 17.2656 28.7066 17.2904C28.8116 17.315 28.9026 17.3794 28.96 17.4697C29.016 17.5613 29.0333 17.6709 29.0084 17.7749C28.9834 17.879 28.9181 17.9694 28.8265 18.0265L28.0226 18.5146C28.2743 18.9483 28.421 19.4373 28.4462 19.9429L29.3851 19.9929C29.4934 19.9991 29.5947 20.0473 29.6672 20.1268C29.7396 20.2064 29.7774 20.311 29.7722 20.4179C29.7608 20.517 29.7128 20.6086 29.6374 20.675C29.562 20.7416 29.4644 20.7783 29.3634 20.7783H29.3415L28.3865 20.7275C28.3453 20.9292 28.2843 21.127 28.204 21.3181C28.0416 21.705 27.8035 22.0565 27.5033 22.3526C27.2031 22.6486 26.8468 22.8834 26.4546 23.0434C26.0624 23.2034 25.6422 23.2856 25.2179 23.2852C24.3613 23.2852 23.5399 22.9494 22.9342 22.3516C22.3285 21.7539 21.9883 20.943 21.9883 20.0976C21.9887 19.6087 22.1028 19.1315 22.3161 18.7003C21.904 18.8274 21.4713 18.894 21.0317 18.8946C19.8865 18.8931 18.7885 18.4435 17.9787 17.6442C17.1762 16.852 16.7215 15.7806 16.7121 14.6611C16.5504 14.6344 16.3866 14.6207 16.2222 14.6202C15.6806 14.6203 15.1526 14.7671 14.6939 15.0403C14.8495 15.4834 14.9315 15.9528 14.9324 16.4306C14.931 17.5609 14.4755 18.6446 13.6656 19.4438C12.9816 20.119 12.0921 20.5446 11.1421 20.6614C11.4029 20.9386 11.6118 21.2598 11.7588 21.6098C11.9212 21.9967 12.0049 22.4114 12.0049 22.8303C12.0041 23.676 11.6633 24.4868 11.0572 25.0845ZM16.5761 23.5517C15.9078 23.5799 15.249 23.3884 14.703 23.0072C14.157 22.626 13.7546 22.0767 13.5591 21.4454C13.5176 21.3117 13.5304 21.1671 13.5951 21.0426C13.6597 20.918 13.7709 20.8232 13.9052 20.7783C14.0414 20.731 14.1912 20.7389 14.3215 20.8004C14.4518 20.862 14.552 20.972 14.6001 21.1065C14.9572 22.1825 15.8975 22.6506 17.1811 22.4219C18.4647 22.1932 19.1516 21.4158 19.1271 20.2861C19.1271 20.1433 19.1845 20.0065 19.2866 19.9056C19.3889 19.8047 19.5276 19.748 19.6721 19.748C19.8166 19.748 19.9553 19.8047 20.0575 19.9056C20.1598 20.0065 20.2172 20.1433 20.2172 20.2861C20.2526 21.9485 19.1624 23.1804 17.3746 23.5006C17.1105 23.541 16.8433 23.5581 16.5761 23.5517ZM8.11961 17.9963C8.2346 18.1744 8.36966 18.3411 8.52335 18.4928C9.0776 19.0398 9.82889 19.3478 10.6127 19.3492C11.3965 19.3478 12.1478 19.0398 12.702 18.4928C13.0731 18.1265 13.3356 17.6731 13.469 17.1812C13.1606 16.6371 11.9329 15.7588 10.7075 15.9518C9.56009 16.1324 8.51369 17.1744 8.11961 17.9963ZM13.465 15.668C13.3303 15.1813 13.069 14.7328 12.7011 14.3701C12.147 13.8236 11.3961 13.516 10.6127 13.5146V13.5119C9.82889 13.5133 9.0776 13.8213 8.52335 14.3683C7.9691 14.9154 7.65709 15.6569 7.65564 16.4306C7.65581 16.5228 7.6604 16.6146 7.66928 16.7056C8.33393 15.8588 9.36335 15.0704 10.5358 14.8892C11.6035 14.7242 12.6839 15.1104 13.465 15.668ZM18.6599 16.3704C18.7454 16.484 18.8397 16.5919 18.9423 16.6932C19.4966 17.2402 20.2479 17.5481 21.0317 17.5496C21.8155 17.5481 22.5668 17.2402 23.121 16.6932C23.4578 16.3607 23.7052 15.9565 23.8477 15.5169C23.3309 14.8592 22.025 14.1438 20.882 14.3251C19.6397 14.5188 18.9251 15.6537 18.6599 16.3704ZM23.9475 14.1479C23.0682 13.5175 21.8415 13.1022 20.7239 13.276C19.4822 13.4709 18.6296 14.2765 18.1113 15.0842C18.0873 14.9352 18.0749 14.7837 18.0746 14.6309C18.0754 13.8571 18.3871 13.1151 18.9415 12.5679C19.4959 12.0208 20.2477 11.713 21.0317 11.7123C21.8157 11.713 22.5675 12.0208 23.1218 12.5679C23.5595 12.9999 23.8459 13.5533 23.9475 14.1479Z" fill="url(#paint0_linear_21538_62)"/>
</g>
<defs>
<linearGradient id="paint0_linear_21538_62" x1="57.3144" y1="0.0191995" x2="57.3144" y2="39.136" gradientUnits="userSpaceOnUse">
<stop stop-color="#E4E5E7"/>
<stop offset="1" stop-color="#E4E5E7" stop-opacity="0.7"/>
</linearGradient>
<clipPath id="clip0_21538_62">
<rect width="114" height="32" fill="white"/>
</clipPath>
</defs>
</svg>
