<svg xmlns="http://www.w3.org/2000/svg" fill="none" viewBox="0 0 420 388">
  <g clip-path="url(#a)">
    <mask id="b" width="420" height="388" x="0" y="0" maskUnits="userSpaceOnUse" style="mask-type:alpha">
      <path fill="#080808" fill-rule="evenodd" d="M0 366a22 22 0 0 0 22 22h376a22 22 0 0 0 22-22v-96.3a22 22 0 0 0-7.2-16.2l-29.6-27a22 22 0 0 1-7.2-16.2v-32.6a22 22 0 0 1 7.2-16.2l29.6-27a22 22 0 0 0 7.2-16.2V22a22 22 0 0 0-22-22H22A22 22 0 0 0 0 22v344Z" clip-rule="evenodd"/>
    </mask>
    <g mask="url(#b)">
      <path fill="#080808" d="M420 388H0V0h420z"/>
    </g>
  </g>
  <defs>
    <clipPath id="a">
      <path fill="#fff" d="M420 388H0V0h420z"/>
    </clipPath>
  </defs>
</svg>
