<svg xmlns="http://www.w3.org/2000/svg" fill="none" viewBox="0 0 388 420">
  <g clip-path="url(#a)">
    <mask id="b" width="388" height="420" x="0" y="0" maskUnits="userSpaceOnUse" style="mask-type:alpha">
      <path fill="#080808" fill-rule="evenodd" d="M22 0A22 22 0 0 0 0 22v376a22 22 0 0 0 22 22h96.3a22 22 0 0 0 16.2-7.2l27-29.6a22 22 0 0 1 16.2-7.2h32.6a22 22 0 0 1 16.2 7.2l27 29.6a22 22 0 0 0 16.2 7.2H366a22 22 0 0 0 22-22V22a22 22 0 0 0-22-22H22Z" clip-rule="evenodd"/>
    </mask>
    <g mask="url(#b)">
      <path fill="#080808" d="M0 420V0h388v420z"/>
    </g>
  </g>
  <defs>
    <clipPath id="a">
      <path fill="#fff" d="M0 420V0h388v420z"/>
    </clipPath>
  </defs>
</svg>
