<svg xmlns="http://www.w3.org/2000/svg" fill="none" viewBox="0 0 420 388">
  <g clip-path="url(#a)">
    <mask id="b" width="420" height="388" x="0" y="0" maskUnits="userSpaceOnUse" style="mask-type:alpha">
      <path fill="#000000" fill-rule="evenodd" d="M0 366c0 12.15 9.84975 22 22 22h376c12.15 0 22-9.85 22-22v-96.268c0-6.198-2.615-12.109-7.201-16.279l-29.598-26.906c-4.586-4.17-7.201-10.081-7.201-16.279v-32.536c0-6.198 2.615-12.109 7.201-16.279l29.598-26.906c4.586-4.17 7.201-10.081 7.201-16.279V22c0-12.15026-9.85-22-22-22H22C9.84974 0 0 9.84973 0 22v344Z" clip-rule="evenodd"/>
    </mask>
    <g mask="url(#b)">
      <path fill="#000000" d="M420 388H0V0h420z"/>
    </g>
  </g>
  <defs>
    <clipPath id="a">
      <path fill="#fff" d="M420 388H0V0h420z"/>
    </clipPath>
  </defs>
</svg>
