<svg xmlns="http://www.w3.org/2000/svg" fill="none" viewBox="0 0 420 388">
  <g clip-path="url(#a)">
    <mask id="b" width="420" height="388" x="0" y="0" maskUnits="userSpaceOnUse" style="mask-type:alpha">
      <path fill="#000000" fill-rule="evenodd" d="M420 22c0-12.15026-9.85-22-22-22H22C9.84974 0 0 9.84974 0 22v96.268c0 6.198 2.61476 12.109 7.2012 16.279l29.5976 26.906C41.3852 165.623 44 171.534 44 177.732v32.536c0 6.198-2.6148 12.109-7.2012 16.279L7.2012 253.453C2.61477 257.623 0 263.534 0 269.732V366c0 12.15 9.84975 22 22 22h376c12.15 0 22-9.85 22-22V22Z" clip-rule="evenodd"/>
    </mask>
    <g mask="url(#b)">
      <path fill="#000000" d="M0 0h420v388H0z"/>
    </g>
  </g>
  <defs>
    <clipPath id="a">
      <path fill="#fff" d="M0 0h420v388H0z"/>
    </clipPath>
  </defs>
</svg>
