<svg xmlns="http://www.w3.org/2000/svg" fill="none" viewBox="0 0 420 388">
  <g clip-path="url(#a)">
    <mask id="b" width="420" height="388" x="0" y="0" maskUnits="userSpaceOnUse" style="mask-type:alpha">
      <path fill="#080808" fill-rule="evenodd" d="M420 22a22 22 0 0 0-22-22H22A22 22 0 0 0 0 22v96.3a22 22 0 0 0 7.2 16.2l29.6 27a22 22 0 0 1 7.2 16.2v32.6a22 22 0 0 1-7.2 16.2l-29.6 27A22 22 0 0 0 0 269.7V366a22 22 0 0 0 22 22h376a22 22 0 0 0 22-22V22Z" clip-rule="evenodd"/>
    </mask>
    <g mask="url(#b)">
      <path fill="#080808" d="M0 0h420v388H0z"/>
    </g>
  </g>
  <defs>
    <clipPath id="a">
      <path fill="#fff" d="M0 0h420v388H0z"/>
    </clipPath>
  </defs>
</svg>
